<?xml version="1.0" standalone="no"?><!DOCTYPE svg PUBLIC "-//W3C//DTD SVG 1.1//EN" "http://www.w3.org/Graphics/SVG/1.1/DTD/svg11.dtd" ><svg version="1.1" xmlns="http://www.w3.org/2000/svg"><defs><font horiz-adv-x="0" id="font"><font-face ascent="812" bbox="-175 -301 1457 1062" cap-height="752" descent="-188" font-family="Sansa Soft Pro" font-stretch="normal" font-style="normal" font-weight="700" units-per-em="1000" x-height="548" /><missing-glyph d="M0 0H742V750H0ZM242 191 187 246 318 382 187 518 242 571 374 437 505 571 559 518 427 382 559 246 505 191 374 327Z" horiz-adv-x="742" /><glyph d="M264 750C190 604 88 290 27 49C26 42 25 38 25 32C25 12 42 0 65 0H149C182 0 194 16 201 46C209 82 219 121 229 161H506C515 121 524 82 533 46C540 17 556 0 585 0H681C705 0 721 13 721 32C721 37 720 44 718 50C658 294 556 603 483 750ZM370 626C401 560 438 432 472 297H264C300 432 339 560 370 626Z" glyph-name="A" horiz-adv-x="746" unicode="A" /><glyph d="M151 0C183 0 195 16 203 46C211 82 221 121 231 161H456C469 57 534 0 647 0H905C937 0 952 20 952 47V89C952 116 937 135 905 135H715C652 135 629 157 629 226V317H864C896 317 910 337 910 364V406C910 434 896 453 864 453H629V615H900C933 615 946 634 946 661V703C946 730 933 750 900 750H264C190 604 88 290 27 49C26 42 25 38 25 32C25 12 42 0 65 0ZM371 626H454V297H266C302 432 340 560 371 626Z" glyph-name="AE" horiz-adv-x="1011" unicode="&#198;" /><glyph d="M151 0C183 0 195 16 203 46C211 82 221 121 231 161H456C469 57 534 0 647 0H905C937 0 952 20 952 47V89C952 116 937 135 905 135H715C652 135 629 157 629 226V317H864C896 317 910 337 910 364V406C910 434 896 453 864 453H629V615H900C933 615 946 634 946 661V703C946 730 933 750 900 750H264C190 604 88 290 27 49C26 42 25 38 25 32C25 12 42 0 65 0ZM371 626H454V297H266C302 432 340 560 371 626ZM587 828C613 828 634 847 661 869L740 940C752 950 758 958 758 966C758 977 750 984 726 984H639C609 984 595 969 576 943L524 869C518 860 516 853 516 849C516 837 524 828 545 828Z" glyph-name="AEacute" horiz-adv-x="1011" unicode="&#508;" /><glyph d="M264 750C190 604 88 290 27 49C26 42 25 38 25 32C25 12 42 0 65 0H149C182 0 194 16 201 46C209 82 219 121 229 161H506C515 121 524 82 533 46C540 17 556 0 585 0H681C705 0 721 13 721 32C721 37 720 44 718 50C658 294 556 603 483 750ZM370 626C401 560 438 432 472 297H264C300 432 339 560 370 626ZM400 828C426 828 447 847 474 869L553 940C565 950 571 958 571 966C571 977 563 984 539 984H452C422 984 408 969 389 943L337 869C331 860 329 853 329 849C329 837 337 828 358 828Z" glyph-name="Aacute" horiz-adv-x="746" unicode="&#193;" /><glyph d="M264 750C190 604 88 290 27 49C26 42 25 38 25 32C25 12 42 0 65 0H149C182 0 194 16 201 46C209 82 219 121 229 161H506C515 121 524 82 533 46C540 17 556 0 585 0H681C705 0 721 13 721 32C721 37 720 44 718 50C658 294 556 603 483 750ZM370 626C401 560 438 432 472 297H264C300 432 339 560 370 626ZM373 817C477 817 540 877 546 972C547 991 530 994 520 994H510C494 994 486 986 479 967C465 932 433 911 373 911C315 911 282 932 269 967C261 986 254 994 238 994H227C218 994 200 991 202 972C206 877 271 817 373 817Z" glyph-name="Abreve" horiz-adv-x="746" unicode="&#258;" /><glyph d="M264 750C190 604 88 290 27 49C26 42 25 38 25 32C25 12 42 0 65 0H149C182 0 194 16 201 46C209 82 219 121 229 161H506C515 121 524 82 533 46C540 17 556 0 585 0H681C705 0 721 13 721 32C721 37 720 44 718 50C658 294 556 603 483 750ZM373 929 424 875C453 847 470 828 499 828H534C555 828 566 838 566 848C566 854 562 865 553 875L488 953C463 981 448 1000 417 1000H330C300 1000 284 981 259 953L195 875C185 865 182 854 182 848C182 835 198 828 214 828H247C277 828 295 846 323 875ZM370 626C401 560 438 432 472 297H264C300 432 339 560 370 626Z" glyph-name="Acircumflex" horiz-adv-x="746" unicode="&#194;" /><glyph d="M264 750C190 604 88 290 27 49C26 42 25 38 25 32C25 12 42 0 65 0H149C182 0 194 16 201 46C209 82 219 121 229 161H506C515 121 524 82 533 46C540 17 556 0 585 0H681C705 0 721 13 721 32C721 37 720 44 718 50C658 294 556 603 483 750ZM370 626C401 560 438 432 472 297H264C300 432 339 560 370 626ZM222 828H263C296 828 310 848 310 875V895C310 923 296 942 263 942H222C189 942 175 923 175 895V875C175 848 189 828 222 828ZM484 828H526C558 828 572 848 572 875V895C572 923 558 942 526 942H484C452 942 438 923 438 895V875C438 848 452 828 484 828Z" glyph-name="Adieresis" horiz-adv-x="746" unicode="&#196;" /><glyph d="M264 750C190 604 88 290 27 49C26 42 25 38 25 32C25 12 42 0 65 0H149C182 0 194 16 201 46C209 82 219 121 229 161H506C515 121 524 82 533 46C540 17 556 0 585 0H681C705 0 721 13 721 32C721 37 720 44 718 50C658 294 556 603 483 750ZM370 626C401 560 438 432 472 297H264C300 432 339 560 370 626ZM199 940 278 869C305 847 326 828 352 828H393C414 828 422 837 422 849C422 853 420 860 414 869L362 943C344 969 329 984 299 984H212C189 984 181 977 181 966C181 958 187 950 199 940Z" glyph-name="Agrave" horiz-adv-x="746" unicode="&#192;" /><glyph d="M264 750C190 604 88 290 27 49C26 42 25 38 25 32C25 12 42 0 65 0H149C182 0 194 16 201 46C209 82 219 121 229 161H506C515 121 524 82 533 46C540 17 556 0 585 0H681C705 0 721 13 721 32C721 37 720 44 718 50C658 294 556 603 483 750ZM370 626C401 560 438 432 472 297H264C300 432 339 560 370 626ZM254 828H494C524 828 537 846 537 871V888C537 914 524 932 494 932H254C224 932 210 914 210 888V871C210 846 224 828 254 828Z" glyph-name="Amacron" horiz-adv-x="746" unicode="&#256;" /><glyph d="M264 750C190 604 88 290 27 49C26 42 25 38 25 32C25 12 42 0 65 0H149C182 0 194 16 201 46C209 82 219 121 229 161H506C515 121 524 82 533 46C540 17 556 0 585 0H681C705 0 721 13 721 32C721 37 720 44 718 50C658 294 556 603 483 750ZM370 626C401 560 438 432 472 297H264C300 432 339 560 370 626ZM539 -105C539 -164 590 -187 648 -187H726C745 -187 755 -176 755 -158V-145C755 -127 745 -116 726 -116H690C659 -116 636 -112 636 -88C636 -67 663 -51 683 -42V-30H601C566 -46 539 -74 539 -105Z" glyph-name="Aogonek" horiz-adv-x="746" unicode="&#260;" /><glyph d="M264 750C190 604 88 290 27 49C26 42 25 38 25 32C25 12 42 0 65 0H149C182 0 194 16 201 46C209 82 219 121 229 161H506C515 121 524 82 533 46C540 17 556 0 585 0H681C705 0 721 13 721 32C721 37 720 44 718 50C658 294 556 603 483 750ZM373 816C454 816 499 864 499 928C499 991 454 1040 373 1040C293 1040 247 991 247 928C247 864 293 816 373 816ZM370 626C401 560 438 432 472 297H264C300 432 339 560 370 626ZM373 867C337 867 317 892 317 928C317 962 337 987 373 987C410 987 431 962 431 928C431 892 410 867 373 867Z" glyph-name="Aring" horiz-adv-x="746" unicode="&#197;" /><glyph d="M264 750C190 604 88 290 27 49C26 42 25 38 25 32C25 12 42 0 65 0H149C182 0 194 16 201 46C209 82 219 121 229 161H506C515 121 524 82 533 46C540 17 556 0 585 0H681C705 0 721 13 721 32C721 37 720 44 718 50C658 294 556 603 483 750ZM370 626C401 560 438 432 472 297H264C300 432 339 560 370 626ZM302 994C249 994 204 942 204 904V893C204 869 208 857 223 857C227 857 233 861 241 867C257 884 277 896 302 896C339 896 393 828 446 828C490 828 548 872 548 922V933C548 953 543 968 530 968C522 968 515 962 507 954C495 944 475 927 446 927C409 927 356 994 302 994Z" glyph-name="Atilde" horiz-adv-x="746" unicode="&#195;" /><glyph d="M68 47C68 20 82 0 115 0H397C551 0 639 70 639 224C639 313 593 364 527 391C588 423 623 480 623 553C623 687 543 750 397 750H115C82 750 68 730 68 703ZM243 440V615H356C414 615 449 591 449 532C449 478 414 440 356 440ZM243 135V315H356C423 315 464 292 464 227C464 158 428 135 359 135Z" glyph-name="B" horiz-adv-x="688" unicode="B" /><glyph d="M42 333C42 123 159 -8 396 -8H442C491 -8 552 6 577 15C602 23 614 38 614 64V112C614 137 603 149 583 149C578 149 574 148 567 146C541 140 489 127 442 127H406C285 127 217 207 217 333V422C217 553 286 623 401 623C426 623 454 619 473 613V565C473 539 486 520 519 520H567C601 520 614 539 614 565V726C567 743 487 758 417 758C193 758 42 650 42 417Z" glyph-name="C" horiz-adv-x="661" unicode="C" /><glyph d="M42 333C42 123 159 -8 396 -8H442C491 -8 552 6 577 15C602 23 614 38 614 64V112C614 137 603 149 583 149C578 149 574 148 567 146C541 140 489 127 442 127H406C285 127 217 207 217 333V422C217 553 286 623 401 623C426 623 454 619 473 613V565C473 539 486 520 519 520H567C601 520 614 539 614 565V726C567 743 487 758 417 758C193 758 42 650 42 417ZM382 828C408 828 429 847 456 869L535 940C547 950 553 958 553 966C553 977 545 984 521 984H434C404 984 390 969 371 943L319 869C313 860 311 853 311 849C311 837 319 828 340 828Z" glyph-name="Cacute" horiz-adv-x="661" unicode="&#262;" /><glyph d="M42 333C42 123 159 -8 396 -8H442C491 -8 552 6 577 15C602 23 614 38 614 64V112C614 137 603 149 583 149C578 149 574 148 567 146C541 140 489 127 442 127H406C285 127 217 207 217 333V422C217 553 286 623 401 623C426 623 454 619 473 613V565C473 539 486 520 519 520H567C601 520 614 539 614 565V726C567 743 487 758 417 758C193 758 42 650 42 417ZM394 898 344 953C316 982 298 1000 268 1000H235C219 1000 203 993 203 979C203 973 206 963 216 953L280 875C305 846 321 828 351 828H438C469 828 484 846 509 875L574 953C583 963 587 973 587 979C587 990 576 1000 555 1000H520C491 1000 474 981 445 953Z" glyph-name="Ccaron" horiz-adv-x="661" unicode="&#268;" /><glyph d="M42 333C42 123 159 -8 396 -8H442C491 -8 552 6 577 15C602 23 614 38 614 64V112C614 137 603 149 583 149C578 149 574 148 567 146C541 140 489 127 442 127H406C285 127 217 207 217 333V422C217 553 286 623 401 623C426 623 454 619 473 613V565C473 539 486 520 519 520H567C601 520 614 539 614 565V726C567 743 487 758 417 758C193 758 42 650 42 417ZM274 -146V-159C274 -177 284 -188 302 -188H381C439 -188 490 -165 490 -106C490 -75 463 -47 427 -31H345V-43C366 -52 393 -68 393 -89C393 -113 370 -117 339 -117H302C284 -117 274 -128 274 -146Z" glyph-name="Ccedilla" horiz-adv-x="661" unicode="&#199;" /><glyph d="M42 333C42 123 159 -8 396 -8H442C491 -8 552 6 577 15C602 23 614 38 614 64V112C614 137 603 149 583 149C578 149 574 148 567 146C541 140 489 127 442 127H406C285 127 217 207 217 333V422C217 553 286 623 401 623C426 623 454 619 473 613V565C473 539 486 520 519 520H567C601 520 614 539 614 565V726C567 743 487 758 417 758C193 758 42 650 42 417ZM394 929 445 875C474 847 491 828 520 828H555C576 828 587 838 587 848C587 854 583 865 574 875L509 953C484 981 469 1000 438 1000H351C321 1000 305 981 280 953L216 875C206 865 203 854 203 848C203 835 219 828 235 828H268C298 828 316 846 344 875Z" glyph-name="Ccircumflex" horiz-adv-x="661" unicode="&#264;" /><glyph d="M42 333C42 123 159 -8 396 -8H442C491 -8 552 6 577 15C602 23 614 38 614 64V112C614 137 603 149 583 149C578 149 574 148 567 146C541 140 489 127 442 127H406C285 127 217 207 217 333V422C217 553 286 623 401 623C426 623 454 619 473 613V565C473 539 486 520 519 520H567C601 520 614 539 614 565V726C567 743 487 758 417 758C193 758 42 650 42 417ZM365 823H424C457 823 471 843 471 869V895C471 923 457 942 424 942H365C333 942 319 923 319 895V869C319 843 333 823 365 823Z" glyph-name="Cdotaccent" horiz-adv-x="661" unicode="&#266;" /><glyph d="M68 47C68 20 82 0 115 0H350C592 0 699 138 699 333V433C699 627 581 750 344 750H115C82 750 68 730 68 703ZM243 135V615H324C455 615 524 556 524 423V344C524 204 462 135 329 135Z" glyph-name="D" horiz-adv-x="741" unicode="D" /><glyph d="M68 47C68 20 82 0 115 0H350C592 0 699 138 699 333V433C699 627 581 750 344 750H115C82 750 68 730 68 703ZM243 135V615H324C455 615 524 556 524 423V344C524 204 462 135 329 135ZM340 898 290 953C262 982 244 1000 214 1000H181C165 1000 149 993 149 979C149 973 152 963 162 953L226 875C251 846 267 828 297 828H384C415 828 430 846 455 875L520 953C529 963 533 973 533 979C533 990 522 1000 501 1000H466C437 1000 420 981 391 953Z" glyph-name="Dcaron" horiz-adv-x="741" unicode="&#270;" /><glyph d="M68 47C68 20 82 0 115 0H350C592 0 699 138 699 333V433C699 627 581 750 344 750H115C82 750 68 730 68 703V428H50C20 428 6 408 6 382V374C6 348 20 327 50 327H68ZM243 135V327H279C312 327 326 347 326 374V382C326 409 312 428 279 428H243V615H324C455 615 524 556 524 423V344C524 204 462 135 329 135Z" glyph-name="Dcroat" horiz-adv-x="741" unicode="&#272;" /><glyph d="M19 16C19 7 22 0 34 0H651C662 0 667 7 667 16V19C667 25 663 35 660 43L436 701C424 733 409 750 379 750H307C275 750 261 733 250 701L24 43C21 35 19 25 19 19ZM210 144 343 555 476 144Z" glyph-name="Delta" horiz-adv-x="680" unicode="&#8710;" /><glyph d="M68 203C68 73 134 0 262 0H520C553 0 566 20 566 47V89C566 116 553 135 520 135H329C267 135 243 157 243 226V317H479C511 317 524 337 524 364V406C524 434 511 453 479 453H243V615H515C547 615 562 634 562 661V703C562 730 547 750 515 750H115C82 750 68 730 68 703Z" glyph-name="E" horiz-adv-x="625" unicode="E" /><glyph d="M68 203C68 73 134 0 262 0H520C553 0 566 20 566 47V89C566 116 553 135 520 135H329C267 135 243 157 243 226V317H479C511 317 524 337 524 364V406C524 434 511 453 479 453H243V615H515C547 615 562 634 562 661V703C562 730 547 750 515 750H115C82 750 68 730 68 703ZM306 828C332 828 353 847 380 869L459 940C471 950 477 958 477 966C477 977 469 984 445 984H358C328 984 314 969 295 943L243 869C237 860 235 853 235 849C235 837 243 828 264 828Z" glyph-name="Eacute" horiz-adv-x="625" unicode="&#201;" /><glyph d="M68 203C68 73 134 0 262 0H520C553 0 566 20 566 47V89C566 116 553 135 520 135H329C267 135 243 157 243 226V317H479C511 317 524 337 524 364V406C524 434 511 453 479 453H243V615H515C547 615 562 634 562 661V703C562 730 547 750 515 750H115C82 750 68 730 68 703ZM318 817C422 817 485 877 491 972C492 991 475 994 465 994H455C439 994 431 986 424 967C410 932 378 911 318 911C260 911 227 932 214 967C206 986 199 994 183 994H172C163 994 145 991 147 972C151 877 216 817 318 817Z" glyph-name="Ebreve" horiz-adv-x="625" unicode="&#276;" /><glyph d="M68 203C68 73 134 0 262 0H520C553 0 566 20 566 47V89C566 116 553 135 520 135H329C267 135 243 157 243 226V317H479C511 317 524 337 524 364V406C524 434 511 453 479 453H243V615H515C547 615 562 634 562 661V703C562 730 547 750 515 750H115C82 750 68 730 68 703ZM318 898 268 953C240 982 222 1000 192 1000H159C143 1000 127 993 127 979C127 973 130 963 140 953L204 875C229 846 245 828 275 828H362C393 828 408 846 433 875L498 953C507 963 511 973 511 979C511 990 500 1000 479 1000H444C415 1000 398 981 369 953Z" glyph-name="Ecaron" horiz-adv-x="625" unicode="&#282;" /><glyph d="M68 203C68 73 134 0 262 0H520C553 0 566 20 566 47V89C566 116 553 135 520 135H329C267 135 243 157 243 226V317H479C511 317 524 337 524 364V406C524 434 511 453 479 453H243V615H515C547 615 562 634 562 661V703C562 730 547 750 515 750H115C82 750 68 730 68 703ZM318 929 369 875C398 847 415 828 444 828H479C500 828 511 838 511 848C511 854 507 865 498 875L433 953C408 981 393 1000 362 1000H275C245 1000 229 981 204 953L140 875C130 865 127 854 127 848C127 835 143 828 159 828H192C222 828 240 846 268 875Z" glyph-name="Ecircumflex" horiz-adv-x="625" unicode="&#202;" /><glyph d="M68 203C68 73 134 0 262 0H520C553 0 566 20 566 47V89C566 116 553 135 520 135H329C267 135 243 157 243 226V317H479C511 317 524 337 524 364V406C524 434 511 453 479 453H243V615H515C547 615 562 634 562 661V703C562 730 547 750 515 750H115C82 750 68 730 68 703ZM429 828H471C503 828 517 848 517 875V895C517 923 503 942 471 942H429C397 942 383 923 383 895V875C383 848 397 828 429 828ZM167 828H208C241 828 255 848 255 875V895C255 923 241 942 208 942H167C134 942 120 923 120 895V875C120 848 134 828 167 828Z" glyph-name="Edieresis" horiz-adv-x="625" unicode="&#203;" /><glyph d="M68 203C68 73 134 0 262 0H520C553 0 566 20 566 47V89C566 116 553 135 520 135H329C267 135 243 157 243 226V317H479C511 317 524 337 524 364V406C524 434 511 453 479 453H243V615H515C547 615 562 634 562 661V703C562 730 547 750 515 750H115C82 750 68 730 68 703ZM289 823H348C381 823 395 843 395 869V895C395 923 381 942 348 942H289C257 942 243 923 243 895V869C243 843 257 823 289 823Z" glyph-name="Edotaccent" horiz-adv-x="625" unicode="&#278;" /><glyph d="M68 203C68 73 134 0 262 0H520C553 0 566 20 566 47V89C566 116 553 135 520 135H329C267 135 243 157 243 226V317H479C511 317 524 337 524 364V406C524 434 511 453 479 453H243V615H515C547 615 562 634 562 661V703C562 730 547 750 515 750H115C82 750 68 730 68 703ZM180 940 259 869C286 847 307 828 333 828H374C395 828 403 837 403 849C403 853 401 860 395 869L343 943C325 969 310 984 280 984H193C170 984 162 977 162 966C162 958 168 950 180 940Z" glyph-name="Egrave" horiz-adv-x="625" unicode="&#200;" /><glyph d="M68 203C68 73 134 0 262 0H520C553 0 566 20 566 47V89C566 116 553 135 520 135H329C267 135 243 157 243 226V317H479C511 317 524 337 524 364V406C524 434 511 453 479 453H243V615H515C547 615 562 634 562 661V703C562 730 547 750 515 750H115C82 750 68 730 68 703ZM199 828H439C469 828 482 846 482 871V888C482 914 469 932 439 932H199C169 932 155 914 155 888V871C155 846 169 828 199 828Z" glyph-name="Emacron" horiz-adv-x="625" unicode="&#274;" /><glyph d="M68 47C68 20 82 0 115 0H196C229 0 243 20 243 47V448L527 43V39C527 -19 490 -58 435 -58H410C385 -58 369 -77 369 -104V-146C369 -173 383 -192 415 -192H463C616 -192 702 -106 702 47V703C702 730 688 750 655 750H573C541 750 527 730 527 703V302L233 719C220 739 204 750 175 750H115C82 750 68 730 68 703Z" glyph-name="Eng" horiz-adv-x="771" unicode="&#330;" /><glyph d="M68 203C68 73 134 0 262 0H520C553 0 566 20 566 47V89C566 116 553 135 520 135H329C267 135 243 157 243 226V317H479C511 317 524 337 524 364V406C524 434 511 453 479 453H243V615H515C547 615 562 634 562 661V703C562 730 547 750 515 750H115C82 750 68 730 68 703ZM355 -106C355 -165 406 -188 464 -188H542C561 -188 571 -177 571 -159V-146C571 -128 561 -117 542 -117H506C475 -117 452 -113 452 -89C452 -68 479 -52 499 -43V-31H417C382 -47 355 -75 355 -106Z" glyph-name="Eogonek" horiz-adv-x="625" unicode="&#280;" /><glyph d="M68 47C68 20 82 0 115 0H350C592 0 699 138 699 333V433C699 627 581 750 344 750H115C82 750 68 730 68 703V428H50C20 428 6 408 6 382V374C6 348 20 327 50 327H68ZM243 135V327H279C312 327 326 347 326 374V382C326 409 312 428 279 428H243V615H324C455 615 524 556 524 423V344C524 204 462 135 329 135Z" glyph-name="Eth" horiz-adv-x="741" unicode="&#208;" /><glyph d="M57 251H109V247C109 64 245 -8 397 -8H429C468 -8 506 2 530 10C561 19 577 34 577 64V102C577 127 564 146 545 146C542 146 537 146 531 145C505 136 471 127 429 127H405C350 127 283 158 283 247V251H487C508 251 519 263 519 282V312C519 332 508 344 487 344H283V406H487C508 406 519 418 519 437V468C519 487 508 499 487 499H283V503C283 593 348 623 407 623H429C466 623 495 617 530 608C538 607 540 606 543 606C564 606 577 629 577 652V690C577 717 561 737 530 744C500 751 465 758 429 758H405C252 758 109 676 109 503V499H57C36 499 25 487 25 468V437C25 418 36 406 57 406H109V344H57C36 344 25 332 25 312V282C25 263 36 251 57 251Z" glyph-name="Euro" horiz-adv-x="625" unicode="&#8364;" /><glyph d="M57 251H109V247C109 64 245 -8 397 -8H429C468 -8 506 2 530 10C561 19 577 34 577 64V102C577 127 564 146 545 146C542 146 537 146 531 145C505 136 471 127 429 127H405C350 127 283 158 283 247V251H487C508 251 519 263 519 282V312C519 332 508 344 487 344H283V406H487C508 406 519 418 519 437V468C519 487 508 499 487 499H283V503C283 593 348 623 407 623H429C466 623 495 617 530 608C538 607 540 606 543 606C564 606 577 629 577 652V690C577 717 561 737 530 744C500 751 465 758 429 758H405C252 758 109 676 109 503V499H57C36 499 25 487 25 468V437C25 418 36 406 57 406H109V344H57C36 344 25 332 25 312V282C25 263 36 251 57 251Z" glyph-name="Euro.PPF" horiz-adv-x="606" /><glyph d="M62 292H106V254H62C44 254 33 242 33 226V212C33 194 44 184 62 184H106C106 45 231 -8 370 -8H397C436 -8 469 0 486 6C514 13 530 30 530 60V80C530 105 518 124 498 124C494 124 486 123 481 121C467 118 440 113 412 113H393C351 113 285 123 278 184H447C466 184 477 194 477 212V226C477 242 466 254 447 254H278V292H447C466 292 477 303 477 320V333C477 351 466 362 447 362H278C285 421 349 434 396 434H412C446 434 472 429 483 426C488 425 493 424 497 424C518 424 530 445 530 471V491C530 521 512 539 484 545C465 549 434 555 397 555H378C237 555 106 496 106 362H62C44 362 33 351 33 333V320C33 303 44 292 62 292Z" glyph-name="Euro.sc" horiz-adv-x="555" /><glyph d="M58 292H101V254H58C39 254 27 242 27 226V212C27 194 39 184 58 184H101C101 45 226 -8 364 -8H392C430 -8 463 0 480 6C508 13 524 30 524 60V80C524 105 512 124 493 124C488 124 481 123 476 121C461 118 435 113 407 113H387C345 113 279 123 272 184H441C460 184 472 194 472 212V226C472 242 460 254 441 254H272V292H441C460 292 472 303 472 320V333C472 351 460 362 441 362H272C279 421 343 434 390 434H406C441 434 466 429 478 426C482 425 487 424 491 424C512 424 524 445 524 471V491C524 521 506 539 479 545C459 549 428 555 392 555H372C231 555 101 496 101 362H58C39 362 27 351 27 333V320C27 303 39 292 58 292Z" glyph-name="Euro.scppf" horiz-adv-x="548" /><glyph d="M68 517V47C68 20 82 0 115 0H197C229 0 243 20 243 47V292H474C506 292 520 312 520 339V381C520 408 506 428 474 428H243V507C243 577 274 615 343 615H489C521 615 535 634 535 661V703C535 730 521 750 489 750H322C164 750 68 675 68 517Z" glyph-name="F" horiz-adv-x="572" unicode="F" /><glyph d="M42 333C42 128 170 -8 406 -8H442C525 -8 627 19 663 34V366C663 394 649 413 616 413H441C409 413 396 394 396 366V321C396 294 409 275 441 275H511V137C491 132 466 127 442 127H411C296 127 217 199 217 333V420C217 570 321 623 439 623C505 623 567 608 606 599C614 597 617 597 623 597C640 597 652 607 652 633V680C652 710 641 726 615 733C582 742 516 758 437 758C220 758 42 653 42 420Z" glyph-name="G" horiz-adv-x="726" unicode="G" /><glyph d="M42 333C42 128 170 -8 406 -8H442C525 -8 627 19 663 34V366C663 394 649 413 616 413H441C409 413 396 394 396 366V321C396 294 409 275 441 275H511V137C491 132 466 127 442 127H411C296 127 217 199 217 333V420C217 570 321 623 439 623C505 623 567 608 606 599C614 597 617 597 623 597C640 597 652 607 652 633V680C652 710 641 726 615 733C582 742 516 758 437 758C220 758 42 653 42 420ZM414 817C518 817 581 877 587 972C588 991 571 994 561 994H551C535 994 527 986 520 967C506 932 474 911 414 911C356 911 323 932 310 967C302 986 295 994 279 994H268C259 994 241 991 243 972C247 877 312 817 414 817Z" glyph-name="Gbreve" horiz-adv-x="726" unicode="&#286;" /><glyph d="M42 333C42 128 170 -8 406 -8H442C525 -8 627 19 663 34V366C663 394 649 413 616 413H441C409 413 396 394 396 366V321C396 294 409 275 441 275H511V137C491 132 466 127 442 127H411C296 127 217 199 217 333V420C217 570 321 623 439 623C505 623 567 608 606 599C614 597 617 597 623 597C640 597 652 607 652 633V680C652 710 641 726 615 733C582 742 516 758 437 758C220 758 42 653 42 420ZM371 -30C351 -30 344 -42 340 -59L318 -154C317 -161 315 -167 315 -170C315 -181 323 -188 338 -188H373C390 -188 400 -179 410 -162L457 -85C462 -76 465 -68 465 -61V-56C465 -39 456 -30 440 -30Z" glyph-name="Gcedilla" horiz-adv-x="726" /><glyph d="M42 333C42 128 170 -8 406 -8H442C525 -8 627 19 663 34V366C663 394 649 413 616 413H441C409 413 396 394 396 366V321C396 294 409 275 441 275H511V137C491 132 466 127 442 127H411C296 127 217 199 217 333V420C217 570 321 623 439 623C505 623 567 608 606 599C614 597 617 597 623 597C640 597 652 607 652 633V680C652 710 641 726 615 733C582 742 516 758 437 758C220 758 42 653 42 420ZM414 929 465 875C494 847 511 828 540 828H575C596 828 607 838 607 848C607 854 603 865 594 875L529 953C504 981 489 1000 458 1000H371C341 1000 325 981 300 953L236 875C226 865 223 854 223 848C223 835 239 828 255 828H288C318 828 336 846 364 875Z" glyph-name="Gcircumflex" horiz-adv-x="726" unicode="&#284;" /><glyph d="M42 333C42 128 170 -8 406 -8H442C525 -8 627 19 663 34V366C663 394 649 413 616 413H441C409 413 396 394 396 366V321C396 294 409 275 441 275H511V137C491 132 466 127 442 127H411C296 127 217 199 217 333V420C217 570 321 623 439 623C505 623 567 608 606 599C614 597 617 597 623 597C640 597 652 607 652 633V680C652 710 641 726 615 733C582 742 516 758 437 758C220 758 42 653 42 420ZM371 -30C351 -30 344 -42 340 -59L318 -154C317 -161 315 -167 315 -170C315 -181 323 -188 338 -188H373C390 -188 400 -179 410 -162L457 -85C462 -76 465 -68 465 -61V-56C465 -39 456 -30 440 -30Z" glyph-name="Gcommaaccent" horiz-adv-x="726" unicode="&#290;" /><glyph d="M42 333C42 128 170 -8 406 -8H442C525 -8 627 19 663 34V366C663 394 649 413 616 413H441C409 413 396 394 396 366V321C396 294 409 275 441 275H511V137C491 132 466 127 442 127H411C296 127 217 199 217 333V420C217 570 321 623 439 623C505 623 567 608 606 599C614 597 617 597 623 597C640 597 652 607 652 633V680C652 710 641 726 615 733C582 742 516 758 437 758C220 758 42 653 42 420ZM385 823H444C477 823 491 843 491 869V895C491 923 477 942 444 942H385C353 942 339 923 339 895V869C339 843 353 823 385 823Z" glyph-name="Gdotaccent" horiz-adv-x="726" unicode="&#288;" /><glyph d="M68 703V47C68 20 82 0 115 0H196C229 0 243 20 243 47V317H524V47C524 20 538 0 570 0H652C686 0 699 20 699 47V703C699 730 686 750 652 750H570C538 750 524 730 524 703V463H243V703C243 730 229 750 196 750H115C82 750 68 730 68 703Z" glyph-name="H" horiz-adv-x="768" unicode="H" /><glyph d="M68 47C68 20 82 0 115 0H196C229 0 243 20 243 47V317H524V47C524 20 538 0 570 0H652C686 0 699 20 699 47V548H718C743 548 758 567 758 595V603C758 630 743 648 718 648H699V703C699 730 686 750 652 750H570C538 750 524 730 524 703V648H243V703C243 730 229 750 196 750H115C82 750 68 730 68 703V648H51C25 648 11 630 11 603V595C11 567 26 548 52 548H68ZM243 463V548H524V463Z" glyph-name="Hbar" horiz-adv-x="768" unicode="&#294;" /><glyph d="M68 703V47C68 20 82 0 115 0H196C229 0 243 20 243 47V317H524V47C524 20 538 0 570 0H652C686 0 699 20 699 47V703C699 730 686 750 652 750H570C538 750 524 730 524 703V463H243V703C243 730 229 750 196 750H115C82 750 68 730 68 703ZM383 929 434 875C463 847 480 828 509 828H544C565 828 576 838 576 848C576 854 572 865 563 875L498 953C473 981 458 1000 427 1000H340C310 1000 294 981 269 953L205 875C195 865 192 854 192 848C192 835 208 828 224 828H257C287 828 305 846 333 875Z" glyph-name="Hcircumflex" horiz-adv-x="768" unicode="&#292;" /><glyph d="M68 703V47C68 20 82 0 115 0H196C229 0 243 20 243 47V703C243 730 229 750 196 750H115C82 750 68 730 68 703Z" glyph-name="I" horiz-adv-x="312" unicode="I" /><glyph d="M527 615V249C527 173 495 135 423 135H395C362 135 349 116 349 89V47C349 20 362 0 395 0H462C615 0 701 86 701 239V703C701 730 687 750 655 750H427C394 750 380 730 380 703V661C380 634 394 615 427 615ZM68 703V47C68 20 82 0 115 0H196C229 0 243 20 243 47V703C243 730 229 750 196 750H115C82 750 68 730 68 703Z" glyph-name="IJ" horiz-adv-x="770" unicode="&#306;" /><glyph d="M68 703V47C68 20 82 0 115 0H196C229 0 243 20 243 47V703C243 730 229 750 196 750H115C82 750 68 730 68 703ZM183 828C209 828 230 847 257 869L336 940C348 950 354 958 354 966C354 977 346 984 322 984H235C205 984 191 969 172 943L120 869C114 860 112 853 112 849C112 837 120 828 141 828Z" glyph-name="Iacute" horiz-adv-x="312" unicode="&#205;" /><glyph d="M68 703V47C68 20 82 0 115 0H196C229 0 243 20 243 47V703C243 730 229 750 196 750H115C82 750 68 730 68 703ZM156 817C260 817 323 877 329 972C330 991 313 994 303 994H293C277 994 269 986 262 967C248 932 216 911 156 911C98 911 65 932 52 967C44 986 37 994 21 994H10C1 994 -17 991 -15 972C-11 877 54 817 156 817Z" glyph-name="Ibreve" horiz-adv-x="312" unicode="&#300;" /><glyph d="M68 703V47C68 20 82 0 115 0H196C229 0 243 20 243 47V703C243 730 229 750 196 750H115C82 750 68 730 68 703ZM156 929 207 875C236 847 253 828 282 828H317C338 828 349 838 349 848C349 854 345 865 336 875L271 953C246 981 231 1000 200 1000H113C83 1000 67 981 42 953L-22 875C-32 865 -35 854 -35 848C-35 835 -19 828 -3 828H30C60 828 78 846 106 875Z" glyph-name="Icircumflex" horiz-adv-x="312" unicode="&#206;" /><glyph d="M68 703V47C68 20 82 0 115 0H196C229 0 243 20 243 47V703C243 730 229 750 196 750H115C82 750 68 730 68 703ZM267 828H309C341 828 355 848 355 875V895C355 923 341 942 309 942H267C235 942 221 923 221 895V875C221 848 235 828 267 828ZM5 828H46C79 828 93 848 93 875V895C93 923 79 942 46 942H5C-28 942 -42 923 -42 895V875C-42 848 -28 828 5 828Z" glyph-name="Idieresis" horiz-adv-x="312" unicode="&#207;" /><glyph d="M68 703V47C68 20 82 0 115 0H196C229 0 243 20 243 47V703C243 730 229 750 196 750H115C82 750 68 730 68 703ZM127 823H186C219 823 233 843 233 869V895C233 923 219 942 186 942H127C95 942 81 923 81 895V869C81 843 95 823 127 823Z" glyph-name="Idotaccent" horiz-adv-x="312" unicode="&#304;" /><glyph d="M68 703V47C68 20 82 0 115 0H196C229 0 243 20 243 47V703C243 730 229 750 196 750H115C82 750 68 730 68 703ZM-17 940 62 869C89 847 110 828 136 828H177C198 828 206 837 206 849C206 853 204 860 198 869L146 943C128 969 113 984 83 984H-4C-27 984 -35 977 -35 966C-35 958 -29 950 -17 940Z" glyph-name="Igrave" horiz-adv-x="312" unicode="&#204;" /><glyph d="M68 703V47C68 20 82 0 115 0H196C229 0 243 20 243 47V703C243 730 229 750 196 750H115C82 750 68 730 68 703ZM37 828H277C307 828 320 846 320 871V888C320 914 307 932 277 932H37C7 932 -7 914 -7 888V871C-7 846 7 828 37 828Z" glyph-name="Imacron" horiz-adv-x="312" unicode="&#298;" /><glyph d="M68 703V47C68 20 82 0 115 0H196C229 0 243 20 243 47V703C243 730 229 750 196 750H115C82 750 68 730 68 703ZM55 -106C55 -165 106 -188 164 -188H242C261 -188 271 -177 271 -159V-146C271 -128 261 -117 242 -117H206C175 -117 152 -113 152 -89C152 -68 179 -52 199 -43V-31H117C82 -47 55 -75 55 -106Z" glyph-name="Iogonek" horiz-adv-x="312" unicode="&#302;" /><glyph d="M68 703V47C68 20 82 0 115 0H196C229 0 243 20 243 47V703C243 730 229 750 196 750H115C82 750 68 730 68 703ZM85 994C32 994 -13 942 -13 904V893C-13 869 -9 857 6 857C10 857 16 861 24 867C40 884 60 896 85 896C122 896 176 828 229 828C273 828 331 872 331 922V933C331 953 326 968 313 968C305 968 298 962 290 954C278 944 258 927 229 927C192 927 139 994 85 994Z" glyph-name="Itilde" horiz-adv-x="312" unicode="&#296;" /><glyph d="M37 47C37 20 51 0 83 0H150C304 0 390 86 390 239V703C390 730 376 750 344 750H114C82 750 68 730 68 703V661C68 634 82 615 114 615H215V249C215 173 184 135 110 135H83C51 135 37 116 37 89Z" glyph-name="J" horiz-adv-x="458" unicode="J" /><glyph d="M37 47C37 20 51 0 83 0H150C304 0 390 86 390 239V703C390 730 376 750 344 750H114C82 750 68 730 68 703V661C68 634 82 615 114 615H215V249C215 173 184 135 110 135H83C51 135 37 116 37 89ZM236 929 287 875C316 847 333 828 362 828H397C418 828 429 838 429 848C429 854 425 865 416 875L351 953C326 981 311 1000 280 1000H193C163 1000 147 981 122 953L58 875C48 865 45 854 45 848C45 835 61 828 77 828H110C140 828 158 846 186 875Z" glyph-name="Jcircumflex" horiz-adv-x="458" unicode="&#308;" /><glyph d="M68 703V47C68 20 82 0 115 0H197C229 0 243 20 243 47V327H273L476 46C494 20 510 0 542 0H654C678 0 688 8 688 21C688 28 686 36 679 46L420 395L665 704C672 714 675 722 675 729C675 742 664 750 641 750H531C501 750 486 732 464 701L280 455H243V703C243 730 229 750 197 750H115C82 750 68 730 68 703Z" glyph-name="K" horiz-adv-x="711" unicode="K" /><glyph d="M68 703V47C68 20 82 0 115 0H197C229 0 243 20 243 47V327H273L476 46C494 20 510 0 542 0H654C678 0 688 8 688 21C688 28 686 36 679 46L420 395L665 704C672 714 675 722 675 729C675 742 664 750 641 750H531C501 750 486 732 464 701L280 455H243V703C243 730 229 750 197 750H115C82 750 68 730 68 703ZM322 -30C302 -30 295 -42 291 -59L269 -154C268 -161 266 -167 266 -170C266 -181 274 -188 289 -188H324C341 -188 351 -179 361 -162L408 -85C413 -76 416 -68 416 -61V-56C416 -39 407 -30 391 -30Z" glyph-name="Kcedilla" horiz-adv-x="711" /><glyph d="M68 703V47C68 20 82 0 115 0H197C229 0 243 20 243 47V327H273L476 46C494 20 510 0 542 0H654C678 0 688 8 688 21C688 28 686 36 679 46L420 395L665 704C672 714 675 722 675 729C675 742 664 750 641 750H531C501 750 486 732 464 701L280 455H243V703C243 730 229 750 197 750H115C82 750 68 730 68 703ZM322 -30C302 -30 295 -42 291 -59L269 -154C268 -161 266 -167 266 -170C266 -181 274 -188 289 -188H324C341 -188 351 -179 361 -162L408 -85C413 -76 416 -68 416 -61V-56C416 -39 407 -30 391 -30Z" glyph-name="Kcommaaccent" horiz-adv-x="711" unicode="&#310;" /><glyph d="M68 203C68 75 134 0 262 0H474C507 0 521 20 521 47V89C521 116 507 135 474 135H329C267 135 243 157 243 226V703C243 730 229 750 197 750H115C82 750 68 730 68 703Z" glyph-name="L" horiz-adv-x="544" unicode="L" /><glyph d="M68 203C68 75 134 0 262 0H474C507 0 521 20 521 47V89C521 116 507 135 474 135H329C267 135 243 157 243 226V703C243 730 229 750 197 750H115C82 750 68 730 68 703ZM148 828C174 828 195 847 222 869L301 940C313 950 319 958 319 966C319 977 311 984 287 984H200C170 984 156 969 137 943L85 869C79 860 77 853 77 849C77 837 85 828 106 828Z" glyph-name="Lacute" horiz-adv-x="544" unicode="&#313;" /><glyph d="M68 203C68 75 134 0 262 0H474C507 0 521 20 521 47V89C521 116 507 135 474 135H329C267 135 243 157 243 226V703C243 730 229 750 197 750H115C82 750 68 730 68 703ZM356 723 335 627C334 619 332 613 332 610C332 600 340 593 354 593H392C408 593 418 602 429 619L475 695C480 705 483 712 483 720V725C483 741 475 750 458 750H389C368 750 360 739 356 723Z" glyph-name="Lcaron" horiz-adv-x="544" unicode="&#317;" /><glyph d="M68 203C68 75 134 0 262 0H474C507 0 521 20 521 47V89C521 116 507 135 474 135H329C267 135 243 157 243 226V703C243 730 229 750 197 750H115C82 750 68 730 68 703ZM264 -30C244 -30 237 -42 233 -59L211 -154C210 -161 208 -167 208 -170C208 -181 216 -188 231 -188H266C283 -188 293 -179 303 -162L350 -85C355 -76 358 -68 358 -61V-56C358 -39 349 -30 333 -30Z" glyph-name="Lcedilla" horiz-adv-x="544" /><glyph d="M68 203C68 75 134 0 262 0H474C507 0 521 20 521 47V89C521 116 507 135 474 135H329C267 135 243 157 243 226V703C243 730 229 750 197 750H115C82 750 68 730 68 703ZM264 -30C244 -30 237 -42 233 -59L211 -154C210 -161 208 -167 208 -170C208 -181 216 -188 231 -188H266C283 -188 293 -179 303 -162L350 -85C355 -76 358 -68 358 -61V-56C358 -39 349 -30 333 -30Z" glyph-name="Lcommaaccent" horiz-adv-x="544" unicode="&#315;" /><glyph d="M68 203C68 75 134 0 262 0H474C507 0 521 20 521 47V89C521 116 507 135 474 135H329C267 135 243 157 243 226V703C243 730 229 750 197 750H115C82 750 68 730 68 703ZM379 370H407C440 370 453 389 453 416V437C453 465 440 483 407 483H379C346 483 332 465 332 437V416C332 389 346 370 379 370Z" glyph-name="Ldot" horiz-adv-x="544" unicode="&#319;" /><glyph d="M27 290C36 290 44 295 56 300L68 305V203C68 75 134 0 262 0H474C507 0 521 20 521 47V89C521 116 507 135 474 135H329C267 135 243 157 243 226V383L363 436C395 449 416 468 416 497V519C416 538 408 554 392 554C385 554 378 551 368 546L243 491V703C243 730 229 750 197 750H115C82 750 68 730 68 703V413L56 408C26 396 3 379 3 347V325C3 306 11 290 27 290Z" glyph-name="Lslash" horiz-adv-x="544" unicode="&#321;" /><glyph d="M68 703V47C68 20 82 0 115 0H197C229 0 243 20 243 47V473L393 252C401 238 410 233 422 233H438C451 233 459 239 467 249L631 476V47C631 20 645 0 678 0H759C792 0 806 20 806 47V703C806 730 792 750 759 750H684C654 750 639 739 626 719L435 437L247 719C235 739 220 750 190 750H115C82 750 68 730 68 703Z" glyph-name="M" horiz-adv-x="874" unicode="M" /><glyph d="M68 47C68 20 82 0 115 0H197C229 0 243 20 243 47V448L537 31C552 11 566 0 596 0H655C688 0 702 20 702 47V703C702 730 688 750 655 750H574C541 750 527 730 527 703V302L233 719C220 739 204 750 175 750H115C82 750 68 730 68 703Z" glyph-name="N" horiz-adv-x="771" unicode="N" /><glyph d="M68 47C68 20 82 0 115 0H197C229 0 243 20 243 47V448L537 31C552 11 566 0 596 0H655C688 0 702 20 702 47V703C702 730 688 750 655 750H574C541 750 527 730 527 703V302L233 719C220 739 204 750 175 750H115C82 750 68 730 68 703ZM372 828C398 828 419 847 446 869L525 940C537 950 543 958 543 966C543 977 535 984 511 984H424C394 984 380 969 361 943L309 869C303 860 301 853 301 849C301 837 309 828 330 828Z" glyph-name="Nacute" horiz-adv-x="771" unicode="&#323;" /><glyph d="M68 47C68 20 82 0 115 0H197C229 0 243 20 243 47V448L537 31C552 11 566 0 596 0H655C688 0 702 20 702 47V703C702 730 688 750 655 750H574C541 750 527 730 527 703V302L233 719C220 739 204 750 175 750H115C82 750 68 730 68 703ZM384 898 334 953C306 982 288 1000 258 1000H225C209 1000 193 993 193 979C193 973 196 963 206 953L270 875C295 846 311 828 341 828H428C459 828 474 846 499 875L564 953C573 963 577 973 577 979C577 990 566 1000 545 1000H510C481 1000 464 981 435 953Z" glyph-name="Ncaron" horiz-adv-x="771" unicode="&#327;" /><glyph d="M68 47C68 20 82 0 115 0H197C229 0 243 20 243 47V448L537 31C552 11 566 0 596 0H655C688 0 702 20 702 47V703C702 730 688 750 655 750H574C541 750 527 730 527 703V302L233 719C220 739 204 750 175 750H115C82 750 68 730 68 703ZM351 -30C331 -30 324 -42 320 -59L298 -154C297 -161 295 -167 295 -170C295 -181 303 -188 318 -188H353C370 -188 380 -179 390 -162L437 -85C442 -76 445 -68 445 -61V-56C445 -39 436 -30 420 -30Z" glyph-name="Ncedilla" horiz-adv-x="771" /><glyph d="M68 47C68 20 82 0 115 0H197C229 0 243 20 243 47V448L537 31C552 11 566 0 596 0H655C688 0 702 20 702 47V703C702 730 688 750 655 750H574C541 750 527 730 527 703V302L233 719C220 739 204 750 175 750H115C82 750 68 730 68 703ZM351 -30C331 -30 324 -42 320 -59L298 -154C297 -161 295 -167 295 -170C295 -181 303 -188 318 -188H353C370 -188 380 -179 390 -162L437 -85C442 -76 445 -68 445 -61V-56C445 -39 436 -30 420 -30Z" glyph-name="Ncommaaccent" horiz-adv-x="771" unicode="&#325;" /><glyph d="M68 47C68 20 82 0 115 0H197C229 0 243 20 243 47V448L537 31C552 11 566 0 596 0H655C688 0 702 20 702 47V703C702 730 688 750 655 750H574C541 750 527 730 527 703V302L233 719C220 739 204 750 175 750H115C82 750 68 730 68 703ZM313 994C260 994 215 942 215 904V893C215 869 219 857 234 857C238 857 244 861 252 867C268 884 288 896 313 896C350 896 404 828 457 828C501 828 559 872 559 922V933C559 953 554 968 541 968C533 968 526 962 518 954C506 944 486 927 457 927C420 927 367 994 313 994Z" glyph-name="Ntilde" horiz-adv-x="771" unicode="&#209;" /><glyph d="M380 133C256 133 217 209 217 349V401C217 541 256 617 380 617C504 617 543 541 543 401V349C543 209 504 133 380 133ZM380 -8C601 -8 718 122 718 349V401C718 630 601 758 380 758C159 758 42 628 42 401V349C42 120 159 -8 380 -8Z" glyph-name="O" horiz-adv-x="760" unicode="O" /><glyph d="M380 0H944C977 0 990 20 990 47V89C990 116 977 135 944 135H667V317H902C936 317 949 337 949 364V406C949 434 936 453 902 453H667V615H938C972 615 985 634 985 661V703C985 730 972 750 938 750H380C159 750 42 625 42 398V352C42 122 159 0 380 0ZM380 135C256 135 217 212 217 352V398C217 538 261 615 383 615H492V135Z" glyph-name="OE" horiz-adv-x="1049" unicode="&#338;" /><glyph d="M380 133C256 133 217 209 217 349V401C217 541 256 617 380 617C504 617 543 541 543 401V349C543 209 504 133 380 133ZM380 -8C601 -8 718 122 718 349V401C718 630 601 758 380 758C159 758 42 628 42 401V349C42 120 159 -8 380 -8ZM367 828C393 828 414 847 441 869L520 940C532 950 538 958 538 966C538 977 530 984 506 984H419C389 984 375 969 356 943L304 869C298 860 296 853 296 849C296 837 304 828 325 828Z" glyph-name="Oacute" horiz-adv-x="760" unicode="&#211;" /><glyph d="M380 133C256 133 217 209 217 349V401C217 541 256 617 380 617C504 617 543 541 543 401V349C543 209 504 133 380 133ZM380 -8C601 -8 718 122 718 349V401C718 630 601 758 380 758C159 758 42 628 42 401V349C42 120 159 -8 380 -8ZM379 817C483 817 546 877 552 972C553 991 536 994 526 994H516C500 994 492 986 485 967C471 932 439 911 379 911C321 911 288 932 275 967C267 986 260 994 244 994H233C224 994 206 991 208 972C212 877 277 817 379 817Z" glyph-name="Obreve" horiz-adv-x="760" unicode="&#334;" /><glyph d="M380 133C256 133 217 209 217 349V401C217 541 256 617 380 617C504 617 543 541 543 401V349C543 209 504 133 380 133ZM380 -8C601 -8 718 122 718 349V401C718 630 601 758 380 758C159 758 42 628 42 401V349C42 120 159 -8 380 -8ZM379 929 430 875C459 847 476 828 505 828H540C561 828 572 838 572 848C572 854 568 865 559 875L494 953C469 981 454 1000 423 1000H336C306 1000 290 981 265 953L201 875C191 865 188 854 188 848C188 835 204 828 220 828H253C283 828 301 846 329 875Z" glyph-name="Ocircumflex" horiz-adv-x="760" unicode="&#212;" /><glyph d="M380 133C256 133 217 209 217 349V401C217 541 256 617 380 617C504 617 543 541 543 401V349C543 209 504 133 380 133ZM380 -8C601 -8 718 122 718 349V401C718 630 601 758 380 758C159 758 42 628 42 401V349C42 120 159 -8 380 -8ZM490 828H532C564 828 578 848 578 875V895C578 923 564 942 532 942H490C458 942 444 923 444 895V875C444 848 458 828 490 828ZM228 828H269C302 828 316 848 316 875V895C316 923 302 942 269 942H228C195 942 181 923 181 895V875C181 848 195 828 228 828Z" glyph-name="Odieresis" horiz-adv-x="760" unicode="&#214;" /><glyph d="M380 133C256 133 217 209 217 349V401C217 541 256 617 380 617C504 617 543 541 543 401V349C543 209 504 133 380 133ZM380 -8C601 -8 718 122 718 349V401C718 630 601 758 380 758C159 758 42 628 42 401V349C42 120 159 -8 380 -8ZM241 940 320 869C347 847 368 828 394 828H435C456 828 464 837 464 849C464 853 462 860 456 869L404 943C386 969 371 984 341 984H254C231 984 223 977 223 966C223 958 229 950 241 940Z" glyph-name="Ograve" horiz-adv-x="760" unicode="&#210;" /><glyph d="M380 133C256 133 217 209 217 349V401C217 541 256 617 380 617C504 617 543 541 543 401V349C543 209 504 133 380 133ZM380 -8C601 -8 718 122 718 349V401C718 630 601 758 380 758C159 758 42 628 42 401V349C42 120 159 -8 380 -8ZM496 828C523 828 543 848 570 869L652 940C665 951 669 958 669 966C669 977 662 984 638 984H569C539 984 530 973 508 948L447 869C440 861 438 853 438 849C438 837 447 828 467 828ZM281 828C308 828 328 848 355 869L437 940C450 951 455 958 455 966C455 977 447 984 423 984H354C325 984 315 973 293 948L232 869C225 861 223 853 223 849C223 837 232 828 252 828Z" glyph-name="Ohungarumlaut" horiz-adv-x="760" unicode="&#336;" /><glyph d="M380 133C256 133 217 209 217 349V401C217 541 256 617 380 617C504 617 543 541 543 401V349C543 209 504 133 380 133ZM380 -8C601 -8 718 122 718 349V401C718 630 601 758 380 758C159 758 42 628 42 401V349C42 120 159 -8 380 -8ZM260 828H500C530 828 543 846 543 871V888C543 914 530 932 500 932H260C230 932 216 914 216 888V871C216 846 230 828 260 828Z" glyph-name="Omacron" horiz-adv-x="760" unicode="&#332;" /><glyph d="M39 47C39 20 53 0 86 0H281C312 0 327 20 327 47V70C327 90 321 99 306 115C246 184 212 275 212 393C212 550 270 636 383 636C495 636 553 550 553 393C553 275 519 184 459 115C443 99 437 90 437 70V47C437 20 452 0 484 0H679C712 0 726 20 726 47V66C726 93 712 112 679 112H604C670 176 728 272 728 393C728 642 573 758 383 758C191 758 37 642 37 393C37 272 95 176 162 112H86C53 112 39 93 39 66Z" glyph-name="Omega" horiz-adv-x="765" unicode="&#8486;" /><glyph d="M380 -8C601 -8 718 122 718 349V401C718 509 691 594 640 655L688 715C694 723 699 729 699 737C699 747 691 750 680 750H656C638 750 630 740 616 724L595 698C541 737 469 758 380 758C159 758 42 628 42 401V349C42 240 68 155 119 94L76 39C67 28 62 21 62 14C62 4 70 0 82 0H102C118 0 128 11 142 26L163 53C218 13 290 -8 380 -8ZM380 133C325 133 287 148 261 176L529 515C539 484 543 445 543 401V349C543 209 504 133 380 133ZM217 349V401C217 541 256 617 380 617C434 617 472 602 498 574L230 235C221 266 217 304 217 349Z" glyph-name="Oslash" horiz-adv-x="760" unicode="&#216;" /><glyph d="M380 -8C601 -8 718 122 718 349V401C718 509 691 594 640 655L688 715C694 723 699 729 699 737C699 747 691 750 680 750H656C638 750 630 740 616 724L595 698C541 737 469 758 380 758C159 758 42 628 42 401V349C42 240 68 155 119 94L76 39C67 28 62 21 62 14C62 4 70 0 82 0H102C118 0 128 11 142 26L163 53C218 13 290 -8 380 -8ZM380 133C325 133 287 148 261 176L529 515C539 484 543 445 543 401V349C543 209 504 133 380 133ZM217 349V401C217 541 256 617 380 617C434 617 472 602 498 574L230 235C221 266 217 304 217 349ZM367 828C393 828 414 847 441 869L520 940C532 950 538 958 538 966C538 977 530 984 506 984H419C389 984 375 969 356 943L304 869C298 860 296 853 296 849C296 837 304 828 325 828Z" glyph-name="Oslashacute" horiz-adv-x="760" unicode="&#510;" /><glyph d="M380 133C256 133 217 209 217 349V401C217 541 256 617 380 617C504 617 543 541 543 401V349C543 209 504 133 380 133ZM380 -8C601 -8 718 122 718 349V401C718 630 601 758 380 758C159 758 42 628 42 401V349C42 120 159 -8 380 -8ZM308 994C255 994 210 942 210 904V893C210 869 214 857 229 857C233 857 239 861 247 867C263 884 283 896 308 896C345 896 399 828 452 828C496 828 554 872 554 922V933C554 953 549 968 536 968C528 968 521 962 513 954C501 944 481 927 452 927C415 927 362 994 308 994Z" glyph-name="Otilde" horiz-adv-x="760" unicode="&#213;" /><glyph d="M68 47C68 20 82 0 115 0H196C229 0 243 20 243 47V210H351C530 210 628 313 628 490C628 667 543 750 366 750H115C82 750 68 730 68 703ZM243 345V615H328C420 615 453 582 453 490C453 396 428 345 325 345Z" glyph-name="P" horiz-adv-x="665" unicode="P" /><glyph d="M493 -188C536 -188 559 -182 577 -178C608 -171 617 -149 617 -125V-115C617 -90 604 -77 585 -77C581 -77 575 -78 569 -79C552 -84 522 -88 499 -88C448 -88 430 -73 430 -25V-5C618 13 718 140 718 349V401C718 630 601 758 380 758C159 758 42 628 42 401V349C42 137 141 12 331 -6V-46C331 -139 394 -188 493 -188ZM380 133C256 133 217 209 217 349V401C217 540 256 617 380 617C504 617 543 541 543 401V349C543 209 504 133 380 133Z" glyph-name="Q" horiz-adv-x="760" unicode="Q" /><glyph d="M68 46C68 20 82 0 114 0H197C229 0 243 20 243 46V241H356C416 195 465 106 493 46C506 19 519 0 551 0H635C662 0 676 13 676 29C676 32 676 38 672 46C640 128 586 228 517 288C599 336 639 395 639 503C639 677 540 750 366 750H114C82 750 68 730 68 704ZM243 371V615H344C430 615 464 588 464 498C464 412 432 371 338 371Z" glyph-name="R" horiz-adv-x="704" unicode="R" /><glyph d="M68 46C68 20 82 0 114 0H197C229 0 243 20 243 46V241H356C416 195 465 106 493 46C506 19 519 0 551 0H635C662 0 676 13 676 29C676 32 676 38 672 46C640 128 586 228 517 288C599 336 639 395 639 503C639 677 540 750 366 750H114C82 750 68 730 68 704ZM243 371V615H344C430 615 464 588 464 498C464 412 432 371 338 371ZM313 828C339 828 360 847 387 869L466 940C478 950 484 958 484 966C484 977 476 984 452 984H365C335 984 321 969 302 943L250 869C244 860 242 853 242 849C242 837 250 828 271 828Z" glyph-name="Racute" horiz-adv-x="704" unicode="&#340;" /><glyph d="M68 46C68 20 82 0 114 0H197C229 0 243 20 243 46V241H356C416 195 465 106 493 46C506 19 519 0 551 0H635C662 0 676 13 676 29C676 32 676 38 672 46C640 128 586 228 517 288C599 336 639 395 639 503C639 677 540 750 366 750H114C82 750 68 730 68 704ZM243 371V615H344C430 615 464 588 464 498C464 412 432 371 338 371ZM325 898 275 953C247 982 229 1000 199 1000H166C150 1000 134 993 134 979C134 973 137 963 147 953L211 875C236 846 252 828 282 828H369C400 828 415 846 440 875L505 953C514 963 518 973 518 979C518 990 507 1000 486 1000H451C422 1000 405 981 376 953Z" glyph-name="Rcaron" horiz-adv-x="704" unicode="&#344;" /><glyph d="M68 46C68 20 82 0 114 0H197C229 0 243 20 243 46V241H356C416 195 465 106 493 46C506 19 519 0 551 0H635C662 0 676 13 676 29C676 32 676 38 672 46C640 128 586 228 517 288C599 336 639 395 639 503C639 677 540 750 366 750H114C82 750 68 730 68 704ZM243 371V615H344C430 615 464 588 464 498C464 412 432 371 338 371ZM328 -30C308 -30 301 -42 297 -59L275 -154C274 -161 272 -167 272 -170C272 -181 280 -188 295 -188H330C347 -188 357 -179 367 -162L414 -85C419 -76 422 -68 422 -61V-56C422 -39 413 -30 397 -30Z" glyph-name="Rcedilla" horiz-adv-x="704" /><glyph d="M68 46C68 20 82 0 114 0H197C229 0 243 20 243 46V241H356C416 195 465 106 493 46C506 19 519 0 551 0H635C662 0 676 13 676 29C676 32 676 38 672 46C640 128 586 228 517 288C599 336 639 395 639 503C639 677 540 750 366 750H114C82 750 68 730 68 704ZM243 371V615H344C430 615 464 588 464 498C464 412 432 371 338 371ZM328 -30C308 -30 301 -42 297 -59L275 -154C274 -161 272 -167 272 -170C272 -181 280 -188 295 -188H330C347 -188 357 -179 367 -162L414 -85C419 -76 422 -68 422 -61V-56C422 -39 413 -30 397 -30Z" glyph-name="Rcommaaccent" horiz-adv-x="704" unicode="&#342;" /><glyph d="M54 63C54 37 64 21 93 14C125 6 202 -8 259 -8H295C457 -8 581 65 581 226C581 354 508 406 410 436L310 466C270 478 230 493 230 545C230 604 280 623 342 623H362C406 623 472 613 502 606C508 605 510 604 514 604C533 604 547 624 547 651V689C547 719 533 734 507 739C476 747 412 758 357 758H339C187 758 57 689 57 537C57 414 137 356 215 333L316 303C373 287 406 271 406 216C406 147 353 127 285 127H259C203 127 136 140 99 148C95 149 91 150 87 150C65 150 54 130 54 104Z" glyph-name="S" horiz-adv-x="624" unicode="S" /><glyph d="M54 63C54 37 64 21 93 14C125 6 202 -8 259 -8H295C457 -8 581 65 581 226C581 354 508 406 410 436L310 466C270 478 230 493 230 545C230 604 280 623 342 623H362C406 623 472 613 502 606C508 605 510 604 514 604C533 604 547 624 547 651V689C547 719 533 734 507 739C476 747 412 758 357 758H339C187 758 57 689 57 537C57 414 137 356 215 333L316 303C373 287 406 271 406 216C406 147 353 127 285 127H259C203 127 136 140 99 148C95 149 91 150 87 150C65 150 54 130 54 104ZM310 828C336 828 357 847 384 869L463 940C475 950 481 958 481 966C481 977 473 984 449 984H362C332 984 318 969 299 943L247 869C241 860 239 853 239 849C239 837 247 828 268 828Z" glyph-name="Sacute" horiz-adv-x="624" unicode="&#346;" /><glyph d="M54 63C54 37 64 21 93 14C125 6 202 -8 259 -8H295C457 -8 581 65 581 226C581 354 508 406 410 436L310 466C270 478 230 493 230 545C230 604 280 623 342 623H362C406 623 472 613 502 606C508 605 510 604 514 604C533 604 547 624 547 651V689C547 719 533 734 507 739C476 747 412 758 357 758H339C187 758 57 689 57 537C57 414 137 356 215 333L316 303C373 287 406 271 406 216C406 147 353 127 285 127H259C203 127 136 140 99 148C95 149 91 150 87 150C65 150 54 130 54 104ZM322 898 272 953C244 982 226 1000 196 1000H163C147 1000 131 993 131 979C131 973 134 963 144 953L208 875C233 846 249 828 279 828H366C397 828 412 846 437 875L502 953C511 963 515 973 515 979C515 990 504 1000 483 1000H448C419 1000 402 981 373 953Z" glyph-name="Scaron" horiz-adv-x="624" unicode="&#352;" /><glyph d="M54 63C54 37 64 21 93 14C125 6 202 -8 259 -8H295C457 -8 581 65 581 226C581 354 508 406 410 436L310 466C270 478 230 493 230 545C230 604 280 623 342 623H362C406 623 472 613 502 606C508 605 510 604 514 604C533 604 547 624 547 651V689C547 719 533 734 507 739C476 747 412 758 357 758H339C187 758 57 689 57 537C57 414 137 356 215 333L316 303C373 287 406 271 406 216C406 147 353 127 285 127H259C203 127 136 140 99 148C95 149 91 150 87 150C65 150 54 130 54 104ZM170 -146V-159C170 -177 180 -188 198 -188H277C335 -188 386 -165 386 -106C386 -75 359 -47 323 -31H241V-43C262 -52 289 -68 289 -89C289 -113 266 -117 235 -117H198C180 -117 170 -128 170 -146Z" glyph-name="Scedilla" horiz-adv-x="624" unicode="&#350;" /><glyph d="M54 63C54 37 64 21 93 14C125 6 202 -8 259 -8H295C457 -8 581 65 581 226C581 354 508 406 410 436L310 466C270 478 230 493 230 545C230 604 280 623 342 623H362C406 623 472 613 502 606C508 605 510 604 514 604C533 604 547 624 547 651V689C547 719 533 734 507 739C476 747 412 758 357 758H339C187 758 57 689 57 537C57 414 137 356 215 333L316 303C373 287 406 271 406 216C406 147 353 127 285 127H259C203 127 136 140 99 148C95 149 91 150 87 150C65 150 54 130 54 104ZM322 929 373 875C402 847 419 828 448 828H483C504 828 515 838 515 848C515 854 511 865 502 875L437 953C412 981 397 1000 366 1000H279C249 1000 233 981 208 953L144 875C134 865 131 854 131 848C131 835 147 828 163 828H196C226 828 244 846 272 875Z" glyph-name="Scircumflex" horiz-adv-x="624" unicode="&#348;" /><glyph d="M54 63C54 37 64 21 93 14C125 6 202 -8 259 -8H295C457 -8 581 65 581 226C581 354 508 406 410 436L310 466C270 478 230 493 230 545C230 604 280 623 342 623H362C406 623 472 613 502 606C508 605 510 604 514 604C533 604 547 624 547 651V689C547 719 533 734 507 739C476 747 412 758 357 758H339C187 758 57 689 57 537C57 414 137 356 215 333L316 303C373 287 406 271 406 216C406 147 353 127 285 127H259C203 127 136 140 99 148C95 149 91 150 87 150C65 150 54 130 54 104ZM249 -30C229 -30 222 -42 218 -59L196 -154C195 -161 193 -167 193 -170C193 -181 201 -188 216 -188H251C268 -188 278 -179 288 -162L335 -85C340 -76 343 -68 343 -61V-56C343 -39 334 -30 318 -30Z" glyph-name="Scommaaccent" horiz-adv-x="624" unicode="&#536;" /><glyph d="M237 47C237 20 251 0 284 0H366C399 0 413 20 413 47V615H580C613 615 626 634 626 661V703C626 730 613 750 580 750H70C37 750 23 730 23 703V661C23 634 37 615 70 615H237Z" glyph-name="T" horiz-adv-x="649" unicode="T" /><glyph d="M237 290V47C237 20 251 0 284 0H366C398 0 412 20 412 47V290H511C544 290 558 310 558 336V344C558 371 544 391 511 391H412V615H580C613 615 626 634 626 661V703C626 730 613 750 580 750H70C37 750 23 730 23 703V661C23 634 37 615 70 615H237V391H139C105 391 93 371 93 344V336C93 310 105 290 139 290Z" glyph-name="Tbar" horiz-adv-x="649" unicode="&#358;" /><glyph d="M237 47C237 20 251 0 284 0H366C399 0 413 20 413 47V615H580C613 615 626 634 626 661V703C626 730 613 750 580 750H70C37 750 23 730 23 703V661C23 634 37 615 70 615H237ZM325 898 275 953C247 982 229 1000 199 1000H166C150 1000 134 993 134 979C134 973 137 963 147 953L211 875C236 846 252 828 282 828H369C400 828 415 846 440 875L505 953C514 963 518 973 518 979C518 990 507 1000 486 1000H451C422 1000 405 981 376 953Z" glyph-name="Tcaron" horiz-adv-x="649" unicode="&#356;" /><glyph d="M237 47C237 20 251 0 284 0H366C399 0 413 20 413 47V615H580C613 615 626 634 626 661V703C626 730 613 750 580 750H70C37 750 23 730 23 703V661C23 634 37 615 70 615H237ZM292 -30C272 -30 265 -42 261 -59L239 -154C238 -161 236 -167 236 -170C236 -181 244 -188 259 -188H294C311 -188 321 -179 331 -162L378 -85C383 -76 386 -68 386 -61V-56C386 -39 377 -30 361 -30Z" glyph-name="Tcommaaccent" horiz-adv-x="649" unicode="&#354;" /><glyph d="M68 47C68 20 82 0 115 0H196C229 0 243 20 243 47V107H351C530 107 628 212 628 388C628 564 543 648 366 648H243V703C243 730 229 750 196 750H115C82 750 68 730 68 703ZM328 513C420 513 453 480 453 388C453 294 428 242 325 242H243V513Z" glyph-name="Thorn" horiz-adv-x="665" unicode="&#222;" /><glyph d="M61 703V268C61 81 181 -8 375 -8C562 -8 688 86 688 268V703C688 730 675 750 642 750H561C527 750 514 730 514 703V280C514 178 461 133 375 133C289 133 235 178 235 280V703C235 730 222 750 188 750H107C74 750 61 730 61 703Z" glyph-name="U" horiz-adv-x="749" unicode="U" /><glyph d="M61 703V268C61 81 181 -8 375 -8C562 -8 688 86 688 268V703C688 730 675 750 642 750H561C527 750 514 730 514 703V280C514 178 461 133 375 133C289 133 235 178 235 280V703C235 730 222 750 188 750H107C74 750 61 730 61 703ZM363 828C389 828 410 847 437 869L516 940C528 950 534 958 534 966C534 977 526 984 502 984H415C385 984 371 969 352 943L300 869C294 860 292 853 292 849C292 837 300 828 321 828Z" glyph-name="Uacute" horiz-adv-x="749" unicode="&#218;" /><glyph d="M61 703V268C61 81 181 -8 375 -8C562 -8 688 86 688 268V703C688 730 675 750 642 750H561C527 750 514 730 514 703V280C514 178 461 133 375 133C289 133 235 178 235 280V703C235 730 222 750 188 750H107C74 750 61 730 61 703ZM375 817C479 817 542 877 548 972C549 991 532 994 522 994H512C496 994 488 986 481 967C467 932 435 911 375 911C317 911 284 932 271 967C263 986 256 994 240 994H229C220 994 202 991 204 972C208 877 273 817 375 817Z" glyph-name="Ubreve" horiz-adv-x="749" unicode="&#364;" /><glyph d="M61 703V268C61 81 181 -8 375 -8C562 -8 688 86 688 268V703C688 730 675 750 642 750H561C527 750 514 730 514 703V280C514 178 461 133 375 133C289 133 235 178 235 280V703C235 730 222 750 188 750H107C74 750 61 730 61 703ZM375 929 426 875C455 847 472 828 501 828H536C557 828 568 838 568 848C568 854 564 865 555 875L490 953C465 981 450 1000 419 1000H332C302 1000 286 981 261 953L197 875C187 865 184 854 184 848C184 835 200 828 216 828H249C279 828 297 846 325 875Z" glyph-name="Ucircumflex" horiz-adv-x="749" unicode="&#219;" /><glyph d="M61 703V268C61 81 181 -8 375 -8C562 -8 688 86 688 268V703C688 730 675 750 642 750H561C527 750 514 730 514 703V280C514 178 461 133 375 133C289 133 235 178 235 280V703C235 730 222 750 188 750H107C74 750 61 730 61 703ZM486 828H528C560 828 574 848 574 875V895C574 923 560 942 528 942H486C454 942 440 923 440 895V875C440 848 454 828 486 828ZM224 828H265C298 828 312 848 312 875V895C312 923 298 942 265 942H224C191 942 177 923 177 895V875C177 848 191 828 224 828Z" glyph-name="Udieresis" horiz-adv-x="749" unicode="&#220;" /><glyph d="M61 703V268C61 81 181 -8 375 -8C562 -8 688 86 688 268V703C688 730 675 750 642 750H561C527 750 514 730 514 703V280C514 178 461 133 375 133C289 133 235 178 235 280V703C235 730 222 750 188 750H107C74 750 61 730 61 703ZM237 940 316 869C343 847 364 828 390 828H431C452 828 460 837 460 849C460 853 458 860 452 869L400 943C382 969 367 984 337 984H250C227 984 219 977 219 966C219 958 225 950 237 940Z" glyph-name="Ugrave" horiz-adv-x="749" unicode="&#217;" /><glyph d="M61 703V268C61 81 181 -8 375 -8C562 -8 688 86 688 268V703C688 730 675 750 642 750H561C527 750 514 730 514 703V280C514 178 461 133 375 133C289 133 235 178 235 280V703C235 730 222 750 188 750H107C74 750 61 730 61 703ZM492 828C519 828 539 848 566 869L648 940C661 951 665 958 665 966C665 977 658 984 634 984H565C535 984 526 973 504 948L443 869C436 861 434 853 434 849C434 837 443 828 463 828ZM277 828C304 828 324 848 351 869L433 940C446 951 451 958 451 966C451 977 443 984 419 984H350C321 984 311 973 289 948L228 869C221 861 219 853 219 849C219 837 228 828 248 828Z" glyph-name="Uhungarumlaut" horiz-adv-x="749" unicode="&#368;" /><glyph d="M61 703V268C61 81 181 -8 375 -8C562 -8 688 86 688 268V703C688 730 675 750 642 750H561C527 750 514 730 514 703V280C514 178 461 133 375 133C289 133 235 178 235 280V703C235 730 222 750 188 750H107C74 750 61 730 61 703ZM256 828H496C526 828 539 846 539 871V888C539 914 526 932 496 932H256C226 932 212 914 212 888V871C212 846 226 828 256 828Z" glyph-name="Umacron" horiz-adv-x="749" unicode="&#362;" /><glyph d="M61 703V268C61 81 181 -8 375 -8C562 -8 688 86 688 268V703C688 730 675 750 642 750H561C527 750 514 730 514 703V280C514 178 461 133 375 133C289 133 235 178 235 280V703C235 730 222 750 188 750H107C74 750 61 730 61 703ZM274 -106C274 -165 325 -188 383 -188H461C480 -188 490 -177 490 -159V-146C490 -128 480 -117 461 -117H425C394 -117 371 -113 371 -89C371 -68 398 -52 418 -43V-31H336C301 -47 274 -75 274 -106Z" glyph-name="Uogonek" horiz-adv-x="749" unicode="&#370;" /><glyph d="M61 703V268C61 81 181 -8 375 -8C562 -8 688 86 688 268V703C688 730 675 750 642 750H561C527 750 514 730 514 703V280C514 178 461 133 375 133C289 133 235 178 235 280V703C235 730 222 750 188 750H107C74 750 61 730 61 703ZM375 816C456 816 501 864 501 928C501 991 456 1040 375 1040C295 1040 249 991 249 928C249 864 295 816 375 816ZM375 867C339 867 319 892 319 928C319 962 339 987 375 987C412 987 433 962 433 928C433 892 412 867 375 867Z" glyph-name="Uring" horiz-adv-x="749" unicode="&#366;" /><glyph d="M61 703V268C61 81 181 -8 375 -8C562 -8 688 86 688 268V703C688 730 675 750 642 750H561C527 750 514 730 514 703V280C514 178 461 133 375 133C289 133 235 178 235 280V703C235 730 222 750 188 750H107C74 750 61 730 61 703ZM304 994C251 994 206 942 206 904V893C206 869 210 857 225 857C229 857 235 861 243 867C259 884 279 896 304 896C341 896 395 828 448 828C492 828 550 872 550 922V933C550 953 545 968 532 968C524 968 517 962 509 954C497 944 477 927 448 927C411 927 358 994 304 994Z" glyph-name="Utilde" horiz-adv-x="749" unicode="&#360;" /><glyph d="M254 0H474C546 147 646 451 699 693C701 702 703 710 703 717C703 736 688 750 664 750H579C551 750 535 737 528 704C487 512 418 232 367 124C318 230 252 505 212 704C206 736 189 750 160 750H66C39 750 24 735 24 717C24 712 25 707 29 688C83 451 181 151 254 0Z" glyph-name="V" horiz-adv-x="729" unicode="V" /><glyph d="M212 0H426C461 76 514 232 552 413C591 232 644 76 678 0H890C943 123 1018 381 1068 694C1070 702 1070 712 1070 716C1070 733 1059 750 1027 750H937C909 750 893 738 889 704C862 509 812 248 769 134C715 252 666 494 634 704C629 735 611 750 584 750H521C492 750 476 735 471 704C439 493 388 246 336 134C288 261 242 512 215 704C211 735 194 750 167 750H74C45 750 30 737 30 714C30 707 31 699 33 691C85 379 159 119 212 0Z" glyph-name="W" horiz-adv-x="1102" unicode="W" /><glyph d="M212 0H426C461 76 514 232 552 413C591 232 644 76 678 0H890C943 123 1018 381 1068 694C1070 702 1070 712 1070 716C1070 733 1059 750 1027 750H937C909 750 893 738 889 704C862 509 812 248 769 134C715 252 666 494 634 704C629 735 611 750 584 750H521C492 750 476 735 471 704C439 493 388 246 336 134C288 261 242 512 215 704C211 735 194 750 167 750H74C45 750 30 737 30 714C30 707 31 699 33 691C85 379 159 119 212 0ZM538 828C564 828 585 847 612 869L691 940C703 950 709 958 709 966C709 977 701 984 677 984H590C560 984 546 969 527 943L475 869C469 860 467 853 467 849C467 837 475 828 496 828Z" glyph-name="Wacute" horiz-adv-x="1102" unicode="&#7810;" /><glyph d="M212 0H426C461 76 514 232 552 413C591 232 644 76 678 0H890C943 123 1018 381 1068 694C1070 702 1070 712 1070 716C1070 733 1059 750 1027 750H937C909 750 893 738 889 704C862 509 812 248 769 134C715 252 666 494 634 704C629 735 611 750 584 750H521C492 750 476 735 471 704C439 493 388 246 336 134C288 261 242 512 215 704C211 735 194 750 167 750H74C45 750 30 737 30 714C30 707 31 699 33 691C85 379 159 119 212 0ZM550 929 601 875C630 847 647 828 676 828H711C732 828 743 838 743 848C743 854 739 865 730 875L665 953C640 981 625 1000 594 1000H507C477 1000 461 981 436 953L372 875C362 865 359 854 359 848C359 835 375 828 391 828H424C454 828 472 846 500 875Z" glyph-name="Wcircumflex" horiz-adv-x="1102" unicode="&#372;" /><glyph d="M212 0H426C461 76 514 232 552 413C591 232 644 76 678 0H890C943 123 1018 381 1068 694C1070 702 1070 712 1070 716C1070 733 1059 750 1027 750H937C909 750 893 738 889 704C862 509 812 248 769 134C715 252 666 494 634 704C629 735 611 750 584 750H521C492 750 476 735 471 704C439 493 388 246 336 134C288 261 242 512 215 704C211 735 194 750 167 750H74C45 750 30 737 30 714C30 707 31 699 33 691C85 379 159 119 212 0ZM661 828H703C735 828 749 848 749 875V895C749 923 735 942 703 942H661C629 942 615 923 615 895V875C615 848 629 828 661 828ZM399 828H440C473 828 487 848 487 875V895C487 923 473 942 440 942H399C366 942 352 923 352 895V875C352 848 366 828 399 828Z" glyph-name="Wdieresis" horiz-adv-x="1102" unicode="&#7812;" /><glyph d="M212 0H426C461 76 514 232 552 413C591 232 644 76 678 0H890C943 123 1018 381 1068 694C1070 702 1070 712 1070 716C1070 733 1059 750 1027 750H937C909 750 893 738 889 704C862 509 812 248 769 134C715 252 666 494 634 704C629 735 611 750 584 750H521C492 750 476 735 471 704C439 493 388 246 336 134C288 261 242 512 215 704C211 735 194 750 167 750H74C45 750 30 737 30 714C30 707 31 699 33 691C85 379 159 119 212 0ZM412 940 491 869C518 847 539 828 565 828H606C627 828 635 837 635 849C635 853 633 860 627 869L575 943C557 969 542 984 512 984H425C402 984 394 977 394 966C394 958 400 950 412 940Z" glyph-name="Wgrave" horiz-adv-x="1102" unicode="&#7808;" /><glyph d="M27 23C27 9 40 0 62 0H151C183 0 198 17 216 46L333 241L450 47C467 18 483 0 514 0H616C641 0 653 9 653 23C653 30 650 38 643 49L431 387L630 704C635 713 638 721 638 727C638 741 624 750 604 750H512C482 750 465 731 449 703L340 521L230 703C216 729 199 750 165 750H61C41 750 27 741 27 727C27 721 30 712 37 701L241 375L37 49C29 35 27 29 27 23Z" glyph-name="X" horiz-adv-x="681" unicode="X" /><glyph d="M252 47C252 20 266 0 298 0H380C413 0 426 20 426 47V295L645 701C649 712 651 719 651 725C651 740 640 750 617 750H544C512 750 496 731 484 706L348 430L212 706C199 732 185 750 152 750H56C34 750 22 740 22 725C22 720 23 712 29 701L252 287Z" glyph-name="Y" horiz-adv-x="673" unicode="Y" /><glyph d="M252 47C252 20 266 0 298 0H380C413 0 426 20 426 47V295L645 701C649 712 651 719 651 725C651 740 640 750 617 750H544C512 750 496 731 484 706L348 430L212 706C199 732 185 750 152 750H56C34 750 22 740 22 725C22 720 23 712 29 701L252 287ZM331 828C357 828 378 847 405 869L484 940C496 950 502 958 502 966C502 977 494 984 470 984H383C353 984 339 969 320 943L268 869C262 860 260 853 260 849C260 837 268 828 289 828Z" glyph-name="Yacute" horiz-adv-x="673" unicode="&#221;" /><glyph d="M252 47C252 20 266 0 298 0H380C413 0 426 20 426 47V295L645 701C649 712 651 719 651 725C651 740 640 750 617 750H544C512 750 496 731 484 706L348 430L212 706C199 732 185 750 152 750H56C34 750 22 740 22 725C22 720 23 712 29 701L252 287ZM343 929 394 875C423 847 440 828 469 828H504C525 828 536 838 536 848C536 854 532 865 523 875L458 953C433 981 418 1000 387 1000H300C270 1000 254 981 229 953L165 875C155 865 152 854 152 848C152 835 168 828 184 828H217C247 828 265 846 293 875Z" glyph-name="Ycircumflex" horiz-adv-x="673" unicode="&#374;" /><glyph d="M252 47C252 20 266 0 298 0H380C413 0 426 20 426 47V295L645 701C649 712 651 719 651 725C651 740 640 750 617 750H544C512 750 496 731 484 706L348 430L212 706C199 732 185 750 152 750H56C34 750 22 740 22 725C22 720 23 712 29 701L252 287ZM454 828H496C528 828 542 848 542 875V895C542 923 528 942 496 942H454C422 942 408 923 408 895V875C408 848 422 828 454 828ZM192 828H233C266 828 280 848 280 875V895C280 923 266 942 233 942H192C159 942 145 923 145 895V875C145 848 159 828 192 828Z" glyph-name="Ydieresis" horiz-adv-x="673" unicode="&#376;" /><glyph d="M252 47C252 20 266 0 298 0H380C413 0 426 20 426 47V295L645 701C649 712 651 719 651 725C651 740 640 750 617 750H544C512 750 496 731 484 706L348 430L212 706C199 732 185 750 152 750H56C34 750 22 740 22 725C22 720 23 712 29 701L252 287ZM205 940 284 869C311 847 332 828 358 828H399C420 828 428 837 428 849C428 853 426 860 420 869L368 943C350 969 335 984 305 984H218C195 984 187 977 187 966C187 958 193 950 205 940Z" glyph-name="Ygrave" horiz-adv-x="673" unicode="&#7922;" /><glyph d="M35 44C35 19 50 0 80 0H550C583 0 597 20 597 47V89C597 116 583 135 550 135H257C350 253 511 494 574 620C586 640 588 656 588 677V706C588 731 573 750 542 750H93C60 750 46 730 46 703V661C46 634 60 615 93 615H382C323 492 158 266 61 138C45 118 35 103 35 76Z" glyph-name="Z" horiz-adv-x="632" unicode="Z" /><glyph d="M35 44C35 19 50 0 80 0H550C583 0 597 20 597 47V89C597 116 583 135 550 135H257C350 253 511 494 574 620C586 640 588 656 588 677V706C588 731 573 750 542 750H93C60 750 46 730 46 703V661C46 634 60 615 93 615H382C323 492 158 266 61 138C45 118 35 103 35 76ZM304 828C330 828 351 847 378 869L457 940C469 950 475 958 475 966C475 977 467 984 443 984H356C326 984 312 969 293 943L241 869C235 860 233 853 233 849C233 837 241 828 262 828Z" glyph-name="Zacute" horiz-adv-x="632" unicode="&#377;" /><glyph d="M35 44C35 19 50 0 80 0H550C583 0 597 20 597 47V89C597 116 583 135 550 135H257C350 253 511 494 574 620C586 640 588 656 588 677V706C588 731 573 750 542 750H93C60 750 46 730 46 703V661C46 634 60 615 93 615H382C323 492 158 266 61 138C45 118 35 103 35 76ZM316 898 266 953C238 982 220 1000 190 1000H157C141 1000 125 993 125 979C125 973 128 963 138 953L202 875C227 846 243 828 273 828H360C391 828 406 846 431 875L496 953C505 963 509 973 509 979C509 990 498 1000 477 1000H442C413 1000 396 981 367 953Z" glyph-name="Zcaron" horiz-adv-x="632" unicode="&#381;" /><glyph d="M35 44C35 19 50 0 80 0H550C583 0 597 20 597 47V89C597 116 583 135 550 135H257C350 253 511 494 574 620C586 640 588 656 588 677V706C588 731 573 750 542 750H93C60 750 46 730 46 703V661C46 634 60 615 93 615H382C323 492 158 266 61 138C45 118 35 103 35 76ZM287 823H346C379 823 393 843 393 869V895C393 923 379 942 346 942H287C255 942 241 923 241 895V869C241 843 255 823 287 823Z" glyph-name="Zdotaccent" horiz-adv-x="632" unicode="&#379;" /><glyph d="M41 180C41 47 113 -8 205 -8C279 -8 326 17 371 53L413 86V47C413 20 426 0 459 0H538C571 0 585 20 585 47V500C585 527 571 547 538 547H348C190 547 41 438 41 266ZM213 205V269C213 359 277 418 365 418H413V208L389 187C364 165 316 126 276 126C240 126 213 142 213 205Z" glyph-name="a" horiz-adv-x="653" unicode="a" /><glyph d="M35 137C35 33 99 -8 176 -8C240 -8 278 11 317 39L354 65V36C354 14 367 0 395 0H463C489 0 503 14 503 36V386C503 408 489 422 463 422H298C158 422 35 342 35 203ZM334 150C313 135 271 105 237 105C207 105 185 117 185 163V208C185 275 238 318 313 318H354V166Z" glyph-name="a.denominator" horiz-adv-x="561" /><glyph d="M35 -20C35 -123 99 -164 176 -164C240 -164 278 -146 317 -117L354 -91V-120C354 -143 367 -156 395 -156H463C489 -156 503 -143 503 -120V229C503 252 489 266 463 266H298C158 266 35 186 35 47ZM334 -6C313 -21 271 -51 237 -51C207 -51 185 -39 185 7V52C185 119 238 162 313 162H354V10Z" glyph-name="a.inferior" horiz-adv-x="561" /><glyph d="M176 320C240 320 278 339 317 367L354 394V364C354 342 367 328 395 328H463C489 328 503 342 503 364V714C503 736 489 750 463 750H298C158 750 35 670 35 531V465C35 361 99 320 176 320ZM334 479C313 463 271 434 237 434C207 434 185 445 185 491V536C185 604 238 646 313 646H354V494Z" glyph-name="a.numerator" horiz-adv-x="561" /><glyph d="M34 32C34 12 50 0 76 0H156C190 0 202 13 211 46C215 65 220 86 226 108H422L437 46C444 15 460 0 489 0H579C605 0 620 13 620 32C620 37 619 42 617 50C575 211 497 431 436 547H219C157 434 78 210 37 49C34 40 34 38 34 32ZM324 422C341 387 366 312 389 229H258C282 312 307 387 324 422Z" glyph-name="a.sc" horiz-adv-x="654" /><glyph d="M176 477C240 477 278 495 317 523L354 550V521C354 498 367 484 395 484H463C489 484 503 498 503 521V870C503 893 489 906 463 906H298C158 906 35 826 35 687V621C35 518 99 477 176 477ZM334 635C313 619 271 590 237 590C207 590 185 602 185 647V692C185 760 238 803 313 803H354V650Z" glyph-name="a.superior" horiz-adv-x="561" /><glyph d="M41 180C41 47 113 -8 205 -8C279 -8 326 17 371 53L413 86V47C413 20 426 0 459 0H538C571 0 585 20 585 47V500C585 527 571 547 538 547H348C190 547 41 438 41 266ZM213 205V269C213 359 277 418 365 418H413V208L389 187C364 165 316 126 276 126C240 126 213 142 213 205ZM326 625C352 625 373 644 400 666L479 737C491 747 497 755 497 763C497 774 489 781 465 781H378C348 781 334 766 315 740L263 666C257 657 255 650 255 646C255 634 263 625 284 625Z" glyph-name="aacute" horiz-adv-x="653" unicode="&#225;" /><glyph d="M34 32C34 12 50 0 76 0H156C190 0 202 13 211 46C215 65 220 86 226 108H422L437 46C444 15 460 0 489 0H579C605 0 620 13 620 32C620 37 619 42 617 50C575 211 497 431 436 547H219C157 434 78 210 37 49C34 40 34 38 34 32ZM346 625C372 625 393 644 420 666L499 737C511 747 517 755 517 763C517 774 509 781 485 781H398C368 781 354 766 335 740L283 666C277 657 275 650 275 646C275 634 283 625 304 625ZM324 422C341 387 366 312 389 229H258C282 312 307 387 324 422Z" glyph-name="aacute.sc" horiz-adv-x="654" /><glyph d="M41 180C41 47 113 -8 205 -8C279 -8 326 17 371 53L413 86V47C413 20 426 0 459 0H538C571 0 585 20 585 47V500C585 527 571 547 538 547H348C190 547 41 438 41 266ZM213 205V269C213 359 277 418 365 418H413V208L389 187C364 165 316 126 276 126C240 126 213 142 213 205ZM338 614C442 614 505 674 511 769C512 788 495 791 485 791H475C459 791 451 783 444 764C430 729 398 708 338 708C280 708 247 729 234 764C226 783 219 791 203 791H192C183 791 165 788 167 769C171 674 236 614 338 614Z" glyph-name="abreve" horiz-adv-x="653" unicode="&#259;" /><glyph d="M34 32C34 12 50 0 76 0H156C190 0 202 13 211 46C215 65 220 86 226 108H422L437 46C444 15 460 0 489 0H579C605 0 620 13 620 32C620 37 619 42 617 50C575 211 497 431 436 547H219C157 434 78 210 37 49C34 40 34 38 34 32ZM327 614C431 614 494 674 500 769C501 788 484 791 474 791H464C448 791 440 783 433 764C419 729 387 708 327 708C269 708 236 729 223 764C215 783 208 791 192 791H181C172 791 154 788 156 769C160 674 225 614 327 614ZM324 422C341 387 366 312 389 229H258C282 312 307 387 324 422Z" glyph-name="abreve.sc" horiz-adv-x="654" /><glyph d="M41 180C41 47 113 -8 205 -8C279 -8 326 17 371 53L413 86V47C413 20 426 0 459 0H538C571 0 585 20 585 47V500C585 527 571 547 538 547H348C190 547 41 438 41 266ZM213 205V269C213 359 277 418 365 418H413V208L389 187C364 165 316 126 276 126C240 126 213 142 213 205ZM338 726 389 672C418 644 435 625 464 625H499C520 625 531 635 531 645C531 651 527 662 518 672L453 750C428 778 413 797 382 797H295C265 797 249 778 224 750L160 672C150 662 147 651 147 645C147 632 163 625 179 625H212C242 625 260 643 288 672Z" glyph-name="acircumflex" horiz-adv-x="653" unicode="&#226;" /><glyph d="M34 32C34 12 50 0 76 0H156C190 0 202 13 211 46C215 65 220 86 226 108H422L437 46C444 15 460 0 489 0H579C605 0 620 13 620 32C620 37 619 42 617 50C575 211 497 431 436 547H219C157 434 78 210 37 49C34 40 34 38 34 32ZM327 726 378 672C407 644 424 625 453 625H488C509 625 520 635 520 645C520 651 516 662 507 672L442 750C417 778 402 797 371 797H284C254 797 238 778 213 750L149 672C139 662 136 651 136 645C136 632 152 625 168 625H201C231 625 249 643 277 672ZM324 422C341 387 366 312 389 229H258C282 312 307 387 324 422Z" glyph-name="acircumflex.sc" horiz-adv-x="654" /><glyph d="M303 625C329 625 350 644 377 666L456 737C468 747 474 755 474 763C474 774 466 781 442 781H355C325 781 311 766 292 740L240 666C234 657 232 650 232 646C232 634 240 625 261 625Z" glyph-name="acute" horiz-adv-x="632" unicode="&#180;" /><glyph d="M41 180C41 47 113 -8 205 -8C279 -8 326 17 371 53L413 86V47C413 20 426 0 459 0H538C571 0 585 20 585 47V500C585 527 571 547 538 547H348C190 547 41 438 41 266ZM213 205V269C213 359 277 418 365 418H413V208L389 187C364 165 316 126 276 126C240 126 213 142 213 205ZM449 625H491C523 625 537 645 537 672V692C537 720 523 739 491 739H449C417 739 403 720 403 692V672C403 645 417 625 449 625ZM187 625H228C261 625 275 645 275 672V692C275 720 261 739 228 739H187C154 739 140 720 140 692V672C140 645 154 625 187 625Z" glyph-name="adieresis" horiz-adv-x="653" unicode="&#228;" /><glyph d="M34 32C34 12 50 0 76 0H156C190 0 202 13 211 46C215 65 220 86 226 108H422L437 46C444 15 460 0 489 0H579C605 0 620 13 620 32C620 37 619 42 617 50C575 211 497 431 436 547H219C157 434 78 210 37 49C34 40 34 38 34 32ZM176 625H217C250 625 264 645 264 672V692C264 720 250 739 217 739H176C143 739 129 720 129 692V672C129 645 143 625 176 625ZM438 625H480C512 625 526 645 526 672V692C526 720 512 739 480 739H438C406 739 392 720 392 692V672C392 645 406 625 438 625ZM324 422C341 387 366 312 389 229H258C282 312 307 387 324 422Z" glyph-name="adieresis.sc" horiz-adv-x="654" /><glyph d="M41 266V180C41 47 113 -8 205 -8C287 -8 332 17 378 53L440 101C484 24 577 -8 687 -8C747 -8 805 2 850 12C877 19 890 40 890 67V108C890 130 877 146 857 146C854 146 851 146 845 144C797 135 749 126 697 126C642 126 585 149 585 211V219H754C871 219 940 263 940 375C940 503 830 547 703 547H348C190 547 41 438 41 266ZM276 126C240 126 213 142 213 205V269C213 359 277 418 365 418H438C422 390 413 354 413 312V207L391 187C365 165 316 126 276 126ZM585 308C585 382 627 413 695 413C740 413 779 398 779 355C779 318 758 300 710 300H585Z" glyph-name="ae" horiz-adv-x="979" unicode="&#230;" /><glyph d="M35 32C35 12 50 0 76 0H156C190 0 202 13 211 46C216 69 222 94 229 120H397C407 44 455 0 545 0H792C824 0 838 20 838 47V74C838 102 824 121 792 121H629C582 121 568 132 568 176V223H756C788 223 802 241 802 269V285C802 312 788 332 756 332H568V426H786C819 426 833 445 833 473V500C833 527 819 547 786 547H219C157 432 80 213 38 52C35 42 35 39 35 32ZM325 426H396V241H262C286 321 310 393 325 426Z" glyph-name="ae.sc" horiz-adv-x="888" /><glyph d="M41 266V180C41 47 113 -8 205 -8C287 -8 332 17 378 53L440 101C484 24 577 -8 687 -8C747 -8 805 2 850 12C877 19 890 40 890 67V108C890 130 877 146 857 146C854 146 851 146 845 144C797 135 749 126 697 126C642 126 585 149 585 211V219H754C871 219 940 263 940 375C940 503 830 547 703 547H348C190 547 41 438 41 266ZM276 126C240 126 213 142 213 205V269C213 359 277 418 365 418H438C422 390 413 354 413 312V207L391 187C365 165 316 126 276 126ZM483 625C509 625 530 644 557 666L636 737C648 747 654 755 654 763C654 774 646 781 622 781H535C505 781 491 766 472 740L420 666C414 657 412 650 412 646C412 634 420 625 441 625ZM585 308C585 382 627 413 695 413C740 413 779 398 779 355C779 318 758 300 710 300H585Z" glyph-name="aeacute" horiz-adv-x="979" unicode="&#509;" /><glyph d="M35 32C35 12 50 0 76 0H156C190 0 202 13 211 46C216 69 222 94 229 120H397C407 44 455 0 545 0H792C824 0 838 20 838 47V74C838 102 824 121 792 121H629C582 121 568 132 568 176V223H756C788 223 802 241 802 269V285C802 312 788 332 756 332H568V426H786C819 426 833 445 833 473V500C833 527 819 547 786 547H219C157 432 80 213 38 52C35 42 35 39 35 32ZM522 625C548 625 569 644 596 666L675 737C687 747 693 755 693 763C693 774 685 781 661 781H574C544 781 530 766 511 740L459 666C453 657 451 650 451 646C451 634 459 625 480 625ZM325 426H396V241H262C286 321 310 393 325 426Z" glyph-name="aeacute.sc" horiz-adv-x="888" /><glyph d="M21 201 101 259V188C101 26 169 -8 259 -8C344 -8 399 30 451 114L429 132C396 85 357 53 298 53C231 53 192 95 192 232V312C306 407 380 493 380 612C380 681 352 758 271 758C166 758 101 670 101 495V298L9 232ZM192 359V490C192 649 209 718 259 718C299 718 315 660 315 612C315 508 262 433 192 359Z" glyph-name="afii61289" horiz-adv-x="468" unicode="&#8467;" /><glyph d="M783 544C783 394 871 332 999 332C1126 332 1215 394 1215 544C1215 694 1126 757 999 757C871 757 783 694 783 544ZM68 47C68 20 82 0 115 0H196C229 0 243 20 243 47V448L537 31C551 11 566 0 596 0H655C688 0 702 20 702 47V703C702 730 688 750 655 750H573C541 750 527 730 527 703V302L233 719C220 739 204 750 175 750H115C82 750 68 730 68 703ZM915 544C915 625 936 665 999 665C1062 665 1082 625 1082 544C1082 463 1062 424 999 424C936 424 915 463 915 544ZM799 224C799 201 812 187 839 187H1160C1187 187 1200 201 1200 224V232C1200 255 1187 269 1160 269H839C812 269 799 255 799 232ZM799 79C799 57 812 43 839 43H1160C1187 43 1200 57 1200 79V89C1200 111 1187 125 1160 125H839C812 125 799 111 799 89Z" glyph-name="afii61352" horiz-adv-x="1260" unicode="&#8470;" /><glyph d="M41 180C41 47 113 -8 205 -8C279 -8 326 17 371 53L413 86V47C413 20 426 0 459 0H538C571 0 585 20 585 47V500C585 527 571 547 538 547H348C190 547 41 438 41 266ZM213 205V269C213 359 277 418 365 418H413V208L389 187C364 165 316 126 276 126C240 126 213 142 213 205ZM200 737 279 666C306 644 327 625 353 625H394C415 625 423 634 423 646C423 650 421 657 415 666L363 740C345 766 330 781 300 781H213C190 781 182 774 182 763C182 755 188 747 200 737Z" glyph-name="agrave" horiz-adv-x="653" unicode="&#224;" /><glyph d="M34 32C34 12 50 0 76 0H156C190 0 202 13 211 46C215 65 220 86 226 108H422L437 46C444 15 460 0 489 0H579C605 0 620 13 620 32C620 37 619 42 617 50C575 211 497 431 436 547H219C157 434 78 210 37 49C34 40 34 38 34 32ZM150 737 229 666C256 644 277 625 303 625H344C365 625 373 634 373 646C373 650 371 657 365 666L313 740C295 766 280 781 250 781H163C140 781 132 774 132 763C132 755 138 747 150 737ZM324 422C341 387 366 312 389 229H258C282 312 307 387 324 422Z" glyph-name="agrave.sc" horiz-adv-x="654" /><glyph d="M41 180C41 47 113 -8 205 -8C279 -8 326 17 371 53L413 86V47C413 20 426 0 459 0H538C571 0 585 20 585 47V500C585 527 571 547 538 547H348C190 547 41 438 41 266ZM213 205V269C213 359 277 418 365 418H413V208L389 187C364 165 316 126 276 126C240 126 213 142 213 205ZM219 625H459C489 625 502 643 502 668V685C502 711 489 729 459 729H219C189 729 175 711 175 685V668C175 643 189 625 219 625Z" glyph-name="amacron" horiz-adv-x="653" unicode="&#257;" /><glyph d="M34 32C34 12 50 0 76 0H156C190 0 202 13 211 46C215 65 220 86 226 108H422L437 46C444 15 460 0 489 0H579C605 0 620 13 620 32C620 37 619 42 617 50C575 211 497 431 436 547H219C157 434 78 210 37 49C34 40 34 38 34 32ZM208 625H448C478 625 491 643 491 668V685C491 711 478 729 448 729H208C178 729 164 711 164 685V668C164 643 178 625 208 625ZM324 422C341 387 366 312 389 229H258C282 312 307 387 324 422Z" glyph-name="amacron.sc" horiz-adv-x="654" /><glyph d="M45 211C45 65 167 -8 333 -8C427 -8 544 13 595 32V317L612 318C638 321 649 337 649 364V406C649 434 637 453 604 453H344C285 453 250 482 250 534C250 591 288 619 356 619H375C424 619 469 609 503 603C508 602 512 602 516 602C535 602 547 614 547 641V689C547 719 535 733 506 740C471 750 422 758 375 758H336C199 758 75 693 75 555C75 477 116 422 172 395C94 366 45 295 45 211ZM220 227C220 288 267 317 332 317H419V141C399 135 369 131 336 131C258 131 220 168 220 227Z" glyph-name="ampersand" horiz-adv-x="687" unicode="&amp;" /><glyph d="M39 155C39 36 145 -8 283 -8C365 -8 471 11 511 24V221L520 222C541 226 554 241 554 268V286C554 313 540 333 507 333H296C256 333 233 350 233 378C233 412 260 433 320 433H334C369 433 402 427 432 423C437 422 442 421 446 421C465 421 479 434 479 459V492C479 522 466 539 434 545C404 551 367 555 334 555H296C174 555 62 509 62 402C62 342 98 308 140 289C75 269 39 214 39 155ZM211 166C211 204 241 221 284 221H344V117C331 114 312 112 288 112C237 112 211 128 211 166Z" glyph-name="ampersand.sc" horiz-adv-x="590" /><glyph d="M41 180C41 47 113 -8 205 -8C279 -8 326 17 371 53L413 86V47C413 20 426 0 459 0H538C571 0 585 20 585 47V500C585 527 571 547 538 547H348C190 547 41 438 41 266ZM213 205V269C213 359 277 418 365 418H413V208L389 187C364 165 316 126 276 126C240 126 213 142 213 205ZM402 -106C402 -165 453 -188 511 -188H589C608 -188 618 -177 618 -159V-146C618 -128 608 -117 589 -117H553C522 -117 499 -113 499 -89C499 -68 526 -52 546 -43V-31H464C429 -47 402 -75 402 -106Z" glyph-name="aogonek" horiz-adv-x="653" unicode="&#261;" /><glyph d="M34 32C34 12 50 0 76 0H156C190 0 202 13 211 46C215 65 220 86 226 108H422L437 46C444 15 460 0 489 0H579C605 0 620 13 620 32C620 37 619 42 617 50C575 211 497 431 436 547H219C157 434 78 210 37 49C34 40 34 38 34 32ZM441 -106C441 -165 492 -188 550 -188H628C647 -188 657 -177 657 -159V-146C657 -128 647 -117 628 -117H592C561 -117 538 -113 538 -89C538 -68 565 -52 585 -43V-31H503C468 -47 441 -75 441 -106ZM324 422C341 387 366 312 389 229H258C282 312 307 387 324 422Z" glyph-name="aogonek.sc" horiz-adv-x="654" /><glyph d="M93 407C104 407 110 412 120 420C137 433 163 445 194 445C248 445 355 378 427 378C462 378 489 394 509 406C537 424 552 444 552 473V525C552 545 545 559 532 559C521 559 511 550 502 543C488 531 465 522 431 522C375 522 269 589 198 589C167 589 144 579 119 563C94 549 73 526 73 496V440C73 420 80 407 93 407ZM93 170C104 170 110 176 120 184C137 195 163 208 194 208C248 208 355 142 427 142C462 142 489 156 509 169C537 187 552 208 552 236V289C552 309 545 322 532 322C521 322 511 313 502 307C488 295 465 285 431 285C375 285 269 352 198 352C167 352 144 342 119 327C94 312 73 289 73 260V203C73 183 80 170 93 170Z" glyph-name="approxequal" horiz-adv-x="625" unicode="&#8776;" /><glyph d="M67 307C76 307 81 312 92 319C108 330 135 341 162 341C220 341 318 287 387 287C414 287 439 297 459 309C484 325 504 351 504 382V418C504 437 498 449 487 449C479 449 475 444 463 437C443 422 417 416 393 416C333 416 236 470 168 470C145 470 120 464 97 447C71 433 51 407 51 375V337C51 316 58 307 67 307ZM67 93C76 93 81 99 92 105C108 116 135 127 162 127C220 127 318 73 387 73C414 73 439 83 459 95C484 111 504 137 504 168V204C504 224 498 235 487 235C479 235 475 230 463 223C443 208 417 202 393 202C333 202 236 256 168 256C145 256 120 250 97 233C71 219 51 193 51 161V123C51 103 58 93 67 93Z" glyph-name="approxequal.sc" horiz-adv-x="555" /><glyph d="M41 180C41 47 113 -8 205 -8C279 -8 326 17 371 53L413 86V47C413 20 426 0 459 0H538C571 0 585 20 585 47V500C585 527 571 547 538 547H348C190 547 41 438 41 266ZM213 205V269C213 359 277 418 365 418H413V208L389 187C364 165 316 126 276 126C240 126 213 142 213 205ZM338 613C419 613 464 661 464 725C464 788 419 837 338 837C258 837 212 788 212 725C212 661 258 613 338 613ZM338 664C302 664 282 689 282 725C282 759 302 784 338 784C375 784 396 759 396 725C396 689 375 664 338 664Z" glyph-name="aring" horiz-adv-x="653" unicode="&#229;" /><glyph d="M34 32C34 12 50 0 76 0H156C190 0 202 13 211 46C215 65 220 86 226 108H422L437 46C444 15 460 0 489 0H579C605 0 620 13 620 32C620 37 619 42 617 50C575 211 497 431 436 547H219C157 434 78 210 37 49C34 40 34 38 34 32ZM327 613C408 613 453 661 453 725C453 788 408 837 327 837C247 837 201 788 201 725C201 661 247 613 327 613ZM324 422C341 387 366 312 389 229H258C282 312 307 387 324 422ZM327 664C291 664 271 689 271 725C271 759 291 784 327 784C364 784 385 759 385 725C385 689 364 664 327 664Z" glyph-name="aring.sc" horiz-adv-x="654" /><glyph d="M175 421C205 421 215 437 228 459L312 602L395 463C407 441 417 421 447 421H521C544 421 559 431 559 448C559 456 557 461 550 473L406 706C391 732 378 750 346 750H279C247 750 234 732 219 706L75 473C68 462 66 456 66 448C66 432 81 421 104 421Z" glyph-name="asciicircum" horiz-adv-x="625" unicode="^" /><glyph d="M93 291C104 291 110 297 120 304C137 316 163 329 194 329C248 329 355 263 427 263C462 263 489 277 509 290C537 308 552 329 552 357V410C552 429 545 443 532 443C521 443 511 435 502 428C488 416 465 406 431 406C375 406 269 473 198 473C167 473 144 463 119 448C94 434 73 410 73 381V324C73 304 80 291 93 291Z" glyph-name="asciitilde" horiz-adv-x="625" unicode="~" /><glyph d="M67 200C76 200 81 207 92 214C108 225 135 235 162 235C220 235 318 182 387 182C414 182 439 191 459 203C484 220 504 245 504 276V312C504 332 498 344 487 344C479 344 475 339 463 331C443 316 417 311 393 311C333 311 236 364 168 364C145 364 120 358 97 342C71 327 51 302 51 270V231C51 211 58 200 67 200Z" glyph-name="asciitilde.sc" horiz-adv-x="555" /><glyph d="M367 410C375 405 383 403 390 403C401 403 412 410 420 423L439 456C443 463 445 470 445 477C445 488 437 499 424 508L363 543L424 578C437 586 445 597 445 609C445 615 443 623 439 630L420 663C412 676 401 683 390 683C383 683 375 681 367 676L307 641V711C307 736 293 750 270 750H230C207 750 193 736 193 711V641L133 676C124 681 117 683 110 683C98 683 88 676 80 663L61 630C57 623 55 615 55 609C55 597 62 586 76 578L136 543L76 508C62 499 55 488 55 477C55 470 57 463 61 456L80 423C88 410 98 403 110 403C117 403 124 405 133 410L193 444V375C193 350 207 336 230 336H270C293 336 307 350 307 375V444Z" glyph-name="asterisk" horiz-adv-x="500" unicode="*" /><glyph d="M105 391 75 373C62 365 55 354 55 343C55 336 57 330 61 322L73 301C80 288 90 281 102 281C109 281 116 284 124 289L157 308V274C157 250 170 236 193 236H218C242 236 255 250 255 274V307L286 289C294 284 302 281 309 281C320 281 330 288 337 301L350 322C354 330 355 336 355 343C355 354 349 365 335 373L305 391L335 407C349 415 355 426 355 437C355 444 354 450 350 458L337 479C329 492 320 499 309 499C302 499 294 496 286 491L255 474V508C255 533 242 547 218 547H193C170 547 157 533 157 508V473L124 491C116 496 109 499 102 499C90 499 81 492 73 479L61 458C57 450 55 444 55 437C55 426 62 415 75 407Z" glyph-name="asterisk.sc" horiz-adv-x="412" /><glyph d="M42 327C42 33 258 -102 496 -102C541 -102 600 -97 646 -87C675 -82 682 -69 682 -52V-5C682 7 674 18 661 18C658 18 656 17 651 16C601 6 551 2 497 2C330 2 176 93 176 328C176 582 345 654 497 654C651 654 769 586 769 415C769 289 711 246 648 246H635V469C635 496 621 516 588 516H461C355 516 279 443 279 328C279 215 347 156 456 156H636C785 156 902 249 902 417C902 625 740 758 497 758C250 758 42 613 42 327ZM413 327C413 398 445 426 479 426H501V246H474C439 246 413 268 413 327Z" glyph-name="at" horiz-adv-x="945" unicode="@" /><glyph d="M40 239C40 28 200 -73 398 -73C441 -73 481 -70 516 -64C540 -62 553 -48 553 -31V6C553 19 543 28 533 28C529 28 527 27 522 26C480 19 441 18 398 18C282 18 156 75 156 239C156 423 291 465 391 465C494 465 593 426 593 302C593 225 564 187 517 187H508V335C508 362 495 382 462 382H385C294 382 226 330 226 242C226 152 289 109 388 109H502C634 109 709 188 709 302C709 456 590 555 391 555C187 555 40 445 40 239ZM330 245C330 292 357 309 384 309H403V187H384C354 187 330 204 330 245Z" glyph-name="at.sc" horiz-adv-x="746" /><glyph d="M41 180C41 47 113 -8 205 -8C279 -8 326 17 371 53L413 86V47C413 20 426 0 459 0H538C571 0 585 20 585 47V500C585 527 571 547 538 547H348C190 547 41 438 41 266ZM213 205V269C213 359 277 418 365 418H413V208L389 187C364 165 316 126 276 126C240 126 213 142 213 205ZM267 791C214 791 169 739 169 701V690C169 666 173 654 188 654C192 654 198 658 206 664C222 681 242 693 267 693C304 693 358 625 411 625C455 625 513 669 513 719V730C513 750 508 765 495 765C487 765 480 759 472 751C460 741 440 724 411 724C374 724 321 791 267 791Z" glyph-name="atilde" horiz-adv-x="653" unicode="&#227;" /><glyph d="M34 32C34 12 50 0 76 0H156C190 0 202 13 211 46C215 65 220 86 226 108H422L437 46C444 15 460 0 489 0H579C605 0 620 13 620 32C620 37 619 42 617 50C575 211 497 431 436 547H219C157 434 78 210 37 49C34 40 34 38 34 32ZM256 791C203 791 158 739 158 701V690C158 666 162 654 177 654C181 654 187 658 195 664C211 681 231 693 256 693C293 693 347 625 400 625C444 625 502 669 502 719V730C502 750 497 765 484 765C476 765 469 759 461 751C449 741 429 724 400 724C363 724 310 791 256 791ZM324 422C341 387 366 312 389 229H258C282 312 307 387 324 422Z" glyph-name="atilde.sc" horiz-adv-x="654" /><glyph d="M68 47C68 20 82 0 115 0H306C463 0 612 108 612 281V367C612 500 539 555 448 555C374 555 327 530 282 494L240 461V703C240 730 227 750 194 750H115C82 750 68 730 68 703ZM264 360C289 382 336 421 377 421C412 421 440 405 440 342V278C440 187 376 129 288 129H240V339Z" glyph-name="b" horiz-adv-x="653" unicode="b" /><glyph d="M98 0H263C403 0 525 80 525 219V285C525 389 463 430 385 430C321 430 282 411 243 383L207 356V542C207 564 193 578 167 578H98C71 578 58 564 58 542V36C58 14 71 0 98 0ZM227 271C248 287 289 316 324 316C354 316 376 305 376 259V214C376 146 322 104 248 104H207V256Z" glyph-name="b.denominator" horiz-adv-x="561" /><glyph d="M58 -120C58 -143 71 -156 98 -156H263C403 -156 525 -76 525 62V129C525 232 463 273 385 273C321 273 282 255 243 227L207 200V386C207 408 193 422 167 422H98C71 422 58 408 58 386ZM227 115C248 131 289 160 324 160C354 160 376 148 376 103V58C376 -10 322 -53 248 -53H207V100Z" glyph-name="b.inferior" horiz-adv-x="561" /><glyph d="M98 328H263C403 328 525 408 525 547V613C525 717 463 758 385 758C321 758 282 739 243 711L207 685V870C207 893 193 906 167 906H98C71 906 58 893 58 870V364C58 342 71 328 98 328ZM227 600C248 615 289 645 324 645C354 645 376 633 376 587V542C376 475 322 432 248 432H207V584Z" glyph-name="b.numerator" horiz-adv-x="561" /><glyph d="M68 47C68 20 82 0 115 0H368C495 0 569 50 569 166C569 228 534 267 484 286C534 312 555 353 555 400C555 504 484 547 370 547H115C82 547 68 527 68 500ZM240 327V437H326C362 437 383 421 383 386C383 352 362 327 326 327ZM240 109V227H329C372 227 397 209 397 169C397 127 374 109 328 109Z" glyph-name="b.sc" horiz-adv-x="609" /><glyph d="M98 484H263C403 484 525 564 525 703V770C525 873 463 914 385 914C321 914 282 896 243 867L207 841V1026C207 1049 193 1062 167 1062H98C71 1062 58 1049 58 1026V521C58 498 71 484 98 484ZM227 756C248 771 289 801 324 801C354 801 376 789 376 743V698C376 631 322 588 248 588H207V740Z" glyph-name="b.superior" horiz-adv-x="561" /><glyph d="M355 -77C368 -110 383 -125 413 -125H477C497 -125 514 -114 514 -97C514 -92 513 -88 510 -79L198 707C187 735 170 750 146 750H76C53 750 39 739 39 722C39 717 41 711 43 704Z" glyph-name="backslash" horiz-adv-x="553" unicode="\" /><glyph d="M271 -34C285 -67 300 -82 329 -82H396C417 -82 432 -70 432 -54C432 -47 429 -40 427 -33L199 515C187 542 171 555 146 555H77C54 555 41 543 41 526C41 520 44 513 47 506Z" glyph-name="backslash.sc" horiz-adv-x="473" /><glyph d="M95 -142C95 -169 108 -188 142 -188H187C221 -188 234 -169 234 -142V767C234 794 221 813 187 813H142C108 813 95 794 95 767Z" glyph-name="bar" horiz-adv-x="329" unicode="|" /><glyph d="M167 -16C167 -133 242 -188 375 -188H419C449 -188 462 -171 462 -144V-98C462 -71 449 -55 419 -55H407C348 -55 339 -29 339 47V136C339 233 280 268 210 284C280 299 339 335 339 433V516C339 592 348 617 407 617H419C449 617 462 633 462 660V706C462 732 449 750 419 750H375C242 750 167 695 167 578V455C167 392 143 359 72 347C46 341 31 329 31 301V267C31 238 46 227 72 221C143 208 167 176 167 113Z" glyph-name="braceleft" horiz-adv-x="499" unicode="{" /><glyph d="M167 109C167 -8 242 -63 375 -63H419C449 -63 462 -47 462 -20V27C462 52 449 70 421 70H410C348 70 339 94 339 149V227C339 324 280 359 210 376C280 391 339 426 339 523V601C339 656 348 680 410 680H421C449 680 462 695 462 723V769C462 795 449 812 419 812H375C242 812 167 758 167 641V546C167 483 143 451 72 438C46 432 31 421 31 392V358C31 329 46 318 72 312C143 299 167 267 167 204Z" glyph-name="braceleft.cap" horiz-adv-x="499" /><glyph d="M129 55C129 -31 186 -70 304 -70H352C383 -70 395 -55 395 -27V8C395 33 383 52 354 52H348C313 52 303 64 303 101V164C303 235 266 260 212 271C266 281 303 305 303 376V442C303 478 313 491 348 491H354C383 491 395 508 395 534V569C395 596 383 613 352 613H304C186 613 129 574 129 488V395C129 354 112 334 69 325C54 320 31 312 31 281V259C31 228 54 220 69 215C112 205 129 187 129 146Z" glyph-name="braceleft.sc" horiz-adv-x="432" /><glyph d="M88 -55C59 -55 47 -72 47 -98V-144C47 -171 60 -188 90 -188H134C267 -188 342 -133 342 -16V113C342 176 366 208 437 221C463 227 478 238 478 267V301C478 329 463 341 437 347C366 359 342 392 342 455V578C342 695 267 750 134 750H90C60 750 47 732 47 706V660C47 633 60 617 88 617H99C161 617 170 594 170 516V433C170 335 229 299 299 284C229 268 170 233 170 136V47C170 -31 161 -55 99 -55Z" glyph-name="braceright" horiz-adv-x="499" unicode="}" /><glyph d="M47 27V-20C47 -47 60 -63 90 -63H134C267 -63 342 -8 342 109V204C342 267 366 299 437 312C463 318 478 329 478 358V392C478 421 463 432 437 438C366 451 342 483 342 546V641C342 758 267 812 134 812H90C60 812 47 795 47 769V723C47 695 60 680 88 680H99C161 680 170 656 170 601V523C170 426 229 391 299 376C229 359 170 324 170 227V149C170 94 161 70 99 70H88C59 70 47 52 47 27Z" glyph-name="braceright.cap" horiz-adv-x="499" /><glyph d="M37 -27C37 -55 49 -70 80 -70H128C246 -70 303 -31 303 55V146C303 187 319 205 362 215C378 220 400 228 400 259V281C400 312 378 320 362 325C319 334 303 354 303 395V488C303 574 246 613 128 613H80C49 613 37 596 37 569V534C37 508 49 491 77 491H85C118 491 129 478 129 442V376C129 305 166 281 220 271C166 260 129 235 129 164V101C129 64 118 52 85 52H77C49 52 37 33 37 8Z" glyph-name="braceright.sc" horiz-adv-x="432" /><glyph d="M73 -141C73 -168 87 -188 120 -188H325C355 -188 368 -172 368 -145V-98C368 -72 355 -55 325 -55H245V617H325C355 617 368 633 368 660V706C368 732 355 750 325 750H120C87 750 73 731 73 704Z" glyph-name="bracketleft" horiz-adv-x="415" unicode="[" /><glyph d="M73 -16C73 -43 87 -63 120 -63H325C355 -63 368 -47 368 -20V27C368 53 355 70 325 70H245V680H325C355 680 368 695 368 723V769C368 795 355 812 325 812H120C87 812 73 794 73 767Z" glyph-name="bracketleft.cap" horiz-adv-x="415" /><glyph d="M73 -23C73 -51 87 -70 120 -70H296C326 -70 339 -55 339 -27V8C339 33 327 52 296 52H246V491H296C326 491 339 508 339 534V569C339 596 326 613 296 613H120C87 613 73 595 73 567Z" glyph-name="bracketleft.sc" horiz-adv-x="386" /><glyph d="M90 -55C59 -55 47 -72 47 -98V-145C47 -172 60 -188 90 -188H295C328 -188 342 -168 342 -141V704C342 731 328 750 295 750H90C60 750 47 732 47 706V660C47 633 60 617 90 617H170V-55Z" glyph-name="bracketright" horiz-adv-x="415" unicode="]" /><glyph d="M47 -20C47 -47 60 -63 90 -63H295C328 -63 342 -43 342 -16V767C342 794 328 812 295 812H90C60 814 47 795 47 769V723C47 695 60 680 90 680H170V70H90C59 70 47 53 47 27Z" glyph-name="bracketright.cap" horiz-adv-x="415" /><glyph d="M47 -27C47 -55 60 -70 90 -70H266C299 -70 312 -51 312 -23V567C312 595 299 613 266 613H90C60 613 47 596 47 569V534C47 508 60 491 90 491H140V52H90C59 52 47 33 47 8Z" glyph-name="bracketright.sc" horiz-adv-x="386" /><glyph d="M315 614C419 614 482 674 488 769C489 788 472 791 462 791H452C436 791 428 783 421 764C407 729 375 708 315 708C257 708 224 729 211 764C203 783 196 791 180 791H169C160 791 142 788 144 769C148 674 213 614 315 614Z" glyph-name="breve" horiz-adv-x="632" unicode="&#728;" /><glyph d="M141 406H187C220 406 233 426 233 453V767C233 794 220 813 187 813H141C108 813 95 794 95 767V453C95 426 108 406 141 406ZM95 -142C95 -169 108 -188 141 -188H187C220 -188 233 -169 233 -142V173C233 200 220 220 187 220H141C108 220 95 200 95 173Z" glyph-name="brokenbar" horiz-adv-x="329" unicode="&#166;" /><glyph d="M250 109C344 109 438 173 438 298C438 423 344 484 250 484C156 484 63 423 63 298C63 173 156 109 250 109Z" glyph-name="bullet" horiz-adv-x="500" unicode="&#8226;" /><glyph d="M250 195C344 195 438 259 438 384C438 509 344 570 250 570C156 570 63 509 63 384C63 259 156 195 250 195Z" glyph-name="bullet.cap" horiz-adv-x="500" /><glyph d="M250 98C344 98 438 161 438 286C438 411 344 473 250 473C156 473 63 411 63 286C63 161 156 98 250 98Z" glyph-name="bullet.sc" horiz-adv-x="500" /><glyph d="M41 222C41 55 155 -8 315 -8C364 -8 419 1 471 15C498 22 510 39 510 67V105C510 131 497 146 479 146C475 146 471 146 465 144C417 133 379 126 331 126C252 126 213 160 213 242V315C213 388 258 421 318 421C339 421 363 418 384 410V389C384 364 398 345 430 345H477C509 345 522 364 522 391V513C468 540 389 555 318 555C168 555 41 478 41 315Z" glyph-name="c" horiz-adv-x="560" unicode="c" /><glyph d="M35 171C35 43 132 -8 271 -8C323 -8 372 1 403 10C426 16 437 28 437 49V84C437 101 428 113 409 113C405 113 401 113 397 111C354 104 326 101 283 101C217 101 185 126 185 186V246C185 299 223 324 272 324C291 324 312 321 330 314V297C330 279 345 266 370 266H410C437 266 450 279 450 302V399C403 421 333 430 272 430C144 430 35 371 35 246Z" glyph-name="c.denominator" horiz-adv-x="482" /><glyph d="M35 15C35 -113 132 -164 271 -164C323 -164 372 -155 403 -146C426 -141 437 -128 437 -107V-72C437 -56 428 -43 409 -43C405 -43 401 -43 397 -45C354 -52 326 -56 283 -56C217 -56 185 -30 185 29V90C185 143 223 168 272 168C291 168 312 165 330 158V141C330 123 345 109 370 109H410C437 109 450 123 450 146V243C403 265 333 273 272 273C144 273 35 215 35 90Z" glyph-name="c.inferior" horiz-adv-x="482" /><glyph d="M271 320C323 320 372 329 403 338C426 344 437 356 437 377V412C437 429 428 441 409 441C405 441 401 441 397 439C354 433 326 429 283 429C217 429 185 454 185 514V574C185 627 223 652 272 652C291 652 312 649 330 643V625C330 607 345 594 370 594H410C437 594 450 607 450 630V728C403 749 333 758 272 758C144 758 35 699 35 574V499C35 371 132 320 271 320Z" glyph-name="c.numerator" horiz-adv-x="482" /><glyph d="M41 226C41 63 149 -8 321 -8H336C376 -8 432 -1 479 12C506 20 518 35 518 64V104C518 128 506 142 486 142C482 142 479 142 473 141C429 133 396 126 354 126H338C255 126 213 163 213 246V312C213 386 260 421 328 421C348 421 368 419 391 412V396C391 372 405 353 437 353H481C515 353 528 372 528 399V518C476 542 398 555 332 555C165 555 41 477 41 312Z" glyph-name="c.sc" horiz-adv-x="569" /><glyph d="M271 477C323 477 372 485 403 494C426 500 437 513 437 533V568C437 585 428 598 409 598C405 598 401 598 397 596C354 589 326 585 283 585C217 585 185 610 185 670V730C185 783 223 809 272 809C291 809 312 806 330 799V781C330 764 345 750 370 750H410C437 750 450 764 450 786V884C403 905 333 914 272 914C144 914 35 855 35 730V655C35 527 132 477 271 477Z" glyph-name="c.superior" horiz-adv-x="482" /><glyph d="M41 222C41 55 155 -8 315 -8C364 -8 419 1 471 15C498 22 510 39 510 67V105C510 131 497 146 479 146C475 146 471 146 465 144C417 133 379 126 331 126C252 126 213 160 213 242V315C213 388 258 421 318 421C339 421 363 418 384 410V389C384 364 398 345 430 345H477C509 345 522 364 522 391V513C468 540 389 555 318 555C168 555 41 478 41 315ZM295 625C321 625 342 644 369 666L448 737C460 747 466 755 466 763C466 774 458 781 434 781H347C317 781 303 766 284 740L232 666C226 657 224 650 224 646C224 634 232 625 253 625Z" glyph-name="cacute" horiz-adv-x="560" unicode="&#263;" /><glyph d="M41 226C41 63 149 -8 321 -8H336C376 -8 432 -1 479 12C506 20 518 35 518 64V104C518 128 506 142 486 142C482 142 479 142 473 141C429 133 396 126 354 126H338C255 126 213 163 213 246V312C213 386 260 421 328 421C348 421 368 419 391 412V396C391 372 405 353 437 353H481C515 353 528 372 528 399V518C476 542 398 555 332 555C165 555 41 477 41 312ZM305 625C331 625 352 644 379 666L458 737C470 747 476 755 476 763C476 774 468 781 444 781H357C327 781 313 766 294 740L242 666C236 657 234 650 234 646C234 634 242 625 263 625Z" glyph-name="cacute.sc" horiz-adv-x="569" /><glyph d="M315 695 265 750C237 779 219 797 189 797H156C140 797 124 790 124 776C124 770 127 760 137 750L201 672C226 643 242 625 272 625H359C390 625 405 643 430 672L495 750C504 760 508 770 508 776C508 787 497 797 476 797H441C412 797 395 778 366 750Z" glyph-name="caron" horiz-adv-x="632" unicode="&#711;" /><glyph d="M347 624C367 624 375 636 379 652L400 748C401 755 403 761 403 764C403 774 396 781 381 781H346C328 781 318 772 308 756L262 679C256 670 253 662 253 654V649C253 633 262 624 278 624Z" glyph-name="caronquoteleft" horiz-adv-x="632" /><glyph d="M335 781C314 781 307 771 303 754L281 658C280 650 278 645 278 642C278 631 287 624 301 624H337C354 624 363 633 374 650L420 727C426 736 429 743 429 751V756C429 772 420 781 403 781Z" glyph-name="caronquoteright" horiz-adv-x="632" /><glyph d="M41 222C41 55 155 -8 315 -8C364 -8 419 1 471 15C498 22 510 39 510 67V105C510 131 497 146 479 146C475 146 471 146 465 144C417 133 379 126 331 126C252 126 213 160 213 242V315C213 388 258 421 318 421C339 421 363 418 384 410V389C384 364 398 345 430 345H477C509 345 522 364 522 391V513C468 540 389 555 318 555C168 555 41 478 41 315ZM307 695 257 750C229 779 211 797 181 797H148C132 797 116 790 116 776C116 770 119 760 129 750L193 672C218 643 234 625 264 625H351C382 625 397 643 422 672L487 750C496 760 500 770 500 776C500 787 489 797 468 797H433C404 797 387 778 358 750Z" glyph-name="ccaron" horiz-adv-x="560" unicode="&#269;" /><glyph d="M41 226C41 63 149 -8 321 -8H336C376 -8 432 -1 479 12C506 20 518 35 518 64V104C518 128 506 142 486 142C482 142 479 142 473 141C429 133 396 126 354 126H338C255 126 213 163 213 246V312C213 386 260 421 328 421C348 421 368 419 391 412V396C391 372 405 353 437 353H481C515 353 528 372 528 399V518C476 542 398 555 332 555C165 555 41 477 41 312ZM317 695 267 750C239 779 221 797 191 797H158C142 797 126 790 126 776C126 770 129 760 139 750L203 672C228 643 244 625 274 625H361C392 625 407 643 432 672L497 750C506 760 510 770 510 776C510 787 499 797 478 797H443C414 797 397 778 368 750Z" glyph-name="ccaron.sc" horiz-adv-x="569" /><glyph d="M41 222C41 55 155 -8 315 -8C364 -8 419 1 471 15C498 22 510 39 510 67V105C510 131 497 146 479 146C475 146 471 146 465 144C417 133 379 126 331 126C252 126 213 160 213 242V315C213 388 258 421 318 421C339 421 363 418 384 410V389C384 364 398 345 430 345H477C509 345 522 364 522 391V513C468 540 389 555 318 555C168 555 41 478 41 315ZM192 -146V-159C192 -177 202 -188 220 -188H299C357 -188 408 -165 408 -106C408 -75 381 -47 345 -31H263V-43C284 -52 311 -68 311 -89C311 -113 288 -117 257 -117H220C202 -117 192 -128 192 -146Z" glyph-name="ccedilla" horiz-adv-x="560" unicode="&#231;" /><glyph d="M41 226C41 63 149 -8 321 -8H336C376 -8 432 -1 479 12C506 20 518 35 518 64V104C518 128 506 142 486 142C482 142 479 142 473 141C429 133 396 126 354 126H338C255 126 213 163 213 246V312C213 386 260 421 328 421C348 421 368 419 391 412V396C391 372 405 353 437 353H481C515 353 528 372 528 399V518C476 542 398 555 332 555C165 555 41 477 41 312ZM198 -146V-159C198 -177 208 -188 226 -188H305C363 -188 414 -165 414 -106C414 -75 387 -47 351 -31H269V-43C290 -52 317 -68 317 -89C317 -113 294 -117 263 -117H226C208 -117 198 -128 198 -146Z" glyph-name="ccedilla.sc" horiz-adv-x="569" /><glyph d="M41 222C41 55 155 -8 315 -8C364 -8 419 1 471 15C498 22 510 39 510 67V105C510 131 497 146 479 146C475 146 471 146 465 144C417 133 379 126 331 126C252 126 213 160 213 242V315C213 388 258 421 318 421C339 421 363 418 384 410V389C384 364 398 345 430 345H477C509 345 522 364 522 391V513C468 540 389 555 318 555C168 555 41 478 41 315ZM307 726 358 672C387 644 404 625 433 625H468C489 625 500 635 500 645C500 651 496 662 487 672L422 750C397 778 382 797 351 797H264C234 797 218 778 193 750L129 672C119 662 116 651 116 645C116 632 132 625 148 625H181C211 625 229 643 257 672Z" glyph-name="ccircumflex" horiz-adv-x="560" unicode="&#265;" /><glyph d="M41 226C41 63 149 -8 321 -8H336C376 -8 432 -1 479 12C506 20 518 35 518 64V104C518 128 506 142 486 142C482 142 479 142 473 141C429 133 396 126 354 126H338C255 126 213 163 213 246V312C213 386 260 421 328 421C348 421 368 419 391 412V396C391 372 405 353 437 353H481C515 353 528 372 528 399V518C476 542 398 555 332 555C165 555 41 477 41 312ZM317 726 368 672C397 644 414 625 443 625H478C499 625 510 635 510 645C510 651 506 662 497 672L432 750C407 778 392 797 361 797H274C244 797 228 778 203 750L139 672C129 662 126 651 126 645C126 632 142 625 158 625H191C221 625 239 643 267 672Z" glyph-name="ccircumflex.sc" horiz-adv-x="569" /><glyph d="M41 222C41 55 155 -8 315 -8C364 -8 419 1 471 15C498 22 510 39 510 67V105C510 131 497 146 479 146C475 146 471 146 465 144C417 133 379 126 331 126C252 126 213 160 213 242V315C213 388 258 421 318 421C339 421 363 418 384 410V389C384 364 398 345 430 345H477C509 345 522 364 522 391V513C468 540 389 555 318 555C168 555 41 478 41 315ZM278 620H337C370 620 384 640 384 666V692C384 720 370 739 337 739H278C246 739 232 720 232 692V666C232 640 246 620 278 620Z" glyph-name="cdotaccent" horiz-adv-x="560" unicode="&#267;" /><glyph d="M41 226C41 63 149 -8 321 -8H336C376 -8 432 -1 479 12C506 20 518 35 518 64V104C518 128 506 142 486 142C482 142 479 142 473 141C429 133 396 126 354 126H338C255 126 213 163 213 246V312C213 386 260 421 328 421C348 421 368 419 391 412V396C391 372 405 353 437 353H481C515 353 528 372 528 399V518C476 542 398 555 332 555C165 555 41 477 41 312ZM288 620H347C380 620 394 640 394 666V692C394 720 380 739 347 739H288C256 739 242 720 242 692V666C242 640 256 620 288 620Z" glyph-name="cdotaccent.sc" horiz-adv-x="569" /><glyph d="M203 -146V-159C203 -177 213 -188 231 -188H310C368 -188 419 -165 419 -106C419 -75 392 -47 356 -31H274V-43C295 -52 322 -68 322 -89C322 -113 299 -117 268 -117H231C213 -117 203 -128 203 -146Z" glyph-name="cedilla" horiz-adv-x="632" unicode="&#184;" /><glyph d="M44 346C44 153 132 17 325 -4V-78C325 -105 339 -125 372 -125H395C428 -125 441 -105 441 -78V-7C474 -5 503 2 532 10C562 19 578 36 578 64V102C578 128 565 147 546 147C540 147 538 146 532 146C502 136 464 127 418 127H387C275 127 219 212 219 346V406C219 545 283 623 399 623C446 623 483 618 531 607C536 606 539 606 541 606C563 606 575 629 575 654V690C575 720 558 736 531 743C497 751 484 754 441 757V820C441 848 428 867 395 867H372C339 867 325 848 325 820V752C160 726 44 610 44 406Z" glyph-name="cent" horiz-adv-x="625" unicode="&#162;" /><glyph d="M42 346C42 153 130 17 324 -4V-78C324 -105 338 -125 370 -125H394C426 -125 439 -105 439 -78V-7C473 -5 502 2 530 10C560 19 577 36 577 64V102C577 128 563 147 544 147C539 147 536 146 531 146C500 136 463 127 417 127H385C273 127 217 212 217 346V406C217 545 282 623 398 623C445 623 482 618 529 607C534 606 537 606 539 606C562 606 574 629 574 654V690C574 720 557 736 530 743C496 751 482 754 439 757V820C439 848 426 867 394 867H370C338 867 324 848 324 820V752C159 726 42 610 42 406Z" glyph-name="cent.PPF" horiz-adv-x="608" /><glyph d="M35 197C35 79 96 3 234 -5V-37C234 -60 248 -73 274 -73H292C318 -73 332 -60 332 -37V-8C362 -5 372 -2 389 2C413 8 429 21 429 44V67C429 86 418 98 401 98C396 98 390 96 386 95C366 90 338 86 308 86H285C221 86 185 133 185 197V227C185 295 224 337 307 337C332 337 361 334 383 330C391 329 395 328 398 328C411 328 426 337 426 357V383C426 405 410 418 387 423C373 426 358 428 332 430V456C332 479 318 492 292 492H274C248 492 234 479 234 456V427C123 417 35 344 35 227Z" glyph-name="cent.denominator" horiz-adv-x="456" /><glyph d="M35 41C35 -77 96 -153 234 -161V-193C234 -216 248 -229 274 -229H292C318 -229 332 -216 332 -193V-164C362 -161 372 -158 389 -154C413 -148 429 -136 429 -112V-89C429 -70 418 -59 401 -59C396 -59 390 -61 386 -62C366 -66 338 -70 308 -70H285C221 -70 185 -23 185 41V70C185 139 224 181 307 181C332 181 361 178 383 174C391 173 395 172 398 172C411 172 426 181 426 201V227C426 249 410 262 387 267C373 270 358 271 332 273V300C332 322 318 336 292 336H274C248 336 234 322 234 300V271C123 261 35 187 35 70Z" glyph-name="cent.inferior" horiz-adv-x="456" /><glyph d="M35 525C35 407 96 331 234 323V291C234 269 248 255 274 255H292C318 255 332 269 332 291V320C362 323 372 326 389 330C413 336 429 349 429 372V396C429 414 418 426 401 426C396 426 390 424 386 423C366 418 338 414 308 414H285C221 414 185 461 185 525V555C185 623 224 665 307 665C332 665 361 662 383 658C391 657 395 656 398 656C411 656 426 665 426 686V711C426 733 410 746 387 751C373 754 358 756 332 758V784C332 807 318 820 292 820H274C248 820 234 807 234 784V755C123 745 35 672 35 555Z" glyph-name="cent.numerator" horiz-adv-x="456" /><glyph d="M43 258C43 114 122 17 297 -1V-43C297 -70 311 -90 344 -90H361C395 -90 408 -70 408 -43V-5C425 -4 451 -1 477 5C509 13 527 31 527 60V81C527 107 513 125 496 125C491 125 486 124 481 123C452 117 422 112 383 112H357C262 112 215 170 215 258V292C215 383 266 435 376 435C408 435 440 432 479 427C487 426 488 425 491 425C512 425 524 447 524 474V488C524 518 508 536 480 542C453 547 441 549 408 551V586C408 613 395 633 361 633H344C311 633 297 613 297 586V547C150 528 43 443 43 292Z" glyph-name="cent.sc" horiz-adv-x="555" /><glyph d="M34 256C34 113 108 17 271 -2V-43C271 -70 284 -90 316 -90H335C367 -90 381 -70 381 -43V-5C396 -5 420 -1 444 5C477 13 495 30 495 60V83C495 108 480 126 464 126C459 126 453 125 449 124C422 118 391 113 355 113H335C248 113 206 172 206 256V293C206 376 244 434 348 434C391 434 418 428 446 423C455 422 456 421 458 421C479 421 492 441 492 469V488C492 516 477 535 448 542C422 547 410 551 381 552V586C381 613 367 633 335 633H316C284 633 271 613 271 586V549C129 529 34 441 34 293Z" glyph-name="cent.scppf" horiz-adv-x="520" /><glyph d="M35 682C35 563 96 487 234 479V447C234 425 248 411 274 411H292C318 411 332 425 332 447V477C362 479 372 482 389 486C413 492 429 505 429 528V552C429 570 418 582 401 582C396 582 390 580 386 579C366 574 338 570 308 570H285C221 570 185 617 185 682V711C185 779 224 821 307 821C332 821 361 818 383 814C391 813 395 812 398 812C411 812 426 821 426 842V867C426 890 410 902 387 907C373 910 358 912 332 914V940C332 963 318 977 292 977H274C248 977 234 963 234 940V911C123 901 35 828 35 711Z" glyph-name="cent.superior" horiz-adv-x="456" /><glyph d="M315 726 366 672C395 644 412 625 441 625H476C497 625 508 635 508 645C508 651 504 662 495 672L430 750C405 778 390 797 359 797H272C242 797 226 778 201 750L137 672C127 662 124 651 124 645C124 632 140 625 156 625H189C219 625 237 643 265 672Z" glyph-name="circumflex" horiz-adv-x="632" unicode="&#710;" /><glyph d="M116 389H191C224 389 237 407 237 435V500C237 527 224 547 191 547H116C84 547 70 527 70 500V435C70 407 84 389 116 389ZM70 47C70 20 84 0 116 0H191C224 0 237 20 237 47V112C237 140 224 159 191 159H116C84 159 70 140 70 112Z" glyph-name="colon" horiz-adv-x="309" unicode=":" /><glyph d="M29 -76C28 -80 26 -92 26 -96C26 -113 41 -125 63 -125H87C117 -125 131 -104 145 -81L229 65C238 82 244 95 244 110V114C244 143 229 159 198 159H124C92 159 76 144 69 110Z" glyph-name="comma" horiz-adv-x="309" unicode="," /><glyph d="M69 -98C96 -98 106 -76 119 -55L168 32C179 49 184 62 184 79V83C184 111 167 125 138 125H106C75 125 60 109 53 76L26 -39C23 -50 21 -63 21 -68C21 -88 34 -98 51 -98Z" glyph-name="comma.denominator" horiz-adv-x="238" /><glyph d="M69 -254C96 -254 106 -232 119 -211L168 -124C179 -107 184 -94 184 -77V-73C184 -45 167 -31 138 -31H106C75 -31 60 -47 53 -80L26 -195C23 -206 21 -220 21 -225C21 -244 34 -254 51 -254Z" glyph-name="comma.inferior" horiz-adv-x="238" /><glyph d="M69 230C96 230 106 252 119 273L168 360C179 377 184 391 184 407V411C184 439 167 453 138 453H106C75 453 60 437 53 404L26 289C23 278 21 265 21 260C21 240 34 230 51 230Z" glyph-name="comma.numerator" horiz-adv-x="238" /><glyph d="M69 387C96 387 106 408 119 430L168 517C179 533 184 547 184 563V567C184 596 167 609 138 609H106C75 609 60 594 53 561L26 445C23 435 21 421 21 416C21 396 34 387 51 387Z" glyph-name="comma.superior" horiz-adv-x="238" /><glyph d="M282 -30C262 -30 255 -42 251 -59L229 -154C228 -161 226 -167 226 -170C226 -181 234 -188 249 -188H284C301 -188 311 -179 321 -162L368 -85C373 -76 376 -68 376 -61V-56C376 -39 367 -30 351 -30Z" glyph-name="commaaccent" horiz-adv-x="632" unicode="&#63171;" /><glyph d="M43 375C43 147 224 -8 457 -8C690 -8 871 147 871 375C871 603 690 758 457 758C224 758 43 603 43 375ZM143 375C143 553 269 682 457 682C645 682 771 553 771 375C771 197 645 68 457 68C269 68 143 197 143 375ZM266 355C266 237 333 168 465 168H492C517 168 540 173 558 179C575 184 587 196 587 217V238C587 253 580 261 570 261C564 261 559 258 554 257C540 254 518 248 492 248H471C406 248 371 289 371 355V402C371 469 404 510 466 510C479 510 494 509 503 506V492C503 467 517 456 538 456H552C573 456 587 467 587 492V573C560 582 513 590 474 590C350 590 266 532 266 399Z" glyph-name="copyright" horiz-adv-x="914" unicode="&#169;" /><glyph d="M43 273C43 107 177 -8 364 -8C551 -8 685 107 685 273C685 439 551 555 364 555C177 555 43 439 43 273ZM130 273C130 401 218 487 364 487C510 487 599 401 599 273C599 146 510 60 364 60C218 60 130 146 130 273ZM208 258C208 171 262 121 368 121H390C404 121 429 125 438 128C456 134 468 146 468 166V174C468 187 461 195 451 195C445 195 439 193 434 192C424 190 406 187 390 187H374C327 187 304 214 304 258V293C304 336 324 363 369 363C376 363 387 363 393 361V354C393 336 403 327 422 327H439C457 327 468 339 468 355V417C444 424 405 430 376 430C275 430 208 389 208 290Z" glyph-name="copyright.sc" horiz-adv-x="728" /><glyph d="M136 197C143 191 148 187 155 187C162 187 170 190 177 197L220 237C245 223 276 215 312 215C349 215 380 223 405 238L450 197C457 190 464 187 471 187C478 187 484 191 490 197L508 216C514 222 516 229 516 235C516 243 513 250 505 257L462 296C474 319 480 346 480 375C480 403 474 430 462 453L506 493C514 500 518 507 518 515C518 521 515 528 509 534L491 553C485 559 479 562 472 562C466 562 458 560 451 553L406 512C380 526 349 535 312 535C275 535 245 527 220 512L175 553C168 560 161 562 154 562C147 562 141 559 135 553L117 534C111 528 109 521 109 515C109 507 112 500 120 493L163 453C151 430 145 403 145 375C145 346 151 319 163 296L121 257C113 250 110 243 110 235C110 229 113 222 119 216ZM312 296C263 296 237 332 237 375C237 418 263 454 312 454C362 454 388 418 388 375C388 332 362 296 312 296Z" glyph-name="currency" horiz-adv-x="625" unicode="&#164;" /><glyph d="M89 197C96 191 102 187 108 187C115 187 123 190 130 197L173 237C198 223 229 215 266 215C302 215 333 223 358 237L403 197C410 190 417 187 424 187C431 187 437 191 443 197L461 216C467 222 469 229 469 235C469 243 466 250 458 257L415 296C427 319 434 346 434 375C434 403 427 430 415 453L459 493C467 500 471 507 471 515C471 521 468 528 462 534L444 553C438 559 432 562 425 562C419 562 411 560 404 553L359 512C334 526 303 535 266 535C229 535 198 527 173 512L128 553C121 560 114 562 107 562C101 562 94 559 88 553L70 534C64 528 62 521 62 515C62 507 65 500 73 493L116 453C104 430 98 403 98 375C98 346 104 319 116 296L74 257C66 250 63 243 63 235C63 229 66 222 72 216ZM266 296C216 296 190 332 190 375C190 418 216 454 266 454C315 454 341 418 341 375C341 332 315 296 266 296Z" glyph-name="currency.PPF" horiz-adv-x="531" /><glyph d="M101 99C107 92 113 89 120 89C127 89 135 92 142 99L185 138C210 124 241 116 277 116C314 116 345 124 370 139L415 99C422 92 429 89 436 89C442 89 449 92 455 99L473 117C479 123 480 130 480 137C480 144 478 151 470 158L427 197C439 220 445 247 445 276C445 304 439 331 427 354L471 394C479 400 482 408 482 415C482 422 479 429 474 436L456 453C450 460 443 463 437 463C431 463 423 460 416 453L371 413C346 428 314 437 277 437C240 437 209 428 183 414L140 453C133 460 126 463 119 463C112 463 105 460 100 453L82 436C76 429 74 422 74 415C74 408 77 400 85 394L127 355C115 331 109 304 109 276C109 247 115 220 128 196L86 158C78 151 75 144 75 137C75 130 78 123 84 117ZM277 197C228 197 202 233 202 276C202 318 228 354 277 354C327 354 353 318 353 276C353 233 327 197 277 197Z" glyph-name="currency.sc" horiz-adv-x="555" /><glyph d="M74 99C80 92 87 89 94 89C101 89 107 92 114 99L158 138C183 124 214 116 250 116C287 116 318 124 343 139L388 99C395 92 402 89 408 89C416 89 422 92 429 99L445 117C451 123 454 130 454 137C454 144 450 151 442 158L400 198C411 221 418 248 418 276C418 304 412 330 400 353L444 394C452 400 455 408 455 415C455 422 452 429 446 436L430 453C424 460 417 463 410 463C403 463 396 460 389 453L344 413C319 428 287 437 250 437C213 437 182 428 157 413L113 453C106 460 99 463 93 463C85 463 79 460 72 453L56 436C50 429 47 422 47 415C47 408 51 400 59 394L100 354C88 331 82 304 82 276C82 247 88 220 101 196L60 158C52 151 49 144 49 137C49 130 51 123 57 117ZM250 197C200 197 176 233 176 276C176 318 200 354 250 354C300 354 325 318 325 276C325 233 300 197 250 197Z" glyph-name="currency.scppf" horiz-adv-x="501" /><glyph d="M413 703V547H348C190 547 41 438 41 266V180C41 47 113 -8 205 -8C279 -8 326 17 371 53L413 86V47C413 20 426 0 459 0H538C571 0 585 20 585 47V703C585 730 571 750 538 750H459C426 750 413 730 413 703ZM213 269C213 359 277 418 365 418H413V208L389 187C364 165 316 126 276 126C240 126 213 142 213 205Z" glyph-name="d" horiz-adv-x="653" unicode="d" /><glyph d="M35 137C35 33 99 -8 176 -8C240 -8 278 11 317 39L354 65V36C354 14 367 0 395 0H463C489 0 503 14 503 36V542C503 564 489 578 463 578H395C367 578 354 564 354 542V422H298C158 422 35 342 35 203ZM334 150C313 135 271 105 237 105C207 105 185 117 185 163V208C185 275 238 318 313 318H354V166Z" glyph-name="d.denominator" horiz-adv-x="561" /><glyph d="M35 -20C35 -123 99 -164 176 -164C240 -164 278 -146 317 -117L354 -91V-120C354 -143 367 -156 395 -156H463C489 -156 503 -143 503 -120V386C503 408 489 422 463 422H395C367 422 354 408 354 386V266H298C158 266 35 186 35 47ZM334 -6C313 -21 271 -51 237 -51C207 -51 185 -39 185 7V52C185 119 238 162 313 162H354V10Z" glyph-name="d.inferior" horiz-adv-x="561" /><glyph d="M176 320C240 320 278 339 317 367L354 394V364C354 342 367 328 395 328H463C489 328 503 342 503 364V870C503 893 489 906 463 906H395C367 906 354 893 354 870V750H298C158 750 35 670 35 531V465C35 361 99 320 176 320ZM334 479C313 463 271 434 237 434C207 434 185 445 185 491V536C185 604 238 646 313 646H354V494Z" glyph-name="d.numerator" horiz-adv-x="561" /><glyph d="M68 47C68 20 82 0 115 0H327C510 0 602 101 602 243V313C602 454 503 547 323 547H115C82 547 68 527 68 500ZM240 126V421H303C384 421 430 387 430 304V252C430 167 389 126 307 126Z" glyph-name="d.sc" horiz-adv-x="641" /><glyph d="M176 477C240 477 278 495 317 523L354 550V521C354 498 367 484 395 484H463C489 484 503 498 503 521V1026C503 1049 489 1062 463 1062H395C367 1062 354 1049 354 1026V906H298C158 906 35 826 35 687V621C35 518 99 477 176 477ZM334 635C313 619 271 590 237 590C207 590 185 602 185 647V692C185 760 238 803 313 803H354V650Z" glyph-name="d.superior" horiz-adv-x="561" /><glyph d="M199 -78C199 -105 213 -125 246 -125H325C358 -125 371 -105 371 -78V408H490C523 408 537 428 537 454V500C537 527 523 547 490 547H371V703C371 730 358 750 325 750H246C213 750 199 730 199 703V547H81C48 547 34 527 34 500V454C34 428 48 408 81 408H199Z" glyph-name="dagger" horiz-adv-x="571" unicode="&#8224;" /><glyph d="M164 -43C164 -70 178 -90 211 -90H271C305 -90 318 -70 318 -43V288H402C435 288 448 307 448 334V362C448 390 435 408 402 408H318V500C318 527 305 547 271 547H211C178 547 164 527 164 500V408H81C48 408 34 390 34 362V334C34 307 48 288 81 288H164Z" glyph-name="dagger.sc" horiz-adv-x="482" /><glyph d="M81 48H199V-78C199 -105 213 -125 246 -125H325C358 -125 371 -105 371 -78V48H490C523 48 537 67 537 94V141C537 167 523 187 490 187H371V408H490C523 408 537 428 537 454V500C537 527 523 547 490 547H371V703C371 730 358 750 325 750H246C213 750 199 730 199 703V547H81C48 547 34 527 34 500V454C34 428 48 408 81 408H199V187H81C48 187 34 167 34 141V94C34 67 48 48 81 48Z" glyph-name="daggerdbl" horiz-adv-x="566" unicode="&#8225;" /><glyph d="M34 85C34 58 48 38 81 38H164V-43C164 -70 178 -90 211 -90H271C305 -90 318 -70 318 -43V38H402C435 38 448 58 448 85V113C448 140 435 159 402 159H318V298H402C435 298 448 317 448 344V372C448 399 435 419 402 419H318V500C318 527 305 547 271 547H211C178 547 164 527 164 500V419H81C48 419 34 399 34 372V344C34 317 48 298 81 298H164V159H81C48 159 34 140 34 113Z" glyph-name="daggerdbl.sc" horiz-adv-x="482" /><glyph d="M41 180C41 47 113 -8 205 -8C279 -8 326 17 371 53L413 86V47C413 20 426 0 459 0H538C571 0 585 20 585 47V703C585 730 571 750 538 750H459C426 750 413 730 413 703V547H348C190 547 41 438 41 266ZM389 187C364 165 316 126 276 126C240 126 213 142 213 205V269C213 359 277 418 365 418H413V208ZM663 723 642 627C641 619 639 613 639 610C639 600 646 593 661 593H700C717 593 727 602 737 619L783 695C789 705 792 712 792 720V725C792 741 783 750 767 750H695C675 750 667 739 663 723Z" glyph-name="dcaron" horiz-adv-x="653" unicode="&#271;" /><glyph d="M68 47C68 20 82 0 115 0H327C510 0 602 101 602 243V313C602 454 503 547 323 547H115C82 547 68 527 68 500ZM240 126V421H303C384 421 430 387 430 304V252C430 167 389 126 307 126ZM316 695 266 750C238 779 220 797 190 797H157C141 797 125 790 125 776C125 770 128 760 138 750L202 672C227 643 243 625 273 625H360C391 625 406 643 431 672L496 750C505 760 509 770 509 776C509 787 498 797 477 797H442C413 797 396 778 367 750Z" glyph-name="dcaron.sc" horiz-adv-x="641" /><glyph d="M365 604H413V547H348C190 547 41 438 41 266V180C41 47 113 -8 205 -8C279 -8 326 17 371 53L413 86V47C413 20 426 0 459 0H538C571 0 585 20 585 47V604H604C631 604 645 617 645 642V653C645 678 631 692 604 692H585V703C585 730 571 750 538 750H459C426 750 413 730 413 703V692H365C337 692 324 678 324 653V642C324 617 337 604 365 604ZM389 187C364 165 316 126 276 126C240 126 213 142 213 205V269C213 359 277 418 365 418H413V208Z" glyph-name="dcroat" horiz-adv-x="653" unicode="&#273;" /><glyph d="M56 232H68V47C68 20 82 0 115 0H327C510 0 602 101 602 243V313C602 454 503 547 323 547H115C82 547 68 527 68 500V320H56C29 320 16 307 16 284V269C16 246 29 232 56 232ZM240 126V232H259C285 232 299 246 299 269V284C299 307 285 320 259 320H240V421H303C384 421 430 387 430 304V252C430 167 389 126 307 126Z" glyph-name="dcroat.sc" horiz-adv-x="641" /><glyph d="M207 437C314 437 375 509 375 598C375 687 314 758 207 758C100 758 39 687 39 598C39 509 100 437 207 437ZM207 519C157 519 132 555 132 598C132 641 157 677 207 677C257 677 282 641 282 598C282 555 257 519 207 519Z" glyph-name="degree" horiz-adv-x="414" unicode="&#176;" /><glyph d="M193 259C291 259 348 323 348 406C348 489 291 554 193 554C96 554 39 489 39 406C39 323 96 259 193 259ZM193 338C152 338 129 366 129 406C129 446 152 476 193 476C234 476 258 446 258 406C258 366 234 338 193 338Z" glyph-name="degree.sc" horiz-adv-x="387" /><glyph d="M426 625H468C500 625 514 645 514 672V692C514 720 500 739 468 739H426C394 739 380 720 380 692V672C380 645 394 625 426 625ZM164 625H205C238 625 252 645 252 672V692C252 720 238 739 205 739H164C131 739 117 720 117 692V672C117 645 131 625 164 625Z" glyph-name="dieresis" horiz-adv-x="632" unicode="&#168;" /><glyph d="M340 489C372 489 386 508 386 535V592C386 619 372 638 340 638H285C253 638 239 619 239 592V535C239 508 253 489 285 489ZM120 295H505C538 295 552 314 552 342V393C552 420 538 439 505 439H120C87 439 73 420 73 393V342C73 314 87 295 120 295ZM239 143C239 116 253 97 285 97H340C372 97 386 116 386 143V199C386 227 372 245 340 245H285C253 245 239 227 239 199Z" glyph-name="divide" horiz-adv-x="625" unicode="&#247;" /><glyph d="M299 397C332 397 346 417 346 444V470C346 497 332 517 299 517H256C223 517 209 497 209 470V444C209 417 223 397 256 397ZM98 207H457C490 207 504 226 504 253V294C504 321 490 340 457 340H98C64 340 51 321 51 294V253C51 226 64 207 98 207ZM209 77C209 50 223 30 256 30H299C332 30 346 50 346 77V103C346 130 332 149 299 149H256C223 149 209 130 209 103Z" glyph-name="divide.sc" horiz-adv-x="555" /><glyph d="M52 63C52 34 68 18 98 12C142 3 189 -5 246 -8V-78C246 -105 260 -125 293 -125H316C349 -125 362 -105 362 -78V-2C491 17 578 84 578 221C578 351 506 411 408 437L308 466C268 477 229 495 229 547C229 605 277 623 340 623H360C406 623 460 614 499 606C504 605 507 605 510 605C531 605 545 628 545 654V689C545 719 527 734 498 740C465 747 445 751 393 755V820C393 848 379 867 346 867H322C290 867 276 848 276 820V754C152 738 55 674 55 539C55 416 133 356 213 333L314 303C370 287 404 271 404 216C404 147 351 127 283 127H257C204 127 145 139 98 148C93 149 91 149 88 149C65 149 52 128 52 102Z" glyph-name="dollar" horiz-adv-x="625" unicode="$" /><glyph d="M378 820C378 848 364 867 331 867H308C275 867 262 848 262 820V754C138 738 39 674 39 539C39 416 118 356 198 333L300 303C355 287 390 271 390 216C390 147 336 127 269 127H242C189 127 130 139 83 148C78 149 76 149 73 149C51 149 37 128 37 102V63C37 34 54 18 83 12C127 3 175 -5 231 -8V-78C231 -105 245 -125 278 -125H302C334 -125 348 -105 348 -78V-2C477 17 563 84 563 221C563 351 491 411 394 437L293 466C253 477 214 495 214 547C214 605 263 623 324 623H346C392 623 445 614 484 606C489 605 492 605 495 605C517 605 530 628 530 654V689C530 719 513 734 483 740C450 747 431 751 378 755Z" glyph-name="dollar.PPF" horiz-adv-x="600" /><glyph d="M262 326C296 326 324 324 343 321C357 320 370 318 374 318C394 318 405 330 405 350V383C405 406 395 417 365 422C350 424 332 426 301 428V456C301 479 287 492 261 492H245C219 492 205 479 205 456V427C113 417 38 379 38 291C38 222 87 187 159 174L227 160C266 153 283 149 283 129C283 104 229 96 194 96C160 96 129 99 112 102C98 103 79 106 70 106C51 106 39 96 39 75V37C39 15 52 3 76 0C98 -3 130 -7 181 -8V-34C181 -57 194 -70 221 -70H236C263 -70 276 -57 276 -34V-3C360 9 431 45 431 135C431 213 372 240 305 254L238 267C199 274 181 276 181 296C181 320 227 326 262 326Z" glyph-name="dollar.denominator" horiz-adv-x="456" /><glyph d="M262 170C296 170 324 168 343 165C357 164 370 162 374 162C394 162 405 174 405 193V227C405 250 395 261 365 266C350 268 332 270 301 271V300C301 322 287 336 261 336H245C219 336 205 322 205 300V271C113 261 38 223 38 135C38 65 87 31 159 18L227 4C266 -3 283 -7 283 -27C283 -53 229 -61 194 -61C160 -61 129 -58 112 -55C98 -54 79 -50 70 -50C51 -50 39 -61 39 -81V-119C39 -142 52 -153 76 -156C98 -159 130 -163 181 -164V-190C181 -213 194 -227 221 -227H236C263 -227 276 -213 276 -190V-159C360 -147 431 -111 431 -21C431 57 372 84 305 98L238 110C199 118 181 120 181 140C181 164 227 170 262 170Z" glyph-name="dollar.inferior" horiz-adv-x="456" /><glyph d="M262 654C296 654 324 652 343 649C357 648 370 646 374 646C394 646 405 658 405 678V711C405 734 395 745 365 750C350 752 332 754 301 756V784C301 807 287 820 261 820H245C219 820 205 807 205 784V755C113 745 38 707 38 619C38 550 87 516 159 502L227 488C266 481 283 478 283 457C283 432 229 424 194 424C160 424 129 427 112 430C98 431 79 435 70 435C51 435 39 424 39 403V365C39 343 52 331 76 328C98 325 130 321 181 320V294C181 271 194 258 221 258H236C263 258 276 271 276 294V325C360 337 431 373 431 463C431 541 372 568 305 582L238 595C199 603 181 604 181 624C181 648 227 654 262 654Z" glyph-name="dollar.numerator" horiz-adv-x="456" /><glyph d="M46 53C46 21 68 7 92 3C121 -2 178 -7 217 -8V-43C217 -70 230 -90 263 -90H282C315 -90 329 -70 329 -43V-1C437 13 517 63 517 176C517 271 450 305 370 322L288 341C239 352 216 355 216 385C216 420 269 426 311 426H322C360 426 405 421 437 416C443 415 446 414 451 414C472 414 486 434 486 463V487C486 520 470 535 445 541C423 545 389 550 357 552V586C357 613 344 633 311 633H293C260 633 246 613 246 586V550C136 538 49 487 49 377C49 291 106 248 195 229L277 210C325 199 347 193 347 164C347 128 292 121 247 121H232C185 121 120 130 93 135C88 136 85 136 83 136C57 136 46 109 46 88Z" glyph-name="dollar.sc" horiz-adv-x="555" /><glyph d="M338 586C338 613 324 633 292 633H273C241 633 228 613 228 586V551C121 538 35 488 35 378C35 295 90 247 175 229L254 212C297 202 319 193 319 166C319 131 269 121 220 121C168 121 113 128 83 134C78 135 76 135 73 135C48 135 37 107 37 86V52C37 21 58 6 82 2C114 -4 157 -7 195 -8V-43C195 -70 208 -90 241 -90H259C292 -90 306 -70 306 -43V-2C405 12 489 59 489 174C489 271 424 311 342 326L265 342C220 352 202 356 202 383C202 418 252 426 297 426C336 426 375 423 410 417C416 416 419 415 424 415C444 415 459 435 459 465V490C459 522 442 539 417 544C393 548 364 551 338 553Z" glyph-name="dollar.scppf" horiz-adv-x="520" /><glyph d="M262 811C296 811 324 809 343 806C357 805 370 803 374 803C394 803 405 814 405 834V867C405 891 395 901 365 906C350 908 332 910 301 912V940C301 963 287 977 261 977H245C219 977 205 963 205 940V911C113 901 38 863 38 775C38 706 87 672 159 658L227 645C266 638 283 634 283 613C283 588 229 580 194 580C160 580 129 583 112 586C98 587 79 591 70 591C51 591 39 580 39 560V521C39 499 52 487 76 484C98 481 130 478 181 477V450C181 428 194 414 221 414H236C263 414 276 428 276 450V481C360 493 431 529 431 619C431 697 372 725 305 738L238 751C199 759 181 761 181 780C181 805 227 811 262 811Z" glyph-name="dollar.superior" horiz-adv-x="456" /><glyph d="M286 620H345C378 620 392 640 392 666V692C392 720 378 739 345 739H286C254 739 240 720 240 692V666C240 640 254 620 286 620Z" glyph-name="dotaccent" horiz-adv-x="632" unicode="&#729;" /><glyph d="M84 47C84 20 98 0 131 0H210C242 0 256 20 256 47V500C256 527 242 547 210 547H52C20 547 6 527 6 500V465C6 437 20 418 52 418H84Z" glyph-name="dotlessi" horiz-adv-x="324" unicode="&#305;" /><glyph d="M68 47C68 20 82 0 115 0H194C227 0 240 20 240 47V500C240 527 227 547 194 547H115C82 547 68 527 68 500Z" glyph-name="dotlessi.sc" horiz-adv-x="309" /><glyph d="M107 50C107 -28 76 -59 16 -59H12C-14 -59 -29 -78 -29 -105V-141C-29 -168 -16 -188 17 -188H59C199 -188 279 -107 279 42V500C279 527 266 547 232 547H55C21 547 8 527 8 500V465C8 437 21 418 55 418H107Z" glyph-name="dotlessj" horiz-adv-x="348" unicode="&#63166;" /><glyph d="M41 216C41 55 163 -8 315 -8C375 -8 434 2 478 12C505 19 518 40 518 67V108C518 130 506 146 485 146C482 146 479 146 473 144C426 135 377 126 326 126C271 126 213 149 213 211V227H382C499 227 569 271 569 383C569 511 458 555 331 555C173 555 41 484 41 320ZM213 315C213 390 255 421 323 421C368 421 407 406 407 363C407 326 387 308 338 308H213Z" glyph-name="e" horiz-adv-x="607" unicode="e" /><glyph d="M35 165C35 41 139 -8 271 -8C323 -8 371 0 409 8C431 13 445 27 445 51V86C445 104 433 113 417 113C414 113 411 113 405 112C382 107 332 101 280 101C233 101 185 116 185 160V175H329C429 175 490 209 490 297C490 396 392 430 283 430C146 430 35 372 35 246ZM185 246C185 299 221 324 277 324C316 324 350 312 350 282C350 253 333 238 292 238H185Z" glyph-name="e.denominator" horiz-adv-x="522" /><glyph d="M35 9C35 -115 139 -164 271 -164C323 -164 371 -156 409 -148C431 -144 445 -129 445 -105V-70C445 -52 433 -43 417 -43C414 -43 411 -43 405 -44C382 -49 332 -56 280 -56C233 -56 185 -40 185 4V19H329C429 19 490 53 490 141C490 239 392 273 283 273C146 273 35 216 35 90ZM185 90C185 143 221 168 277 168C316 168 350 156 350 126C350 97 333 82 292 82H185Z" glyph-name="e.inferior" horiz-adv-x="522" /><glyph d="M271 320C323 320 371 328 409 336C431 341 445 355 445 379V414C445 433 433 441 417 441C414 441 411 441 405 440C382 436 332 429 280 429C233 429 185 444 185 488V503H329C429 503 490 537 490 625C490 724 392 758 283 758C146 758 35 700 35 574V493C35 369 139 320 271 320ZM185 574C185 627 221 652 277 652C316 652 350 641 350 610C350 581 333 566 292 566H185Z" glyph-name="e.numerator" horiz-adv-x="522" /><glyph d="M67 148C67 56 115 0 216 0H462C495 0 509 20 509 47V74C509 102 495 121 462 121H299C252 121 239 132 239 176V224H426C459 224 473 243 473 271V289C473 315 459 335 426 335H239V426H457C490 426 504 445 504 473V500C504 527 490 547 457 547H113C81 547 67 527 67 500Z" glyph-name="e.sc" horiz-adv-x="559" /><glyph d="M271 477C323 477 371 484 409 492C431 497 445 512 445 535V570C445 589 433 598 417 598C414 598 411 598 405 597C382 592 332 585 280 585C233 585 185 601 185 645V659H329C429 659 490 693 490 781C490 880 392 914 283 914C146 914 35 856 35 730V649C35 525 139 477 271 477ZM185 730C185 783 221 809 277 809C316 809 350 797 350 767C350 737 333 723 292 723H185Z" glyph-name="e.superior" horiz-adv-x="522" /><glyph d="M41 216C41 55 163 -8 315 -8C375 -8 434 2 478 12C505 19 518 40 518 67V108C518 130 506 146 485 146C482 146 479 146 473 144C426 135 377 126 326 126C271 126 213 149 213 211V227H382C499 227 569 271 569 383C569 511 458 555 331 555C173 555 41 484 41 320ZM299 625C325 625 346 644 373 666L452 737C464 747 470 755 470 763C470 774 462 781 438 781H351C321 781 307 766 288 740L236 666C230 657 228 650 228 646C228 634 236 625 257 625ZM213 315C213 390 255 421 323 421C368 421 407 406 407 363C407 326 387 308 338 308H213Z" glyph-name="eacute" horiz-adv-x="607" unicode="&#233;" /><glyph d="M67 148C67 56 115 0 216 0H462C495 0 509 20 509 47V74C509 102 495 121 462 121H299C252 121 239 132 239 176V224H426C459 224 473 243 473 271V289C473 315 459 335 426 335H239V426H457C490 426 504 445 504 473V500C504 527 490 547 457 547H113C81 547 67 527 67 500ZM277 625C303 625 324 644 351 666L430 737C442 747 448 755 448 763C448 774 440 781 416 781H329C299 781 285 766 266 740L214 666C208 657 206 650 206 646C206 634 214 625 235 625Z" glyph-name="eacute.sc" horiz-adv-x="559" /><glyph d="M41 216C41 55 163 -8 315 -8C375 -8 434 2 478 12C505 19 518 40 518 67V108C518 130 506 146 485 146C482 146 479 146 473 144C426 135 377 126 326 126C271 126 213 149 213 211V227H382C499 227 569 271 569 383C569 511 458 555 331 555C173 555 41 484 41 320ZM311 614C415 614 478 674 484 769C485 788 468 791 458 791H448C432 791 424 783 417 764C403 729 371 708 311 708C253 708 220 729 207 764C199 783 192 791 176 791H165C156 791 138 788 140 769C144 674 209 614 311 614ZM213 315C213 390 255 421 323 421C368 421 407 406 407 363C407 326 387 308 338 308H213Z" glyph-name="ebreve" horiz-adv-x="607" unicode="&#277;" /><glyph d="M67 148C67 56 115 0 216 0H462C495 0 509 20 509 47V74C509 102 495 121 462 121H299C252 121 239 132 239 176V224H426C459 224 473 243 473 271V289C473 315 459 335 426 335H239V426H457C490 426 504 445 504 473V500C504 527 490 547 457 547H113C81 547 67 527 67 500ZM289 614C393 614 456 674 462 769C463 788 446 791 436 791H426C410 791 402 783 395 764C381 729 349 708 289 708C231 708 198 729 185 764C177 783 170 791 154 791H143C134 791 116 788 118 769C122 674 187 614 289 614Z" glyph-name="ebreve.sc" horiz-adv-x="559" /><glyph d="M41 216C41 55 163 -8 315 -8C375 -8 434 2 478 12C505 19 518 40 518 67V108C518 130 506 146 485 146C482 146 479 146 473 144C426 135 377 126 326 126C271 126 213 149 213 211V227H382C499 227 569 271 569 383C569 511 458 555 331 555C173 555 41 484 41 320ZM311 695 261 750C233 779 215 797 185 797H152C136 797 120 790 120 776C120 770 123 760 133 750L197 672C222 643 238 625 268 625H355C386 625 401 643 426 672L491 750C500 760 504 770 504 776C504 787 493 797 472 797H437C408 797 391 778 362 750ZM213 315C213 390 255 421 323 421C368 421 407 406 407 363C407 326 387 308 338 308H213Z" glyph-name="ecaron" horiz-adv-x="607" unicode="&#283;" /><glyph d="M67 148C67 56 115 0 216 0H462C495 0 509 20 509 47V74C509 102 495 121 462 121H299C252 121 239 132 239 176V224H426C459 224 473 243 473 271V289C473 315 459 335 426 335H239V426H457C490 426 504 445 504 473V500C504 527 490 547 457 547H113C81 547 67 527 67 500ZM289 695 239 750C211 779 193 797 163 797H130C114 797 98 790 98 776C98 770 101 760 111 750L175 672C200 643 216 625 246 625H333C364 625 379 643 404 672L469 750C478 760 482 770 482 776C482 787 471 797 450 797H415C386 797 369 778 340 750Z" glyph-name="ecaron.sc" horiz-adv-x="559" /><glyph d="M41 216C41 55 163 -8 315 -8C375 -8 434 2 478 12C505 19 518 40 518 67V108C518 130 506 146 485 146C482 146 479 146 473 144C426 135 377 126 326 126C271 126 213 149 213 211V227H382C499 227 569 271 569 383C569 511 458 555 331 555C173 555 41 484 41 320ZM311 726 362 672C391 644 408 625 437 625H472C493 625 504 635 504 645C504 651 500 662 491 672L426 750C401 778 386 797 355 797H268C238 797 222 778 197 750L133 672C123 662 120 651 120 645C120 632 136 625 152 625H185C215 625 233 643 261 672ZM213 315C213 390 255 421 323 421C368 421 407 406 407 363C407 326 387 308 338 308H213Z" glyph-name="ecircumflex" horiz-adv-x="607" unicode="&#234;" /><glyph d="M67 148C67 56 115 0 216 0H462C495 0 509 20 509 47V74C509 102 495 121 462 121H299C252 121 239 132 239 176V224H426C459 224 473 243 473 271V289C473 315 459 335 426 335H239V426H457C490 426 504 445 504 473V500C504 527 490 547 457 547H113C81 547 67 527 67 500ZM289 726 340 672C369 644 386 625 415 625H450C471 625 482 635 482 645C482 651 478 662 469 672L404 750C379 778 364 797 333 797H246C216 797 200 778 175 750L111 672C101 662 98 651 98 645C98 632 114 625 130 625H163C193 625 211 643 239 672Z" glyph-name="ecircumflex.sc" horiz-adv-x="559" /><glyph d="M41 216C41 55 163 -8 315 -8C375 -8 434 2 478 12C505 19 518 40 518 67V108C518 130 506 146 485 146C482 146 479 146 473 144C426 135 377 126 326 126C271 126 213 149 213 211V227H382C499 227 569 271 569 383C569 511 458 555 331 555C173 555 41 484 41 320ZM213 315C213 390 255 421 323 421C368 421 407 406 407 363C407 326 387 308 338 308H213ZM160 625H201C234 625 248 645 248 672V692C248 720 234 739 201 739H160C127 739 113 720 113 692V672C113 645 127 625 160 625ZM422 625H464C496 625 510 645 510 672V692C510 720 496 739 464 739H422C390 739 376 720 376 692V672C376 645 390 625 422 625Z" glyph-name="edieresis" horiz-adv-x="607" unicode="&#235;" /><glyph d="M67 148C67 56 115 0 216 0H462C495 0 509 20 509 47V74C509 102 495 121 462 121H299C252 121 239 132 239 176V224H426C459 224 473 243 473 271V289C473 315 459 335 426 335H239V426H457C490 426 504 445 504 473V500C504 527 490 547 457 547H113C81 547 67 527 67 500ZM400 625H442C474 625 488 645 488 672V692C488 720 474 739 442 739H400C368 739 354 720 354 692V672C354 645 368 625 400 625ZM138 625H179C212 625 226 645 226 672V692C226 720 212 739 179 739H138C105 739 91 720 91 692V672C91 645 105 625 138 625Z" glyph-name="edieresis.sc" horiz-adv-x="559" /><glyph d="M41 216C41 55 163 -8 315 -8C375 -8 434 2 478 12C505 19 518 40 518 67V108C518 130 506 146 485 146C482 146 479 146 473 144C426 135 377 126 326 126C271 126 213 149 213 211V227H382C499 227 569 271 569 383C569 511 458 555 331 555C173 555 41 484 41 320ZM213 315C213 390 255 421 323 421C368 421 407 406 407 363C407 326 387 308 338 308H213ZM282 620H341C374 620 388 640 388 666V692C388 720 374 739 341 739H282C250 739 236 720 236 692V666C236 640 250 620 282 620Z" glyph-name="edotaccent" horiz-adv-x="607" unicode="&#279;" /><glyph d="M67 148C67 56 115 0 216 0H462C495 0 509 20 509 47V74C509 102 495 121 462 121H299C252 121 239 132 239 176V224H426C459 224 473 243 473 271V289C473 315 459 335 426 335H239V426H457C490 426 504 445 504 473V500C504 527 490 547 457 547H113C81 547 67 527 67 500ZM260 620H319C352 620 366 640 366 666V692C366 720 352 739 319 739H260C228 739 214 720 214 692V666C214 640 228 620 260 620Z" glyph-name="edotaccent.sc" horiz-adv-x="559" /><glyph d="M41 216C41 55 163 -8 315 -8C375 -8 434 2 478 12C505 19 518 40 518 67V108C518 130 506 146 485 146C482 146 479 146 473 144C426 135 377 126 326 126C271 126 213 149 213 211V227H382C499 227 569 271 569 383C569 511 458 555 331 555C173 555 41 484 41 320ZM173 737 252 666C279 644 300 625 326 625H367C388 625 396 634 396 646C396 650 394 657 388 666L336 740C318 766 303 781 273 781H186C163 781 155 774 155 763C155 755 161 747 173 737ZM213 315C213 390 255 421 323 421C368 421 407 406 407 363C407 326 387 308 338 308H213Z" glyph-name="egrave" horiz-adv-x="607" unicode="&#232;" /><glyph d="M67 148C67 56 115 0 216 0H462C495 0 509 20 509 47V74C509 102 495 121 462 121H299C252 121 239 132 239 176V224H426C459 224 473 243 473 271V289C473 315 459 335 426 335H239V426H457C490 426 504 445 504 473V500C504 527 490 547 457 547H113C81 547 67 527 67 500ZM151 737 230 666C257 644 278 625 304 625H345C366 625 374 634 374 646C374 650 372 657 366 666L314 740C296 766 281 781 251 781H164C141 781 133 774 133 763C133 755 139 747 151 737Z" glyph-name="egrave.sc" horiz-adv-x="559" /><glyph d="M40 208C40 50 144 -8 300 -8H325C466 -8 585 61 585 208C585 288 555 348 468 394L488 410C532 446 569 502 569 564C569 716 469 758 320 758H305C178 758 56 711 56 562C56 488 86 428 162 387L134 367C79 328 40 281 40 208ZM342 312C391 292 415 266 415 213C415 154 378 126 323 126H302C247 126 210 150 210 213C210 263 230 293 258 317L280 337ZM220 554C220 608 257 627 302 627H325C371 627 407 608 407 554C407 512 391 488 362 458L350 445L283 473C242 488 220 509 220 554Z" glyph-name="eight" horiz-adv-x="625" unicode="8" /><glyph d="M34 208C34 50 139 -8 294 -8H320C460 -8 579 61 579 208C579 288 550 348 463 394L483 410C526 446 563 502 563 564C563 716 463 758 315 758H299C172 758 50 711 50 562C50 488 80 428 156 387L128 367C74 328 34 281 34 208ZM337 312C385 292 410 266 410 213C410 154 373 126 317 126H297C241 126 204 150 204 213C204 263 225 293 252 317L274 337ZM215 554C215 608 251 627 297 627H320C365 627 402 608 402 554C402 512 385 488 356 458L344 445L277 473C236 488 215 509 215 554Z" glyph-name="eight.PPF" horiz-adv-x="614" /><glyph d="M40 208C40 50 144 -8 300 -8H325C466 -8 585 61 585 208C585 288 555 348 468 394L488 410C532 446 569 502 569 564C569 716 469 758 320 758H305C178 758 56 711 56 562C56 488 86 428 162 387L134 367C79 328 40 281 40 208ZM342 312C391 292 417 266 417 213C417 154 378 125 323 125H302C247 125 208 150 208 213C208 263 229 293 256 317L278 338ZM219 554C219 608 257 627 302 627H325C371 627 409 608 409 554C409 512 393 488 363 458L351 444L283 473C242 488 219 509 219 554Z" glyph-name="eight.TOSF" horiz-adv-x="625" /><glyph d="M21 114C21 24 99 -8 218 -8H235C343 -8 435 31 435 116C435 160 415 197 354 223C354 224 365 229 366 230C397 249 422 283 422 319C422 405 345 430 231 430H222C124 430 31 402 31 315C31 272 51 239 103 217L87 209C47 187 21 159 21 114ZM209 274C187 280 173 290 173 312C173 337 193 346 220 346H234C260 346 282 337 282 312C282 292 272 281 256 267L248 261ZM163 120C163 144 175 159 189 171L204 181L243 168C272 158 288 146 288 120C288 93 266 80 231 80H220C186 80 163 91 163 120Z" glyph-name="eight.denominator" horiz-adv-x="456" /><glyph d="M21 442C21 353 99 320 218 320H235C343 320 435 359 435 444C435 488 415 525 354 551C354 552 365 558 366 559C397 577 422 611 422 647C422 733 345 758 231 758H222C124 758 31 730 31 644C31 601 51 567 103 545L87 537C47 516 21 487 21 442ZM209 603C187 608 173 618 173 640C173 665 193 674 220 674H234C260 674 282 665 282 640C282 620 272 609 256 595L248 589ZM163 448C163 472 175 487 189 499L204 509L243 496C272 486 288 474 288 448C288 421 266 408 231 408H220C186 408 163 419 163 448Z" glyph-name="eight.numerator" horiz-adv-x="456" /><glyph d="M34 208C34 50 139 -8 294 -8H320C460 -8 579 61 579 208C579 288 550 348 463 394L483 410C526 446 563 502 563 564C563 716 463 758 315 758H299C172 758 50 711 50 562C50 488 80 428 156 387L128 367C74 328 34 281 34 208ZM337 312C385 292 411 266 411 213C411 154 373 125 317 125H297C241 125 203 150 203 213C203 263 224 293 250 317L273 338ZM213 554C213 608 251 627 297 627H320C365 627 403 608 403 554C403 512 387 488 358 458L346 444L277 473C236 488 213 509 213 554Z" glyph-name="eight.oldstyle" horiz-adv-x="614" /><glyph d="M25 141C25 38 124 -8 269 -8H290C420 -8 529 44 529 158C529 207 505 255 434 290L441 294C481 316 515 354 515 415C515 521 418 555 285 555H273C147 555 41 518 41 402C41 349 64 305 127 275L114 269C62 240 25 204 25 141ZM299 218C341 204 362 190 362 157C362 122 331 106 288 106H267C225 106 192 120 192 157C192 187 211 205 234 224L247 234ZM203 397C203 433 234 442 271 442H290C328 442 358 434 358 397C358 373 344 356 322 340L313 332L256 350C222 360 203 373 203 397Z" glyph-name="eight.sc" horiz-adv-x="555" /><glyph d="M30 141C30 38 129 -8 273 -8H295C425 -8 534 44 534 158C534 207 510 255 439 290L446 294C486 316 520 354 520 415C520 521 423 555 290 555H278C152 555 46 518 46 402C46 349 69 305 131 275L119 269C67 240 30 204 30 141ZM304 218C346 204 367 190 367 157C367 122 336 106 293 106H271C229 106 197 120 197 157C197 187 216 205 238 224L251 234ZM208 397C208 433 239 442 275 442H295C332 442 363 434 363 397C363 373 349 356 327 340L318 332L261 350C227 360 208 373 208 397Z" glyph-name="eight.scppf" horiz-adv-x="564" /><glyph d="M688 47C688 20 702 0 734 0H810C842 0 855 20 855 47V112C855 140 842 159 810 159H734C702 159 688 140 688 112ZM380 47C380 20 394 0 427 0H501C534 0 548 20 548 47V112C548 140 534 159 501 159H427C394 159 380 140 380 112ZM70 47C70 20 84 0 116 0H191C224 0 237 20 237 47V112C237 140 224 159 191 159H116C84 159 70 140 70 112Z" glyph-name="ellipsis" horiz-adv-x="927" unicode="&#8230;" /><glyph d="M41 216C41 55 163 -8 315 -8C375 -8 434 2 478 12C505 19 518 40 518 67V108C518 130 506 146 485 146C482 146 479 146 473 144C426 135 377 126 326 126C271 126 213 149 213 211V227H382C499 227 569 271 569 383C569 511 458 555 331 555C173 555 41 484 41 320ZM192 625H432C462 625 475 643 475 668V685C475 711 462 729 432 729H192C162 729 148 711 148 685V668C148 643 162 625 192 625ZM213 315C213 390 255 421 323 421C368 421 407 406 407 363C407 326 387 308 338 308H213Z" glyph-name="emacron" horiz-adv-x="607" unicode="&#275;" /><glyph d="M67 148C67 56 115 0 216 0H462C495 0 509 20 509 47V74C509 102 495 121 462 121H299C252 121 239 132 239 176V224H426C459 224 473 243 473 271V289C473 315 459 335 426 335H239V426H457C490 426 504 445 504 473V500C504 527 490 547 457 547H113C81 547 67 527 67 500ZM170 625H410C440 625 453 643 453 668V685C453 711 440 729 410 729H170C140 729 126 711 126 685V668C126 643 140 625 170 625Z" glyph-name="emacron.sc" horiz-adv-x="559" /><glyph d="M78 228H922C955 228 969 247 969 273V320C969 347 955 366 922 366H78C45 366 31 347 31 320V273C31 247 45 228 78 228Z" glyph-name="emdash" horiz-adv-x="1000" unicode="&#8212;" /><glyph d="M78 313H922C955 313 969 333 969 359V406C969 433 955 452 922 452H78C45 452 31 433 31 406V359C31 333 45 313 78 313Z" glyph-name="emdash.cap" horiz-adv-x="1000" /><glyph d="M78 216H922C955 216 969 235 969 262V309C969 335 955 354 922 354H78C45 354 31 335 31 309V262C31 235 45 216 78 216Z" glyph-name="emdash.sc" horiz-adv-x="1000" /><glyph d="M78 228H422C455 228 469 247 469 273V320C469 347 455 366 422 366H78C45 366 31 347 31 320V273C31 247 45 228 78 228Z" glyph-name="endash" horiz-adv-x="500" unicode="&#8211;" /><glyph d="M78 313H422C455 313 469 333 469 359V406C469 433 455 452 422 452H78C45 452 31 433 31 406V359C31 333 45 313 78 313Z" glyph-name="endash.cap" horiz-adv-x="500" /><glyph d="M78 216H422C455 216 469 235 469 262V309C469 335 455 354 422 354H78C45 354 31 335 31 309V262C31 235 45 216 78 216Z" glyph-name="endash.sc" horiz-adv-x="500" /><glyph d="M68 47C68 20 82 0 115 0H194C227 0 240 20 240 47V334L264 357C292 386 326 421 367 421C398 421 428 404 428 342V47C428 -35 395 -59 347 -59H344C322 -59 307 -79 307 -105V-141C307 -168 319 -188 351 -188H382C518 -188 600 -107 600 39V375C600 510 530 555 434 555C354 555 309 524 270 481L240 451V500C240 527 227 547 194 547H115C82 547 68 527 68 500Z" glyph-name="eng" horiz-adv-x="666" unicode="&#331;" /><glyph d="M311 -146C311 -173 324 -192 357 -192H403C533 -192 601 -129 601 -11V500C601 527 587 547 555 547H476C442 547 429 527 429 500V255L238 516C224 537 211 547 180 547H115C82 547 68 527 68 500V47C68 20 82 0 115 0H194C227 0 240 20 240 47V292L429 31V10C429 -38 412 -63 367 -63H352C327 -63 311 -83 311 -110Z" glyph-name="eng.sc" horiz-adv-x="669" /><glyph d="M41 216C41 55 163 -8 315 -8C375 -8 434 2 478 12C505 19 518 40 518 67V108C518 130 506 146 485 146C482 146 479 146 473 144C426 135 377 126 326 126C271 126 213 149 213 211V227H382C499 227 569 271 569 383C569 511 458 555 331 555C173 555 41 484 41 320ZM207 -106C207 -165 258 -188 316 -188H394C413 -188 423 -177 423 -159V-146C423 -128 413 -117 394 -117H358C327 -117 304 -113 304 -89C304 -68 331 -52 351 -43V-31H269C234 -47 207 -75 207 -106ZM213 315C213 390 255 421 323 421C368 421 407 406 407 363C407 326 387 308 338 308H213Z" glyph-name="eogonek" horiz-adv-x="607" unicode="&#281;" /><glyph d="M67 148C67 56 115 0 216 0H462C495 0 509 20 509 47V74C509 102 495 121 462 121H299C252 121 239 132 239 176V224H426C459 224 473 243 473 271V289C473 315 459 335 426 335H239V426H457C490 426 504 445 504 473V500C504 527 490 547 457 547H113C81 547 67 527 67 500ZM290 -106C290 -165 341 -188 399 -188H477C496 -188 506 -177 506 -159V-146C506 -128 496 -117 477 -117H441C410 -117 387 -113 387 -89C387 -68 414 -52 434 -43V-31H352C317 -47 290 -75 290 -106Z" glyph-name="eogonek.sc" horiz-adv-x="559" /><glyph d="M120 412H505C538 412 552 432 552 459V510C552 537 538 556 505 556H120C87 556 73 537 73 510V459C73 432 87 412 120 412ZM120 179H505C538 179 552 197 552 225V275C552 303 538 322 505 322H120C87 322 73 303 73 275V225C73 197 87 179 120 179Z" glyph-name="equal" horiz-adv-x="625" unicode="=" /><glyph d="M369 246C396 246 409 260 409 282V312C409 335 396 348 369 348H87C61 348 47 335 47 312V282C47 260 61 246 87 246ZM369 75C396 75 409 89 409 111V141C409 163 396 177 369 177H87C61 177 47 163 47 141V111C47 89 61 75 87 75Z" glyph-name="equal.denominator" horiz-adv-x="456" /><glyph d="M369 90C396 90 409 104 409 126V156C409 179 396 191 369 191H87C61 191 47 179 47 156V126C47 104 61 90 87 90ZM369 -81C396 -81 409 -67 409 -45V-16C409 7 396 21 369 21H87C61 21 47 7 47 -16V-45C47 -67 61 -81 87 -81Z" glyph-name="equal.inferior" horiz-adv-x="456" /><glyph d="M369 574C396 574 409 588 409 610V641C409 663 396 676 369 676H87C61 676 47 663 47 641V610C47 588 61 574 87 574ZM369 403C396 403 409 417 409 439V469C409 491 396 505 369 505H87C61 505 47 491 47 469V439C47 417 61 403 87 403Z" glyph-name="equal.numerator" horiz-adv-x="456" /><glyph d="M98 316H457C490 316 504 336 504 362V403C504 431 490 449 457 449H98C64 449 51 431 51 403V362C51 336 64 316 98 316ZM98 98H457C490 98 504 116 504 144V185C504 212 490 230 457 230H98C64 230 51 212 51 185V144C51 116 64 98 98 98Z" glyph-name="equal.sc" horiz-adv-x="555" /><glyph d="M369 730C396 730 409 744 409 767V797C409 819 396 833 369 833H87C61 833 47 819 47 797V767C47 744 61 730 87 730ZM369 560C396 560 409 573 409 596V625C409 647 396 661 369 661H87C61 661 47 647 47 625V596C47 573 61 560 87 560Z" glyph-name="equal.superior" horiz-adv-x="456" /><glyph d="M187 118C180 126 178 134 178 143V349C178 354 179 358 182 358H879C879 579 695 758 451 758C213 758 21 587 21 372C21 159 213 -8 451 -8C588 -8 714 50 789 139H732C666 60 562 24 451 24C357 24 255 53 187 118ZM182 382C179 382 178 388 178 391V603C178 608 180 619 187 627C255 692 349 726 451 726C554 726 646 692 715 627C723 619 725 608 725 603V391C725 388 724 382 720 382Z" glyph-name="estimated" horiz-adv-x="901" unicode="&#8494;" /><glyph d="M34 246C34 87 135 -8 312 -8C480 -8 587 75 587 239V459C587 541 561 609 514 658L538 676C548 684 553 691 553 699C553 705 552 710 547 716L542 723C536 730 529 734 521 734C516 734 508 731 501 727L463 699C410 732 342 750 262 750H161C129 750 115 730 115 703V665C115 638 129 618 161 618L270 619C296 619 320 614 340 606L320 591C311 583 305 575 305 567C305 562 308 556 312 551L317 544C323 535 328 531 336 531C343 531 350 534 357 540L391 565C408 541 418 508 419 467C380 487 333 497 289 497C128 497 34 407 34 246ZM312 126C249 126 203 165 203 246C203 328 246 368 314 368C351 368 389 363 419 352V250C419 174 386 126 312 126Z" glyph-name="eth" horiz-adv-x="635" unicode="&#240;" /><glyph d="M56 232H68V47C68 20 82 0 115 0H327C510 0 602 101 602 243V313C602 454 503 547 323 547H115C82 547 68 527 68 500V320H56C29 320 16 307 16 284V269C16 246 29 232 56 232ZM240 126V232H259C285 232 299 246 299 269V284C299 307 285 320 259 320H240V421H303C384 421 430 387 430 304V252C430 167 389 126 307 126Z" glyph-name="eth.sc" horiz-adv-x="641" /><glyph d="M48 226H83V195H48C30 195 23 187 23 175V161C23 147 30 141 48 141H83C85 34 185 -8 304 -8H330C359 -8 392 0 402 3C426 10 438 22 438 45V66C438 83 430 97 411 97C407 97 401 95 397 94C387 92 370 89 342 89H324C291 89 240 97 233 141H370C388 141 395 147 395 161V175C395 187 388 195 370 195H232V226H370C388 226 395 232 395 246V259C395 272 388 280 370 280H232C237 326 288 333 326 333H342C364 333 382 330 394 329C400 328 406 326 411 326C426 326 438 336 438 356V385C438 402 424 417 400 422C386 425 358 430 327 430H312C189 430 83 386 83 281V280H48C30 280 23 272 23 259V246C23 232 30 226 48 226Z" glyph-name="euro.denominator" horiz-adv-x="456" /><glyph d="M48 124C30 124 23 116 23 103V90C23 76 30 69 48 69H83V39H48C30 39 23 31 23 19V5C23 -9 30 -16 48 -16H83C85 -122 185 -164 304 -164H330C359 -164 392 -156 402 -153C426 -146 438 -134 438 -111V-90C438 -73 430 -60 411 -60C407 -60 401 -62 397 -63C387 -64 370 -67 342 -67H324C291 -67 240 -60 233 -16H370C388 -16 395 -9 395 5V19C395 31 388 39 370 39H232V69H370C388 69 395 76 395 90V103C395 116 388 124 370 124H232C237 170 288 177 326 177H342C364 177 382 174 394 173C400 172 406 170 411 170C426 170 438 180 438 200V229C438 246 424 261 400 266C386 269 358 273 327 273H312C189 273 83 229 83 125V124Z" glyph-name="euro.inferior" horiz-adv-x="456" /><glyph d="M48 554H83V523H48C30 523 23 516 23 503V489C23 476 30 469 48 469H83C85 362 185 320 304 320H330C359 320 392 328 402 331C426 338 438 351 438 373V395C438 411 430 425 411 425C407 425 401 423 397 422C387 420 370 417 342 417H324C291 417 240 425 233 469H370C388 469 395 476 395 489V503C395 516 388 523 370 523H232V554H370C388 554 395 561 395 574V587C395 601 388 608 370 608H232C236 653 287 661 326 661H342C364 661 382 658 394 657C400 656 406 654 411 654C426 654 438 664 438 685V713C438 730 424 745 400 750C386 753 358 758 327 758H312C189 758 83 714 83 609V608H48C30 608 23 601 23 587V574C23 561 30 554 48 554Z" glyph-name="euro.numerator" horiz-adv-x="456" /><glyph d="M48 765C30 765 23 757 23 743V730C23 717 30 710 48 710H83V680H48C30 680 23 672 23 659V646C23 632 30 625 48 625H83C85 519 185 477 304 477H330C359 477 392 484 402 487C426 494 438 507 438 529V551C438 567 430 581 411 581C407 581 401 579 397 578C387 576 370 573 342 573H324C291 573 240 580 233 625H370C388 625 395 632 395 646V659C395 672 388 680 370 680H232V710H370C388 710 395 717 395 730V743C395 757 388 765 370 765H232C237 810 288 817 326 817H342C364 817 382 814 394 813C400 812 406 811 411 811C426 811 438 820 438 841V869C438 887 424 901 400 906C386 909 358 914 327 914H312C189 914 83 870 83 766V765Z" glyph-name="euro.superior" horiz-adv-x="456" /><glyph d="M124 259H185C213 259 228 273 229 303L239 703C240 736 223 750 192 750H116C87 750 68 736 69 703L80 303C81 273 96 259 124 259ZM74 47C74 20 88 0 120 0H188C222 0 235 20 235 47V108C235 136 222 155 188 155H120C88 155 74 136 74 108Z" glyph-name="exclam" horiz-adv-x="309" unicode="!" /><glyph d="M116 547C87 547 67 533 69 500L80 247C82 218 96 203 124 203H191C220 203 233 218 235 247L246 500C248 533 229 547 199 547ZM124 134C91 134 77 114 77 88V47C77 20 91 0 124 0H191C225 0 238 20 238 47V88C238 114 225 134 191 134Z" glyph-name="exclam.sc" horiz-adv-x="315" /><glyph d="M120 392H188C222 392 235 411 235 438V500C235 527 222 547 188 547H120C88 547 74 527 74 500V438C74 411 88 392 120 392ZM69 -156C68 -189 87 -203 116 -203H192C223 -203 240 -189 239 -156L229 244C228 273 213 288 185 288H124C96 288 81 273 80 244Z" glyph-name="exclamdown" horiz-adv-x="309" unicode="&#161;" /><glyph d="M120 597H188C222 597 235 615 235 643V703C235 730 222 750 188 750H120C88 750 74 730 74 703V643C74 615 88 597 120 597ZM69 47C68 14 87 0 116 0H192C223 0 240 14 239 47L229 447C228 477 213 491 185 491H124C96 491 81 477 80 447Z" glyph-name="exclamdown.cap" horiz-adv-x="309" /><glyph d="M199 0C229 0 248 14 246 47L235 300C233 329 220 344 191 344H124C96 344 82 329 80 300L69 47C67 14 87 0 116 0ZM191 413C225 413 238 433 238 459V500C238 527 225 547 191 547H124C91 547 77 527 77 500V459C77 433 91 413 124 413Z" glyph-name="exclamdown.sc" horiz-adv-x="315" /><glyph d="M78 47C78 20 91 0 124 0H203C236 0 250 20 250 47V418H318C352 418 365 437 365 465V500C365 527 352 547 318 547H250V561C250 616 278 629 316 629H329C362 629 375 648 375 676V703C375 730 362 750 329 750H272C156 750 78 686 78 565V547H54C21 547 7 527 7 500V465C7 437 21 418 54 418H78Z" glyph-name="f" horiz-adv-x="368" unicode="f" /><glyph d="M71 36C71 14 85 0 111 0H180C207 0 220 14 220 36V318H277C304 318 317 332 317 354V386C317 408 304 422 277 422H220V430C220 472 246 480 276 480H289C312 480 326 494 326 516V542C326 564 312 578 286 578H236C136 578 71 527 71 435V422H50C23 422 10 408 10 386V354C10 332 23 318 50 318H71Z" glyph-name="f.denominator" horiz-adv-x="310" /><glyph d="M71 -120C71 -143 85 -156 111 -156H180C207 -156 220 -143 220 -120V162H277C304 162 317 176 317 198V229C317 252 304 266 277 266H220V273C220 315 246 324 276 324H289C312 324 326 338 326 359V386C326 408 312 422 286 422H236C136 422 71 371 71 278V266H50C23 266 10 252 10 229V198C10 176 23 162 50 162H71Z" glyph-name="f.inferior" horiz-adv-x="310" /><glyph d="M111 328H180C207 328 220 342 220 364V646H277C304 646 317 660 317 683V714C317 736 304 750 277 750H220V758C220 800 246 809 276 809H289C312 809 326 822 326 844V870C326 893 312 906 286 906H236C136 906 71 855 71 763V750H50C23 750 10 736 10 714V683C10 660 23 646 50 646H71V364C71 342 85 328 111 328Z" glyph-name="f.numerator" horiz-adv-x="310" /><glyph d="M67 47C67 20 81 0 113 0H192C226 0 239 20 239 47V183H413C446 183 460 202 460 229V260C460 287 446 307 413 307H239V352C239 397 263 421 312 421H425C458 421 472 440 472 467V500C472 527 458 547 425 547H288C151 547 67 489 67 367Z" glyph-name="f.sc" horiz-adv-x="512" /><glyph d="M111 484H180C207 484 220 498 220 521V803H277C304 803 317 816 317 839V870C317 893 304 906 277 906H220V914C220 956 246 965 276 965H289C312 965 326 979 326 1000V1026C326 1049 312 1062 286 1062H236C136 1062 71 1012 71 919V906H50C23 906 10 893 10 870V839C10 816 23 803 50 803H71V521C71 498 85 484 111 484Z" glyph-name="f.superior" horiz-adv-x="310" /><glyph d="M78 47C78 20 91 0 124 0H203C236 0 250 20 250 47V418H304C336 418 350 437 350 465V500C350 527 336 547 304 547H250V561C250 618 275 629 318 629H426V47C426 20 439 0 473 0H663C820 0 970 108 970 281V367C970 500 896 555 806 555C731 555 685 530 640 494L598 461V703C598 730 584 750 552 750H272C156 750 78 686 78 565V547H54C21 547 7 527 7 500V465C7 437 21 418 54 418H78ZM598 129V339L621 360C646 382 693 421 734 421C771 421 798 405 798 342V278C798 187 733 129 646 129Z" glyph-name="f_b" horiz-adv-x="1011" /><glyph d="M946 703C946 730 933 750 899 750H621C504 750 426 686 426 565V547H250V561C250 616 273 629 312 629H326C356 629 370 648 370 676V703C370 730 356 750 324 750H272C156 750 78 686 78 565V547H54C21 547 7 527 7 500V465C7 437 21 418 54 418H78V47C78 20 91 0 124 0H203C236 0 250 20 250 47V418H426V47C426 20 439 0 473 0H552C584 0 598 20 598 47V418H651C685 418 698 437 698 465V500C698 527 685 547 651 547H598V561C598 618 624 629 669 629H774V47C774 20 788 0 820 0H1012C1169 0 1318 108 1318 281V367C1318 500 1245 555 1154 555C1079 555 1033 530 988 494L946 461ZM970 360C995 382 1042 421 1083 421C1118 421 1146 405 1146 342V278C1146 187 1082 129 993 129H946V339Z" glyph-name="f_f_b" horiz-adv-x="1359" /><glyph d="M78 418V47C78 20 91 0 124 0H203C236 0 250 20 250 47V418H426V47C426 20 439 0 473 0H552C584 0 598 20 598 47V418H667C699 418 713 437 713 465V500C713 527 699 547 667 547H598V561C598 618 624 629 669 629H774V47C774 20 788 0 820 0H899C933 0 946 20 946 47V334L970 357C998 386 1032 421 1072 421C1104 421 1134 404 1134 342V47C1134 20 1147 0 1180 0H1259C1292 0 1305 20 1305 47V370C1305 509 1236 555 1139 555C1061 555 1015 524 976 481L946 449V703C946 730 933 750 899 750H621C504 750 426 686 426 565V547H250V561C250 616 273 629 312 629H326C356 629 370 648 370 676V703C370 730 356 750 324 750H272C156 750 78 686 78 565V547H54C21 547 7 527 7 500V465C7 437 21 418 54 418Z" glyph-name="f_f_h" horiz-adv-x="1372" /><glyph d="M774 50C774 -29 743 -59 692 -59H688C663 -59 650 -79 650 -105V-141C650 -168 664 -188 697 -188H727C865 -188 946 -107 946 42V500C946 527 933 547 899 547H598V561C598 613 624 629 656 629H669C696 629 709 648 709 676V703C709 730 695 750 662 750H621C504 750 426 686 426 565V547H250V561C250 616 273 629 312 629H326C356 629 370 648 370 676V703C370 730 356 750 324 750H272C156 750 78 686 78 565V547H54C21 547 7 527 7 500V465C7 437 21 418 54 418H78V47C78 20 91 0 124 0H203C236 0 250 20 250 47V418H426V47C426 20 439 0 473 0H552C584 0 598 20 598 47V418H774ZM774 662C774 635 788 616 820 616H899C933 616 946 635 946 662V703C946 730 933 750 899 750H820C788 750 774 730 774 703Z" glyph-name="f_f_j" horiz-adv-x="1015" /><glyph d="M78 47C78 20 91 0 124 0H203C236 0 250 20 250 47V418H426V47C426 20 439 0 473 0H552C584 0 598 20 598 47V418H651C685 418 698 437 698 465V500C698 527 685 547 651 547H598V561C598 618 624 629 666 629H774V47C774 20 788 0 820 0H899C933 0 946 20 946 47V232H971L1095 57C1118 21 1137 0 1172 0H1278C1300 0 1311 7 1311 21C1311 29 1304 39 1288 62L1114 301L1279 490C1297 510 1301 517 1301 525C1301 539 1291 547 1269 547H1169C1137 547 1122 531 1091 493L971 352H946V703C946 730 933 750 899 750H621C504 750 426 686 426 565V547H250V561C250 616 273 629 312 629H326C356 629 370 648 370 676V703C370 730 356 750 324 750H272C156 750 78 686 78 565V547H54C21 547 7 527 7 500V465C7 437 21 418 54 418H78Z" glyph-name="f_f_k" horiz-adv-x="1331" /><glyph d="M78 47C78 20 91 0 124 0H203C236 0 250 20 250 47V418H426V47C426 20 439 0 473 0H552C584 0 598 20 598 47V418H774V203C774 64 850 0 982 0H1052C1084 0 1098 20 1098 47V82C1098 109 1084 129 1052 129H1041C970 129 946 155 946 233V418H1036C1068 418 1082 437 1082 465V500C1082 527 1068 547 1036 547H946V636C946 663 933 683 899 683H820C788 683 774 663 774 636V547H598V561C598 614 621 629 654 629H667C695 629 709 648 709 676V703C709 730 695 750 662 750H621C504 750 426 686 426 565V547H250V561C250 616 273 629 312 629H326C356 629 370 648 370 676V703C370 730 356 750 324 750H272C156 750 78 686 78 565V547H54C21 547 7 527 7 500V465C7 437 21 418 54 418H78Z" glyph-name="f_f_t" horiz-adv-x="1109" /><glyph d="M78 565V547H54C21 547 7 527 7 500V465C7 437 21 418 54 418H78V47C78 20 91 0 124 0H203C236 0 250 20 250 47V418H304C336 418 350 437 350 465V500C350 527 336 547 304 547H250V561C250 618 275 629 318 629H426V47C426 20 439 0 473 0H552C584 0 598 20 598 47V334L621 357C649 386 684 421 725 421C756 421 785 404 785 342V47C785 20 799 0 832 0H910C943 0 957 20 957 47V370C957 509 888 555 791 555C712 555 667 524 627 481L598 450V703C598 730 584 750 552 750H272C156 750 78 686 78 565Z" glyph-name="f_h" horiz-adv-x="1023" /><glyph d="M302 -105V-141C302 -168 315 -188 349 -188H378C518 -188 598 -107 598 42V500C598 527 584 547 552 547H250V561C250 613 271 629 308 629H321C344 629 360 648 360 676V703C360 730 347 750 313 750H272C156 750 78 686 78 565V547H54C21 547 7 527 7 500V465C7 437 21 418 54 418H78V47C78 20 91 0 124 0H203C236 0 250 20 250 47V418H426V50C426 -29 395 -59 345 -59H341C315 -59 302 -79 302 -105ZM426 703V662C426 635 439 616 473 616H552C584 616 598 635 598 662V703C598 730 584 750 552 750H473C439 750 426 730 426 703Z" glyph-name="f_j" horiz-adv-x="666" /><glyph d="M78 47C78 20 91 0 124 0H203C236 0 250 20 250 47V418H304C336 418 350 437 350 465V500C350 527 336 547 304 547H250V561C250 618 275 629 318 629H426V47C426 20 439 0 473 0H552C584 0 598 20 598 47V232H622L746 57C770 21 788 0 823 0H931C951 0 962 7 962 21C962 29 955 39 939 62L766 301L931 490C948 510 952 517 952 525C952 539 942 547 920 547H820C788 547 773 531 742 493L622 352H598V703C598 730 584 750 552 750H272C156 750 78 686 78 565V547H54C21 547 7 527 7 500V465C7 437 21 418 54 418H78Z" glyph-name="f_k" horiz-adv-x="982" /><glyph d="M78 418V47C78 20 91 0 124 0H203C236 0 250 20 250 47V418H426V203C426 64 502 0 634 0H703C736 0 750 20 750 47V82C750 109 736 129 703 129H692C621 129 598 154 598 233V418H687C721 418 734 437 734 465V500C734 527 721 547 687 547H598V636C598 663 584 683 552 683H473C439 683 426 663 426 636V547H250V561C250 613 271 629 308 629H320C347 629 360 648 360 676V703C360 730 347 750 313 750H272C156 750 78 686 78 565V547H54C21 547 7 527 7 500V465C7 437 21 418 54 418Z" glyph-name="f_t" horiz-adv-x="761" /><glyph d="M78 47C78 20 91 0 124 0H203C236 0 250 20 250 47V418H426V47C426 20 439 0 473 0H552C584 0 598 20 598 47V418H667C699 418 713 437 713 465V500C713 527 699 547 667 547H598V561C598 616 620 629 664 629H678C710 629 724 648 724 676V703C724 730 710 750 678 750H621C504 750 426 686 426 565V547H250V561C250 616 273 629 312 629H326C356 629 370 648 370 676V703C370 730 356 750 324 750H272C156 750 78 686 78 565V547H54C21 547 7 527 7 500V465C7 437 21 418 54 418H78Z" glyph-name="ff" horiz-adv-x="716" unicode="&#64256;" /><glyph d="M426 47C426 20 439 0 473 0H552C584 0 598 20 598 47V418H774V47C774 20 788 0 820 0H899C933 0 946 20 946 47V500C946 527 933 547 899 547H598V561C598 615 621 629 656 629H670C695 629 709 648 709 676V703C709 730 695 750 662 750H621C504 750 426 686 426 565V547H250V561C250 616 273 629 312 629H326C356 629 370 648 370 676V703C370 730 356 750 324 750H272C156 750 78 686 78 565V547H54C21 547 7 527 7 500V465C7 437 21 418 54 418H78V47C78 20 91 0 124 0H203C236 0 250 20 250 47V418H426ZM774 662C774 635 788 616 820 616H899C933 616 946 635 946 662V703C946 730 933 750 899 750H820C788 750 774 730 774 703Z" glyph-name="ffi" horiz-adv-x="1015" unicode="&#64259;" /><glyph d="M78 47C78 20 91 0 124 0H203C236 0 250 20 250 47V418H426V47C426 20 439 0 473 0H552C584 0 598 20 598 47V418H667C699 418 713 437 713 465V500C713 527 699 547 667 547H598V561C598 618 624 629 669 629H774V47C774 20 788 0 820 0H899C933 0 946 20 946 47V703C946 730 933 750 899 750H621C504 750 426 686 426 565V547H250V561C250 616 273 629 312 629H326C356 629 370 648 370 676V703C370 730 356 750 324 750H272C156 750 78 686 78 565V547H54C21 547 7 527 7 500V465C7 437 21 418 54 418H78Z" glyph-name="ffl" horiz-adv-x="1015" unicode="&#64260;" /><glyph d="M426 418V47C426 20 439 0 473 0H552C584 0 598 20 598 47V500C598 527 584 547 552 547H250V561C250 615 273 629 308 629H321C347 629 360 648 360 676V703C360 730 347 750 313 750H272C156 750 78 686 78 565V547H54C21 547 7 527 7 500V465C7 437 21 418 54 418H78V47C78 20 91 0 124 0H203C236 0 250 20 250 47V418ZM426 703V662C426 635 439 616 473 616H552C584 616 598 635 598 662V703C598 730 584 750 552 750H473C439 750 426 730 426 703Z" glyph-name="fi" horiz-adv-x="666" unicode="&#64257;" /><glyph d="M581 47C581 20 594 0 627 0H706C739 0 753 20 753 47V500C753 527 739 547 706 547H627C594 547 581 527 581 500ZM67 47C67 20 81 0 113 0H192C226 0 239 20 239 47V183H413C446 183 460 202 460 229V260C460 287 446 307 413 307H239V352C239 397 263 421 312 421H425C458 421 472 440 472 467V500C472 527 458 547 425 547H288C151 547 67 489 67 367Z" glyph-name="fi.sc" horiz-adv-x="821" /><glyph d="M63 47C63 20 77 0 109 0H292C464 0 569 91 569 249C569 403 477 481 310 481H235V609H492C524 609 538 629 538 656V703C538 730 524 750 492 750H125C93 750 79 730 79 703V388C79 360 93 341 125 341H271C348 341 395 324 395 246C395 174 351 141 279 141H109C77 141 63 121 63 94Z" glyph-name="five" horiz-adv-x="625" unicode="5" /><glyph d="M49 47C49 20 62 0 95 0H277C449 0 555 91 555 249C555 403 462 481 295 481H221V609H477C510 609 523 629 523 656V703C523 730 510 750 477 750H110C78 750 64 730 64 703V388C64 360 78 341 110 341H257C333 341 380 324 380 246C380 174 336 141 265 141H95C62 141 49 121 49 94Z" glyph-name="five.PPF" horiz-adv-x="598" /><glyph d="M109 -49C77 -49 63 -68 63 -95V-141C63 -168 77 -188 109 -188H292C464 -188 569 -103 569 55C569 207 477 280 310 280H235V408H492C524 408 538 428 538 454V500C538 527 524 547 492 547H125C93 547 79 527 79 500V190C79 164 93 145 125 145H287C356 145 396 123 396 52C396 -14 356 -49 287 -49Z" glyph-name="five.TOSF" horiz-adv-x="625" /><glyph d="M37 36C37 14 51 0 77 0H252C359 0 427 53 427 142C427 228 367 273 265 273H185V328H364C391 328 404 341 404 363V386C404 408 391 422 364 422H89C62 422 49 408 49 386V215C49 192 62 179 89 179H222C253 179 279 171 279 140C279 106 258 94 227 94H77C51 94 37 81 37 59Z" glyph-name="five.denominator" horiz-adv-x="456" /><glyph d="M37 364C37 342 51 328 77 328H252C359 328 427 381 427 470C427 556 367 602 265 602H185V656H364C391 656 404 669 404 691V714C404 736 391 750 364 750H89C62 750 49 736 49 714V543C49 521 62 507 89 507H222C253 507 279 499 279 468C279 435 258 422 227 422H77C51 422 37 409 37 387Z" glyph-name="five.numerator" horiz-adv-x="456" /><glyph d="M98 -49C64 -49 51 -68 51 -95V-141C51 -168 64 -188 98 -188H279C451 -188 558 -103 558 55C558 207 464 280 297 280H224V408H479C513 408 526 428 526 454V500C526 527 513 547 479 547H113C80 547 66 527 66 500V190C66 164 80 145 113 145H274C345 145 384 123 384 52C384 -14 345 -49 274 -49Z" glyph-name="five.oldstyle" horiz-adv-x="586" /><glyph d="M48 47C48 20 62 0 94 0H297C437 0 514 67 514 187C514 300 445 355 310 355H212V430H439C473 430 486 449 486 477V500C486 527 473 547 439 547H107C74 547 61 527 61 500V279C61 252 74 233 107 233H276C317 233 344 223 344 180C344 138 320 117 279 117H94C62 117 48 98 48 70Z" glyph-name="five.sc" horiz-adv-x="555" /><glyph d="M35 47C35 20 49 0 82 0H285C425 0 501 67 501 187C501 300 433 355 297 355H200V430H428C460 430 474 449 474 477V500C474 527 460 547 428 547H95C62 547 49 527 49 500V279C49 252 62 233 95 233H265C306 233 332 223 332 180C332 138 309 117 267 117H82C49 117 35 98 35 70Z" glyph-name="five.scppf" horiz-adv-x="531" /><glyph d="M78 47C78 20 91 0 124 0H203C236 0 250 20 250 47V418H304C336 418 350 437 350 465V500C350 527 336 547 304 547H250V561C250 618 275 629 318 629H426V47C426 20 439 0 473 0H552C584 0 598 20 598 47V703C598 730 584 750 552 750H272C156 750 78 686 78 565V547H54C21 547 7 527 7 500V465C7 437 21 418 54 418H78Z" glyph-name="fl" horiz-adv-x="666" unicode="&#64258;" /><glyph d="M578 148C578 57 626 0 727 0H914C947 0 961 20 961 47V82C961 109 947 129 914 129H815C769 129 750 144 750 188V500C750 527 736 547 703 547H624C592 547 578 527 578 500ZM67 47C67 20 81 0 113 0H192C226 0 239 20 239 47V183H413C446 183 460 202 460 229V260C460 287 446 307 413 307H239V352C239 397 263 421 312 421H425C458 421 472 440 472 467V500C472 527 458 547 425 547H288C151 547 67 489 67 367Z" glyph-name="fl.sc" horiz-adv-x="1001" /><glyph d="M78 -53C45 -53 31 -71 31 -99V-141C31 -168 45 -188 78 -188H128C309 -188 399 -106 399 59V317H505C538 317 552 337 552 364V406C552 434 538 453 505 453H399V493C399 577 426 615 512 615H536C569 615 583 634 583 661V703C583 730 569 750 536 750H496C312 750 225 668 225 504V453H151C118 453 104 434 104 406V364C104 337 118 317 151 317H225V69C225 -15 196 -53 112 -53Z" glyph-name="florin" horiz-adv-x="625" unicode="&#402;" /><glyph d="M21 -53C-12 -53 -24 -71 -24 -99V-141C-24 -168 -12 -188 21 -188H71C253 -188 344 -106 344 59V317H449C481 317 495 337 495 364V406C495 434 481 453 449 453H344V493C344 577 369 615 456 615H480C513 615 526 634 526 661V703C526 730 513 750 480 750H440C256 750 169 668 169 504V453H95C62 453 49 434 49 406V364C49 337 62 317 95 317H169V69C169 -15 140 -53 57 -53Z" glyph-name="florin.PPF" horiz-adv-x="540" /><glyph d="M115 203H181V55C181 -2 160 -28 96 -28H69C37 -28 23 -48 23 -75V-100C23 -126 37 -146 69 -146H118C284 -146 353 -86 353 44V203H442C469 203 482 217 482 239V269C482 291 469 305 442 305H353V346C353 403 373 430 437 430H464C496 430 510 449 510 477V500C510 527 496 547 464 547H414C249 547 181 487 181 357V305H115C89 305 75 291 75 269V239C75 217 89 203 115 203Z" glyph-name="florin.sc" horiz-adv-x="555" /><glyph d="M91 203H156V55C156 -2 136 -28 71 -28H46C13 -28 -1 -48 -1 -75V-100C-1 -126 13 -146 46 -146H95C261 -146 328 -86 328 44V203H419C445 203 459 217 459 239V269C459 291 445 305 419 305H328V346C328 403 350 430 414 430H439C473 430 486 449 486 477V500C486 527 473 547 439 547H391C225 547 156 487 156 357V305H91C64 305 51 291 51 269V239C51 217 64 203 91 203Z" glyph-name="florin.scppf" horiz-adv-x="515" /><glyph d="M81 124H370V47C370 20 384 0 417 0H479C512 0 524 20 524 47V124H550C580 124 594 144 594 170V216C594 243 580 263 550 263H524V382C524 409 512 429 479 429H417C384 429 370 409 370 382V263H205C271 383 334 537 364 695C366 705 367 710 367 715C367 735 353 750 327 750H238C203 750 191 735 187 704C161 549 119 405 45 255C37 238 34 227 34 206V170C34 144 49 124 81 124Z" glyph-name="four" horiz-adv-x="625" unicode="4" /><glyph d="M70 124H352V47C352 20 365 0 397 0H459C492 0 506 20 506 47V124H530C561 124 574 144 574 170V216C574 243 561 263 530 263H506V382C506 409 492 429 459 429H397C365 429 352 409 352 382V263H194C261 383 323 537 354 695C355 705 356 710 356 715C356 735 342 750 316 750H227C192 750 181 735 176 704C150 549 108 405 34 255C26 238 23 227 23 206V170C23 144 38 124 70 124Z" glyph-name="four.PPF" horiz-adv-x="604" /><glyph d="M35 47C35 20 50 0 82 0H365V-141C365 -168 379 -188 411 -188H470C503 -188 517 -168 517 -141V0H551C581 0 595 20 595 47V93C595 119 581 139 551 139H517V242C517 270 503 288 470 288H411C379 288 365 270 365 242V139H208C274 250 321 332 358 495C360 505 361 512 361 518C361 536 351 552 319 552H239C204 552 193 536 188 506C160 354 99 226 46 131C36 110 35 95 35 82Z" glyph-name="four.TOSF" horiz-adv-x="625" /><glyph d="M52 71H263V36C263 14 276 0 303 0H348C374 0 387 14 387 36V71H407C426 71 439 82 439 100V145C439 162 426 173 407 173H387V215C387 237 374 251 348 251H303C276 251 263 237 263 215V173H169C217 237 246 291 268 352C274 370 277 388 277 396C277 413 264 423 243 423H167C148 423 132 415 127 394C110 322 78 239 22 160C17 151 12 140 12 125V107C12 85 25 71 52 71Z" glyph-name="four.denominator" horiz-adv-x="456" /><glyph d="M303 328H348C374 328 387 342 387 364V399H407C426 399 439 410 439 428V473C439 490 426 501 407 501H387V543C387 565 374 579 348 579H303C276 579 263 565 263 543V501H169C217 565 246 619 268 680C274 698 277 716 277 725C277 741 264 751 243 751H167C148 751 132 743 127 722C110 650 78 567 22 488C17 479 12 468 12 453V436C12 413 25 399 52 399H263V364C263 342 276 328 303 328Z" glyph-name="four.numerator" horiz-adv-x="456" /><glyph d="M20 47C20 20 34 0 66 0H349V-141C349 -168 362 -188 396 -188H454C487 -188 501 -168 501 -141V0H535C565 0 579 20 579 47V93C579 119 565 139 535 139H501V242C501 270 487 288 454 288H396C362 288 349 270 349 242V139H191C259 250 305 332 343 495C345 505 346 512 346 518C346 536 335 552 304 552H224C188 552 178 536 172 506C144 354 82 226 30 131C20 110 20 95 20 82Z" glyph-name="four.oldstyle" horiz-adv-x="593" /><glyph d="M312 79V47C312 20 326 0 359 0H416C448 0 462 20 462 47V79H494C515 79 525 91 525 110V170C525 189 515 201 494 201H462V250C462 277 448 297 416 297H359C326 297 312 277 312 250V201H191C254 294 296 377 327 488C330 499 331 509 331 513C331 530 321 547 287 547H200C164 547 155 531 148 502C120 370 75 271 30 197C19 177 19 161 19 148V125C19 99 32 79 65 79Z" glyph-name="four.sc" horiz-adv-x="555" /><glyph d="M315 79V47C315 20 329 0 362 0H418C451 0 465 20 465 47V79H497C518 79 528 91 528 110V170C528 189 518 201 497 201H465V250C465 277 451 297 418 297H362C329 297 315 277 315 250V201H193C256 294 299 377 329 488C332 499 333 509 333 513C333 530 324 547 289 547H203C167 547 157 531 151 502C122 370 78 271 33 197C21 177 21 161 21 148V125C21 99 35 79 67 79Z" glyph-name="four.scppf" horiz-adv-x="558" /><glyph d="M-66 39 273 710C277 717 280 725 280 730C280 741 271 750 252 750H221C198 750 186 737 175 717L-168 40C-173 31 -175 26 -175 20C-175 7 -163 0 -148 0H-115C-92 0 -79 14 -66 39Z" glyph-name="fraction" horiz-adv-x="105" unicode="&#8260;" /><glyph d="M232 -59H154C121 -59 108 -78 108 -105V-141C108 -168 121 -188 154 -188H303C478 -188 590 -100 590 75V500C590 527 576 547 543 547H324C163 547 41 455 41 283V230C41 102 114 31 228 31C301 31 347 51 396 77L418 89V78C418 -38 355 -59 232 -59ZM354 418H418V202L392 191C360 178 329 165 284 165C236 165 213 192 213 248V278C213 370 266 418 354 418Z" glyph-name="g" horiz-adv-x="658" unicode="g" /><glyph d="M35 176C35 75 98 23 196 23C260 23 299 38 342 58L359 64V60C359 -9 318 -41 220 -41H133C105 -41 93 -55 93 -77V-108C93 -131 105 -145 133 -145H261C411 -145 508 -77 508 58V386C508 408 494 422 468 422H280C141 422 35 352 35 219ZM245 132C205 132 185 151 185 192V217C185 285 229 318 306 318H359V158L337 151C311 142 284 132 245 132Z" glyph-name="g.denominator" horiz-adv-x="566" /><glyph d="M35 20C35 -81 98 -133 196 -133C260 -133 299 -118 342 -99L359 -91V-97C359 -165 318 -197 220 -197H133C105 -197 93 -211 93 -233V-265C93 -287 105 -301 133 -301H261C411 -301 508 -233 508 -99V229C508 252 494 266 468 266H280C141 266 35 195 35 62ZM245 -24C205 -24 185 -5 185 36V61C185 129 229 162 306 162H359V2L337 -5C311 -15 284 -24 245 -24Z" glyph-name="g.inferior" horiz-adv-x="566" /><glyph d="M196 352C260 352 299 366 342 386L359 393V388C359 319 318 287 220 287H133C105 287 93 273 93 251V220C93 197 105 184 133 184H261C411 184 508 251 508 386V714C508 736 494 750 468 750H280C141 750 35 680 35 547V504C35 403 98 352 196 352ZM245 460C205 460 185 479 185 521V545C185 613 229 646 306 646H359V486L337 479C311 470 284 460 245 460Z" glyph-name="g.numerator" horiz-adv-x="566" /><glyph d="M38 243C38 90 144 -8 336 -8H366C440 -8 527 15 559 26V264C559 291 546 311 513 311H383C350 311 336 291 336 264V254C336 227 350 207 380 207H410V126C397 123 381 121 366 121H343C268 121 210 161 210 243V304C210 395 284 426 371 426C412 426 453 421 488 415C500 413 511 411 516 411C532 411 545 422 545 449V486C545 514 537 534 503 541C479 546 428 555 363 555C190 555 38 479 38 304Z" glyph-name="g.sc" horiz-adv-x="621" /><glyph d="M196 508C260 508 299 522 342 542L359 549V544C359 476 318 443 220 443H133C105 443 93 430 93 407V376C93 354 105 340 133 340H261C411 340 508 407 508 542V870C508 893 494 906 468 906H280C141 906 35 836 35 703V660C35 560 98 508 196 508ZM245 616C205 616 185 636 185 677V701C185 770 229 803 306 803H359V643L337 636C311 626 284 616 245 616Z" glyph-name="g.superior" horiz-adv-x="566" /><glyph d="M232 -59H154C121 -59 108 -78 108 -105V-141C108 -168 121 -188 154 -188H303C478 -188 590 -100 590 75V500C590 527 576 547 543 547H324C163 547 41 455 41 283V230C41 102 114 31 228 31C301 31 347 51 396 77L418 89V78C418 -38 355 -59 232 -59ZM354 418H418V202L392 191C360 178 329 165 284 165C236 165 213 192 213 248V278C213 370 266 418 354 418ZM336 614C440 614 503 674 509 769C510 788 493 791 483 791H473C457 791 449 783 442 764C428 729 396 708 336 708C278 708 245 729 232 764C224 783 217 791 201 791H190C181 791 163 788 165 769C169 674 234 614 336 614Z" glyph-name="gbreve" horiz-adv-x="658" unicode="&#287;" /><glyph d="M38 243C38 90 144 -8 336 -8H366C440 -8 527 15 559 26V264C559 291 546 311 513 311H383C350 311 336 291 336 264V254C336 227 350 207 380 207H410V126C397 123 381 121 366 121H343C268 121 210 161 210 243V304C210 395 284 426 371 426C412 426 453 421 488 415C500 413 511 411 516 411C532 411 545 422 545 449V486C545 514 537 534 503 541C479 546 428 555 363 555C190 555 38 479 38 304ZM332 614C436 614 499 674 505 769C506 788 489 791 479 791H469C453 791 445 783 438 764C424 729 392 708 332 708C274 708 241 729 228 764C220 783 213 791 197 791H186C177 791 159 788 161 769C165 674 230 614 332 614Z" glyph-name="gbreve.sc" horiz-adv-x="621" /><glyph d="M232 -59H154C121 -59 108 -78 108 -105V-141C108 -168 121 -188 154 -188H303C478 -188 590 -100 590 75V500C590 527 576 547 543 547H324C163 547 41 455 41 283V230C41 102 114 31 228 31C301 31 347 51 396 77L418 89V78C418 -38 355 -59 232 -59ZM354 418H418V202L392 191C360 178 329 165 284 165C236 165 213 192 213 248V278C213 370 266 418 354 418ZM368 624C388 624 396 636 400 652L421 748C422 755 424 761 424 764C424 774 417 781 402 781H367C349 781 339 772 329 756L283 679C277 670 274 662 274 654V649C274 633 283 624 299 624Z" glyph-name="gcedilla" horiz-adv-x="658" /><glyph d="M38 243C38 90 144 -8 336 -8H366C440 -8 527 15 559 26V264C559 291 546 311 513 311H383C350 311 336 291 336 264V254C336 227 350 207 380 207H410V126C397 123 381 121 366 121H343C268 121 210 161 210 243V304C210 395 284 426 371 426C412 426 453 421 488 415C500 413 511 411 516 411C532 411 545 422 545 449V486C545 514 537 534 503 541C479 546 428 555 363 555C190 555 38 479 38 304ZM299 -30C279 -30 272 -42 268 -59L246 -154C245 -161 243 -167 243 -170C243 -181 251 -188 266 -188H301C318 -188 328 -179 338 -162L385 -85C390 -76 393 -68 393 -61V-56C393 -39 384 -30 368 -30Z" glyph-name="gcedilla.sc" horiz-adv-x="621" /><glyph d="M324 547C163 547 41 455 41 283V230C41 102 114 31 228 31C301 31 347 51 396 77L418 89V78C418 -38 355 -59 232 -59H154C121 -59 108 -78 108 -105V-141C108 -168 121 -188 154 -188H303C478 -188 590 -100 590 75V500C590 527 576 547 543 547ZM354 418H418V202L392 191C360 178 329 165 284 165C236 165 213 192 213 248V278C213 370 266 418 354 418ZM336 726 387 672C416 644 433 625 462 625H497C518 625 529 635 529 645C529 651 525 662 516 672L451 750C426 778 411 797 380 797H293C263 797 247 778 222 750L158 672C148 662 145 651 145 645C145 632 161 625 177 625H210C240 625 258 643 286 672Z" glyph-name="gcircumflex" horiz-adv-x="658" unicode="&#285;" /><glyph d="M38 243C38 90 144 -8 336 -8H366C440 -8 527 15 559 26V264C559 291 546 311 513 311H383C350 311 336 291 336 264V254C336 227 350 207 380 207H410V126C397 123 381 121 366 121H343C268 121 210 161 210 243V304C210 395 284 426 371 426C412 426 453 421 488 415C500 413 511 411 516 411C532 411 545 422 545 449V486C545 514 537 534 503 541C479 546 428 555 363 555C190 555 38 479 38 304ZM332 726 383 672C412 644 429 625 458 625H493C514 625 525 635 525 645C525 651 521 662 512 672L447 750C422 778 407 797 376 797H289C259 797 243 778 218 750L154 672C144 662 141 651 141 645C141 632 157 625 173 625H206C236 625 254 643 282 672Z" glyph-name="gcircumflex.sc" horiz-adv-x="621" /><glyph d="M232 -59H154C121 -59 108 -78 108 -105V-141C108 -168 121 -188 154 -188H303C478 -188 590 -100 590 75V500C590 527 576 547 543 547H324C163 547 41 455 41 283V230C41 102 114 31 228 31C301 31 347 51 396 77L418 89V78C418 -38 355 -59 232 -59ZM354 418H418V202L392 191C360 178 329 165 284 165C236 165 213 192 213 248V278C213 370 266 418 354 418ZM368 624C388 624 396 636 400 652L421 748C422 755 424 761 424 764C424 774 417 781 402 781H367C349 781 339 772 329 756L283 679C277 670 274 662 274 654V649C274 633 283 624 299 624Z" glyph-name="gcommaaccent" horiz-adv-x="658" unicode="&#291;" /><glyph d="M38 243C38 90 144 -8 336 -8H366C440 -8 527 15 559 26V264C559 291 546 311 513 311H383C350 311 336 291 336 264V254C336 227 350 207 380 207H410V126C397 123 381 121 366 121H343C268 121 210 161 210 243V304C210 395 284 426 371 426C412 426 453 421 488 415C500 413 511 411 516 411C532 411 545 422 545 449V486C545 514 537 534 503 541C479 546 428 555 363 555C190 555 38 479 38 304ZM299 -30C279 -30 272 -42 268 -59L246 -154C245 -161 243 -167 243 -170C243 -181 251 -188 266 -188H301C318 -188 328 -179 338 -162L385 -85C390 -76 393 -68 393 -61V-56C393 -39 384 -30 368 -30Z" glyph-name="gcommaaccent.sc" horiz-adv-x="621" /><glyph d="M324 547C163 547 41 455 41 283V230C41 102 114 31 228 31C301 31 347 51 396 77L418 89V78C418 -38 355 -59 232 -59H154C121 -59 108 -78 108 -105V-141C108 -168 121 -188 154 -188H303C478 -188 590 -100 590 75V500C590 527 576 547 543 547ZM354 418H418V202L392 191C360 178 329 165 284 165C236 165 213 192 213 248V278C213 370 266 418 354 418ZM307 620H366C399 620 413 640 413 666V692C413 720 399 739 366 739H307C275 739 261 720 261 692V666C261 640 275 620 307 620Z" glyph-name="gdotaccent" horiz-adv-x="658" unicode="&#289;" /><glyph d="M38 243C38 90 144 -8 336 -8H366C440 -8 527 15 559 26V264C559 291 546 311 513 311H383C350 311 336 291 336 264V254C336 227 350 207 380 207H410V126C397 123 381 121 366 121H343C268 121 210 161 210 243V304C210 395 284 426 371 426C412 426 453 421 488 415C500 413 511 411 516 411C532 411 545 422 545 449V486C545 514 537 534 503 541C479 546 428 555 363 555C190 555 38 479 38 304ZM303 620H362C395 620 409 640 409 666V692C409 720 395 739 362 739H303C271 739 257 720 257 692V666C257 640 271 620 303 620Z" glyph-name="gdotaccent.sc" horiz-adv-x="621" /><glyph d="M82 418V47C82 20 96 0 129 0H207C240 0 254 20 254 47V522C254 605 304 629 365 629C416 629 453 617 453 577C453 544 422 523 396 498C367 472 333 439 333 388C333 312 382 274 463 244L512 225C544 211 562 202 562 173C562 134 516 121 470 121C435 121 414 124 373 132C367 133 364 133 360 133C340 133 326 120 326 97V48C326 20 340 5 375 0C423 -7 447 -8 484 -8C621 -8 739 44 739 179C739 285 661 310 593 339L560 354C534 365 510 377 510 407C510 434 529 452 550 470C585 498 625 529 625 597C625 717 483 750 357 750C210 750 82 686 82 559V547H58C24 547 11 527 11 500V465C11 437 24 418 58 418Z" glyph-name="germandbls" horiz-adv-x="771" unicode="&#223;" /><glyph d="M605 51C605 23 618 6 648 2C706 -5 738 -8 793 -8C932 -8 1078 25 1078 166C1078 271 1002 308 918 326L846 343C817 350 781 356 781 383C781 418 832 426 875 426C909 426 950 423 987 418C1000 416 1008 415 1013 415C1034 415 1048 430 1048 454V498C1048 524 1034 539 1009 543C956 551 923 555 873 555C736 555 604 512 604 386C604 295 660 251 748 231L832 212C861 205 900 193 900 166C900 129 836 121 793 121C750 121 709 125 652 133C646 134 645 134 641 134C620 134 605 121 605 96ZM47 51C47 23 60 6 91 2C147 -5 181 -8 235 -8C374 -8 520 25 520 166C520 271 444 308 359 326L288 343C260 350 223 356 223 383C223 418 274 426 317 426C351 426 393 423 429 418C442 416 450 415 455 415C477 415 490 430 490 454V498C490 524 476 539 451 543C398 551 364 555 315 555C179 555 46 512 46 386C46 295 102 251 190 231L274 212C304 205 343 193 343 166C343 129 278 121 235 121C191 121 151 125 95 133C88 134 86 134 83 134C62 134 47 121 47 96Z" glyph-name="germandbls.sc" horiz-adv-x="1116" /><glyph d="M177 737 256 666C283 644 304 625 330 625H371C392 625 400 634 400 646C400 650 398 657 392 666L340 740C322 766 307 781 277 781H190C167 781 159 774 159 763C159 755 165 747 177 737Z" glyph-name="grave" horiz-adv-x="632" unicode="`" /><glyph d="M73 140C73 115 84 102 101 102C107 102 115 104 122 107L505 279C536 294 552 310 552 340V395C552 425 532 441 503 455L122 626C115 629 107 632 101 632C84 632 73 618 73 594V526C73 496 89 479 120 470L388 366L120 264C89 253 73 236 73 207Z" glyph-name="greater" horiz-adv-x="625" unicode="&gt;" /><glyph d="M71 86C71 62 81 48 99 48C105 48 115 52 123 54L468 184C503 195 523 213 523 249V298C523 331 506 351 468 363L120 493C113 495 103 499 96 499C82 499 71 485 71 461V408C71 379 86 359 120 352L357 273L117 195C91 188 71 171 71 139Z" glyph-name="greater.sc" horiz-adv-x="555" /><glyph d="M73 47C73 20 87 0 120 0H505C538 0 552 20 552 47V98C552 125 538 144 505 144H120C87 144 73 125 73 98ZM121 372C89 362 73 345 73 315V250C73 226 84 212 101 212C108 212 121 217 129 221L504 370C535 383 552 400 552 430V483C552 513 532 532 501 544L129 692C121 696 108 701 101 701C84 701 73 687 73 663V598C73 568 89 551 121 541L388 457Z" glyph-name="greaterequal" horiz-adv-x="625" unicode="&#8805;" /><glyph d="M335 368 98 307C68 301 49 282 49 249V197C49 172 59 159 75 159C84 159 95 163 108 168L441 278C479 290 501 309 501 344V393C501 428 480 446 441 459L105 569C93 573 81 578 72 578C60 578 49 565 49 539V488C49 457 63 437 101 430ZM504 87C504 114 490 134 457 134H95C62 134 49 114 49 87V47C49 20 62 0 95 0H457C490 0 504 20 504 47Z" glyph-name="greaterequal.sc" horiz-adv-x="555" /><glyph d="M211 111C223 103 231 100 240 100C253 100 261 112 261 134V176C261 207 241 224 218 241L146 297L218 352C246 373 261 389 261 420V460C261 482 253 494 239 494C229 494 223 490 211 481L89 388C60 366 42 351 42 319V273C42 242 59 228 89 205ZM461 111C473 103 481 100 490 100C503 100 511 112 511 134V176C511 207 491 224 468 241L396 297L468 352C496 373 511 389 511 420V460C511 482 503 494 489 494C479 494 473 490 461 481L339 388C310 366 292 351 292 319V273C292 242 309 228 339 205Z" glyph-name="guillemotleft" horiz-adv-x="565" unicode="&#171;" /><glyph d="M211 197C223 188 231 186 240 186C253 186 261 198 261 220V262C261 293 241 310 218 327L146 383L218 437C246 459 261 475 261 506V546C261 568 253 580 239 580C229 580 223 576 211 567L89 474C60 452 42 437 42 405V359C42 328 59 313 89 291ZM461 197C473 188 481 186 490 186C503 186 511 198 511 220V262C511 293 491 310 468 327L396 383L468 437C496 459 511 475 511 506V546C511 568 503 580 489 580C479 580 473 576 461 567L339 474C310 452 292 437 292 405V359C292 328 309 313 339 291Z" glyph-name="guillemotleft.cap" horiz-adv-x="565" /><glyph d="M211 100C223 91 231 88 240 88C253 88 261 101 261 122V164C261 195 241 212 218 229L146 285L218 340C246 361 261 377 261 408V448C261 471 253 482 239 482C229 482 223 479 211 470L89 376C60 354 42 339 42 308V262C42 230 59 216 89 193ZM461 100C473 91 481 88 490 88C503 88 511 101 511 122V164C511 195 491 212 468 229L396 285L468 340C496 361 511 377 511 408V448C511 471 503 482 489 482C479 482 473 479 461 470L339 376C310 354 292 339 292 308V262C292 230 309 216 339 193Z" glyph-name="guillemotleft.sc" horiz-adv-x="565" /><glyph d="M477 206C507 228 523 243 523 273V320C523 351 506 367 477 388L355 481C343 491 336 495 326 495C312 495 305 483 305 460V420C305 389 319 373 349 353L420 297L349 242C324 225 305 207 305 177V134C305 113 312 100 326 100C334 100 343 103 355 112ZM227 206C257 228 273 243 273 273V320C273 351 256 367 227 388L105 481C93 491 86 495 76 495C62 495 55 483 55 460V420C55 389 69 373 99 353L170 297L99 242C74 225 55 207 55 177V134C55 113 62 100 76 100C84 100 93 103 105 112Z" glyph-name="guillemotright" horiz-adv-x="565" unicode="&#187;" /><glyph d="M55 220C55 199 62 186 76 186C84 186 93 188 105 198L227 292C257 313 273 329 273 359V406C273 437 256 453 227 474L105 567C93 577 86 581 76 581C62 581 55 569 55 546V506C55 475 69 459 99 437L170 383L99 327C74 310 55 293 55 263ZM305 220C305 199 312 186 326 186C334 186 343 188 355 198L477 292C507 313 523 329 523 359V406C523 437 506 453 477 474L355 567C343 577 336 581 326 581C312 581 305 569 305 546V506C305 475 319 459 349 437L420 383L349 327C324 310 305 293 305 263Z" glyph-name="guillemotright.cap" horiz-adv-x="565" /><glyph d="M55 122C55 102 62 88 76 88C84 88 93 91 105 101L227 194C257 216 273 231 273 262V309C273 339 256 355 227 376L105 470C93 479 86 483 76 483C62 483 55 472 55 448V408C55 377 69 361 99 340L170 285L99 229C74 212 55 195 55 165ZM305 122C305 102 312 88 326 88C334 88 343 91 355 101L477 194C507 216 523 231 523 262V309C523 339 506 355 477 376L355 470C343 479 336 483 326 483C312 483 305 472 305 448V408C305 377 319 361 349 340L420 285L349 229C324 212 305 195 305 165Z" glyph-name="guillemotright.sc" horiz-adv-x="565" /><glyph d="M211 112C223 103 231 100 240 100C253 100 261 113 261 134V177C261 207 241 225 218 242L146 297L218 353C246 373 261 389 261 420V460C261 483 253 495 239 495C229 495 223 491 211 481L89 388C60 367 42 351 42 320V273C42 243 59 228 89 206Z" glyph-name="guilsinglleft" horiz-adv-x="315" unicode="&#8249;" /><glyph d="M211 198C223 188 231 186 240 186C253 186 261 199 261 220V263C261 293 241 311 218 328L146 383L218 438C246 459 261 475 261 506V546C261 569 253 581 239 581C229 581 223 577 211 567L89 474C60 453 42 437 42 406V359C42 329 59 313 89 292Z" glyph-name="guilsinglleft.cap" horiz-adv-x="315" /><glyph d="M211 101C223 91 231 88 240 88C253 88 261 102 261 122V165C261 195 241 213 218 230L146 285L218 341C246 361 261 377 261 408V448C261 472 253 483 239 483C229 483 223 479 211 470L89 376C60 355 42 339 42 309V262C42 231 59 216 89 194Z" glyph-name="guilsinglleft.sc" horiz-adv-x="315" /><glyph d="M55 134C55 113 62 100 76 100C84 100 93 103 105 112L227 206C257 228 273 243 273 273V320C273 351 256 367 227 388L105 481C93 491 86 495 76 495C62 495 55 483 55 460V420C55 389 69 373 99 352L170 297L99 241C74 224 55 207 55 177Z" glyph-name="guilsinglright" horiz-adv-x="315" unicode="&#8250;" /><glyph d="M55 220C55 199 62 186 76 186C84 186 93 188 105 198L227 292C257 313 273 329 273 359V406C273 437 256 453 227 474L105 567C93 577 86 581 76 581C62 581 55 569 55 546V506C55 475 69 459 99 437L170 383L99 327C74 310 55 293 55 263Z" glyph-name="guilsinglright.cap" horiz-adv-x="315" /><glyph d="M55 122C55 102 62 88 76 88C84 88 93 91 105 101L227 194C257 216 273 231 273 262V309C273 339 256 355 227 376L105 470C93 479 86 483 76 483C62 483 55 472 55 448V408C55 377 69 361 99 340L170 285L99 229C74 212 55 195 55 165Z" glyph-name="guilsinglright.sc" horiz-adv-x="315" /><glyph d="M68 47C68 20 82 0 115 0H194C227 0 240 20 240 47V334L264 357C292 386 326 421 367 421C398 421 428 404 428 342V47C428 20 441 0 475 0H553C586 0 600 20 600 47V370C600 509 530 555 434 555C354 555 309 524 270 481L240 449V703C240 730 227 750 194 750H115C82 750 68 730 68 703Z" glyph-name="h" horiz-adv-x="666" unicode="h" /><glyph d="M58 36C58 14 71 0 98 0H167C193 0 207 14 207 36V249L227 268C250 290 279 316 313 316C340 316 367 302 367 251V36C367 14 381 0 407 0H477C503 0 517 14 517 36V273C517 390 453 430 368 430C302 430 266 405 226 366L207 348V542C207 564 193 578 167 578H98C71 578 58 564 58 542Z" glyph-name="h.denominator" horiz-adv-x="573" /><glyph d="M58 -120C58 -143 71 -156 98 -156H167C193 -156 207 -143 207 -120V93L227 111C249 134 279 160 313 160C340 160 367 146 367 95V-120C367 -143 381 -156 407 -156H477C503 -156 517 -143 517 -120V117C517 233 453 273 368 273C302 273 266 249 226 210L207 192V386C207 408 193 422 167 422H98C71 422 58 408 58 386Z" glyph-name="h.inferior" horiz-adv-x="573" /><glyph d="M367 364C367 342 381 328 407 328H477C503 328 517 342 517 364V602C517 718 453 758 368 758C302 758 266 733 226 694L207 676V870C207 893 193 906 167 906H98C71 906 58 893 58 870V364C58 342 71 328 98 328H167C193 328 207 342 207 364V577L227 596C250 618 279 645 313 645C340 645 367 630 367 579Z" glyph-name="h.numerator" horiz-adv-x="573" /><glyph d="M68 500V47C68 20 82 0 115 0H194C227 0 240 20 240 47V213H429V47C429 20 442 0 476 0H555C587 0 601 20 601 47V500C601 527 587 547 555 547H476C442 547 429 527 429 500V342H240V500C240 527 227 547 194 547H115C82 547 68 527 68 500Z" glyph-name="h.sc" horiz-adv-x="669" /><glyph d="M407 484H477C503 484 517 498 517 521V758C517 874 453 914 368 914C302 914 266 890 226 851L207 833V1026C207 1049 193 1062 167 1062H98C71 1062 58 1049 58 1026V521C58 498 71 484 98 484H167C193 484 207 498 207 521V733L227 752C250 774 279 801 313 801C340 801 367 786 367 735V521C367 498 381 484 407 484Z" glyph-name="h.superior" horiz-adv-x="573" /><glyph d="M50 604H68V47C68 20 82 0 115 0H194C227 0 240 20 240 47V334L264 357C292 386 326 421 367 421C398 421 428 404 428 342V47C428 20 441 0 475 0H553C586 0 600 20 600 47V370C600 509 530 555 434 555C354 555 309 524 270 481L240 449V604H288C315 604 329 617 329 642V653C329 678 315 692 288 692H240V703C240 730 227 750 194 750H115C82 750 68 730 68 703V692H50C21 692 8 678 8 653V642C8 617 21 604 50 604Z" glyph-name="hbar" horiz-adv-x="666" unicode="&#295;" /><glyph d="M56 401H68V47C68 20 82 0 115 0H194C227 0 240 20 240 47V213H429V47C429 20 442 0 476 0H555C587 0 601 20 601 47V401H613C640 401 653 414 653 437V453C653 476 640 488 613 488H601V500C601 527 587 547 555 547H476C442 547 429 527 429 500V488H240V500C240 527 227 547 194 547H115C82 547 68 527 68 500V488H56C29 488 16 476 16 453V437C16 414 29 401 56 401ZM240 342V401H429V342Z" glyph-name="hbar.sc" horiz-adv-x="669" /><glyph d="M68 47C68 20 82 0 115 0H194C227 0 240 20 240 47V334L264 357C292 386 326 421 367 421C398 421 428 404 428 342V47C428 20 441 0 475 0H553C586 0 600 20 600 47V370C600 509 530 555 434 555C354 555 309 524 270 481L240 449V703C240 730 227 750 194 750H115C82 750 68 730 68 703ZM154 929 205 875C234 847 251 828 280 828H315C336 828 347 838 347 848C347 854 343 865 334 875L269 953C244 981 229 1000 198 1000H111C81 1000 65 981 40 953L-24 875C-34 865 -37 854 -37 848C-37 835 -21 828 -5 828H28C58 828 76 846 104 875Z" glyph-name="hcircumflex" horiz-adv-x="666" unicode="&#293;" /><glyph d="M68 500V47C68 20 82 0 115 0H194C227 0 240 20 240 47V213H429V47C429 20 442 0 476 0H555C587 0 601 20 601 47V500C601 527 587 547 555 547H476C442 547 429 527 429 500V342H240V500C240 527 227 547 194 547H115C82 547 68 527 68 500ZM335 726 386 672C415 644 432 625 461 625H496C517 625 528 635 528 645C528 651 524 662 515 672L450 750C425 778 410 797 379 797H292C262 797 246 778 221 750L157 672C147 662 144 651 144 645C144 632 160 625 176 625H209C239 625 257 643 285 672Z" glyph-name="hcircumflex.sc" horiz-adv-x="669" /><glyph d="M432 625C459 625 479 645 506 666L588 737C601 748 605 755 605 763C605 774 598 781 574 781H505C475 781 466 770 444 745L383 666C376 658 374 650 374 646C374 634 383 625 403 625ZM217 625C244 625 264 645 291 666L373 737C386 748 391 755 391 763C391 774 383 781 359 781H290C261 781 251 770 229 745L168 666C161 658 159 650 159 646C159 634 168 625 188 625Z" glyph-name="hungarumlaut" horiz-adv-x="632" unicode="&#733;" /><glyph d="M89 228H317C351 228 364 247 364 273V320C364 347 351 366 317 366H89C56 366 42 347 42 320V273C42 247 56 228 89 228Z" glyph-name="hyphen" horiz-adv-x="406" unicode="-" /><glyph d="M89 313H317C351 313 364 333 364 359V406C364 433 351 452 317 452H89C56 452 42 433 42 406V359C42 333 56 313 89 313Z" glyph-name="hyphen.cap" horiz-adv-x="406" /><glyph d="M241 154C267 154 281 168 281 190V228C281 250 267 264 241 264H71C46 264 31 250 31 228V190C31 168 46 154 71 154Z" glyph-name="hyphen.denominator" horiz-adv-x="312" /><glyph d="M31 34C31 12 46 -2 71 -2H241C267 -2 281 12 281 34V71C281 94 267 107 241 107H71C46 107 31 94 31 71Z" glyph-name="hyphen.inferior" horiz-adv-x="312" /><glyph d="M241 482C267 482 281 496 281 519V556C281 578 267 592 241 592H71C46 592 31 578 31 556V519C31 496 46 482 71 482Z" glyph-name="hyphen.numerator" horiz-adv-x="312" /><glyph d="M89 216H317C351 216 364 235 364 262V309C364 335 351 354 317 354H89C56 354 42 335 42 309V262C42 235 56 216 89 216Z" glyph-name="hyphen.sc" horiz-adv-x="406" /><glyph d="M241 639C267 639 281 652 281 675V712C281 734 267 748 241 748H71C46 748 31 734 31 712V675C31 652 46 639 71 639Z" glyph-name="hyphen.superior" horiz-adv-x="312" /><glyph d="M210 616C242 616 256 635 256 662V703C256 730 242 750 210 750H131C98 750 84 730 84 703V662C84 635 98 616 131 616ZM84 47C84 20 98 0 131 0H210C242 0 256 20 256 47V500C256 527 242 547 210 547H52C20 547 6 527 6 500V465C6 437 20 418 52 418H84Z" glyph-name="i" horiz-adv-x="324" unicode="i" /><glyph d="M111 474H179C205 474 219 487 219 510V542C219 564 205 578 179 578H111C85 578 71 564 71 542V510C71 487 85 474 111 474ZM71 36C71 14 85 0 111 0H180C206 0 220 14 220 36V386C220 408 206 422 180 422H44C18 422 4 408 4 386V354C4 332 18 318 44 318H71Z" glyph-name="i.denominator" horiz-adv-x="277" /><glyph d="M111 317H179C205 317 219 331 219 354V386C219 408 205 422 179 422H111C85 422 71 408 71 386V354C71 331 85 317 111 317ZM71 -120C71 -143 85 -156 111 -156H180C206 -156 220 -143 220 -120V229C220 252 206 266 180 266H44C18 266 4 252 4 229V198C4 176 18 162 44 162H71Z" glyph-name="i.inferior" horiz-adv-x="277" /><glyph d="M111 802H179C205 802 219 815 219 838V870C219 893 205 906 179 906H111C85 906 71 893 71 870V838C71 815 85 802 111 802ZM111 328H180C206 328 220 342 220 364V714C220 736 206 750 180 750H44C18 750 4 736 4 714V683C4 660 18 646 44 646H71V364C71 342 85 328 111 328Z" glyph-name="i.numerator" horiz-adv-x="277" /><glyph d="M68 47C68 20 82 0 115 0H194C227 0 240 20 240 47V500C240 527 227 547 194 547H115C82 547 68 527 68 500Z" glyph-name="i.sc" horiz-adv-x="309" /><glyph d="M111 958H179C205 958 219 972 219 994V1026C219 1049 205 1062 179 1062H111C85 1062 71 1049 71 1026V994C71 972 85 958 111 958ZM111 484H180C206 484 220 498 220 521V870C220 893 206 906 180 906H44C18 906 4 893 4 870V839C4 816 18 803 44 803H71V521C71 498 85 484 111 484Z" glyph-name="i.superior" horiz-adv-x="277" /><glyph d="M84 47C84 20 98 0 131 0H210C242 0 256 20 256 47V500C256 527 242 547 210 547H52C20 547 6 527 6 500V465C6 437 20 418 52 418H84ZM177 625C203 625 224 644 251 666L330 737C342 747 348 755 348 763C348 774 340 781 316 781H229C199 781 185 766 166 740L114 666C108 657 106 650 106 646C106 634 114 625 135 625Z" glyph-name="iacute" horiz-adv-x="324" unicode="&#237;" /><glyph d="M68 47C68 20 82 0 115 0H194C227 0 240 20 240 47V500C240 527 227 547 194 547H115C82 547 68 527 68 500ZM181 625C207 625 228 644 255 666L334 737C346 747 352 755 352 763C352 774 344 781 320 781H233C203 781 189 766 170 740L118 666C112 657 110 650 110 646C110 634 118 625 139 625Z" glyph-name="iacute.sc" horiz-adv-x="309" /><glyph d="M84 47C84 20 98 0 131 0H210C242 0 256 20 256 47V500C256 527 242 547 210 547H52C20 547 6 527 6 500V465C6 437 20 418 52 418H84ZM173 614C277 614 340 674 346 769C347 788 330 791 320 791H310C294 791 286 783 279 764C265 729 233 708 173 708C115 708 82 729 69 764C61 783 54 791 38 791H27C18 791 0 788 2 769C6 674 71 614 173 614Z" glyph-name="ibreve" horiz-adv-x="324" unicode="&#301;" /><glyph d="M68 47C68 20 82 0 115 0H194C227 0 240 20 240 47V500C240 527 227 547 194 547H115C82 547 68 527 68 500ZM154 614C258 614 321 674 327 769C328 788 311 791 301 791H291C275 791 267 783 260 764C246 729 214 708 154 708C96 708 63 729 50 764C42 783 35 791 19 791H8C-1 791 -19 788 -17 769C-13 674 52 614 154 614Z" glyph-name="ibreve.sc" horiz-adv-x="309" /><glyph d="M84 47C84 20 98 0 131 0H210C242 0 256 20 256 47V500C256 527 242 547 210 547H52C20 547 6 527 6 500V465C6 437 20 418 52 418H84ZM173 726 224 672C253 644 270 625 299 625H334C355 625 366 635 366 645C366 651 362 662 353 672L288 750C263 778 248 797 217 797H130C100 797 84 778 59 750L-5 672C-15 662 -18 651 -18 645C-18 632 -2 625 14 625H47C77 625 95 643 123 672Z" glyph-name="icircumflex" horiz-adv-x="324" unicode="&#238;" /><glyph d="M68 47C68 20 82 0 115 0H194C227 0 240 20 240 47V500C240 527 227 547 194 547H115C82 547 68 527 68 500ZM154 726 205 672C234 644 251 625 280 625H315C336 625 347 635 347 645C347 651 343 662 334 672L269 750C244 778 229 797 198 797H111C81 797 65 778 40 750L-24 672C-34 662 -37 651 -37 645C-37 632 -21 625 -5 625H28C58 625 76 643 104 672Z" glyph-name="icircumflex.sc" horiz-adv-x="309" /><glyph d="M84 47C84 20 98 0 131 0H210C242 0 256 20 256 47V500C256 527 242 547 210 547H52C20 547 6 527 6 500V465C6 437 20 418 52 418H84ZM284 625H326C358 625 372 645 372 672V692C372 720 358 739 326 739H284C252 739 238 720 238 692V672C238 645 252 625 284 625ZM22 625H63C96 625 110 645 110 672V692C110 720 96 739 63 739H22C-11 739 -25 720 -25 692V672C-25 645 -11 625 22 625Z" glyph-name="idieresis" horiz-adv-x="324" unicode="&#239;" /><glyph d="M68 47C68 20 82 0 115 0H194C227 0 240 20 240 47V500C240 527 227 547 194 547H115C82 547 68 527 68 500ZM265 625H307C339 625 353 645 353 672V692C353 720 339 739 307 739H265C233 739 219 720 219 692V672C219 645 233 625 265 625ZM3 625H44C77 625 91 645 91 672V692C91 720 77 739 44 739H3C-30 739 -44 720 -44 692V672C-44 645 -30 625 3 625Z" glyph-name="idieresis.sc" horiz-adv-x="309" /><glyph d="M68 47C68 20 82 0 115 0H194C227 0 240 20 240 47V500C240 527 227 547 194 547H115C82 547 68 527 68 500ZM125 620H184C217 620 231 640 231 666V692C231 720 217 739 184 739H125C93 739 79 720 79 692V666C79 640 93 620 125 620Z" glyph-name="idotaccent.sc" horiz-adv-x="309" /><glyph d="M84 47C84 20 98 0 131 0H210C242 0 256 20 256 47V500C256 527 242 547 210 547H52C20 547 6 527 6 500V465C6 437 20 418 52 418H84ZM28 737 107 666C134 644 155 625 181 625H222C243 625 251 634 251 646C251 650 249 657 243 666L191 740C173 766 158 781 128 781H41C18 781 10 774 10 763C10 755 16 747 28 737Z" glyph-name="igrave" horiz-adv-x="324" unicode="&#236;" /></font>
</defs>
</svg>
