<svg xmlns="http://www.w3.org/2000/svg" xmlns:xlink="http://www.w3.org/1999/xlink" viewBox="0 0 48 53"><defs><linearGradient id="linear-gradient" x1="24" x2="24" y2="53" gradientUnits="userSpaceOnUse"><stop offset="0" stop-color="#ffe062" stop-opacity="0.5"/><stop offset="1" stop-color="#ffe062" stop-opacity="0"/></linearGradient><linearGradient id="linear-gradient-3" x1="36" y1="10" x2="36" y2="26" gradientUnits="userSpaceOnUse"><stop offset="0" stop-color="#fff" stop-opacity="0.6"/><stop offset="1" stop-color="#fff" stop-opacity="0"/></linearGradient><linearGradient id="linear-gradient-4" x1="36" y1="48" x2="36" y2="63" xlink:href="#linear-gradient-3"/><linearGradient id="linear-gradient-5" x1="24" y1="50" x2="24" y2="47" gradientUnits="userSpaceOnUse"><stop offset="0" stop-color="#eeb900" stop-opacity="0"/><stop offset="1" stop-color="#eeb900"/></linearGradient><linearGradient id="linear-gradient-6" x1="24" y1="7" x2="24" y2="8" xlink:href="#linear-gradient-5"/><linearGradient id="linear-gradient-7" x1="36" y1="18" x2="36" y2="57" xlink:href="#linear-gradient"/><linearGradient id="linear-gradient-8" x1="36" y1="18" x2="36" y2="57" gradientUnits="userSpaceOnUse"><stop offset="0" stop-color="#fff" stop-opacity="0.6"/><stop offset="1" stop-color="#fff7db" stop-opacity="0"/></linearGradient><linearGradient id="linear-gradient-9" x1="36" y1="31" x2="36" y2="47.015" gradientUnits="userSpaceOnUse"><stop offset="0" stop-color="#fff" stop-opacity="0.25"/><stop offset="1" stop-color="#fff" stop-opacity="0"/></linearGradient></defs><title>LEGO_Account_RGB</title><g style="isolation:isolate"><g id="Icons"><g id="Account"><g id="Upper_Lower_Nubs" data-name="Upper/Lower Nubs"><rect x="13" width="22" height="16" rx="2" ry="2" style="fill:#ffd500"/><rect x="10" y="38" width="28" height="15" rx="2" ry="2" style="fill:#ffd500"/><g style="mix-blend-mode:soft-light"><rect x="13" width="22" height="16" rx="2" ry="2" style="fill:url(#linear-gradient)"/><rect x="10" y="38" width="28" height="15" rx="2" ry="2" style="fill:url(#linear-gradient)"/></g><rect x="13" width="22" height="16" rx="2" ry="2" style="fill:#ffd500"/><rect x="10" y="38" width="28" height="15" rx="2" ry="2" style="fill:#ffd500"/><g style="opacity:0.5"><path d="M45,11a1,1,0,0,1,1,1V24a1,1,0,0,1-1,1H27a1,1,0,0,1-1-1V12a1,1,0,0,1,1-1H45m0-1H27a2,2,0,0,0-2,2V24a2,2,0,0,0,2,2H45a2,2,0,0,0,2-2V12a2,2,0,0,0-2-2h0Z" transform="translate(-12 -10)" style="fill-rule:evenodd;fill:url(#linear-gradient-3)"/><path d="M48,49a1,1,0,0,1,1,1V61a1,1,0,0,1-1,1H24a1,1,0,0,1-1-1V50a1,1,0,0,1,1-1H48m0-1H24a2,2,0,0,0-2,2V61a2,2,0,0,0,2,2H48a2,2,0,0,0,2-2V50a2,2,0,0,0-2-2h0Z" transform="translate(-12 -10)" style="fill-rule:evenodd;fill:url(#linear-gradient-4)"/></g></g><rect x="10" y="47" width="28" height="3" style="fill:url(#linear-gradient-5)"/><rect x="13" y="7" width="22" height="1" style="fill-opacity:0.5;fill:url(#linear-gradient-6)"/><g id="Head"><path d="M50,57H22c-10,0-10-8-10-8V26s0-8,10-8H50c10,0,10,8,10,8V49S60,57,50,57Z" transform="translate(-12 -10)" style="fill:#ffd500"/><g style="mix-blend-mode:soft-light"><path d="M50,57H22c-10,0-10-8-10-8V26s0-8,10-8H50c10,0,10,8,10,8V49S60,57,50,57Z" transform="translate(-12 -10)" style="fill:url(#linear-gradient-7)"/></g><g style="opacity:0.5"><path d="M50,19c8.838,0,9,6.718,9,7V49c0,0.286-.1,7-9,7H22c-8.838,0-9-6.718-9-7V26c0-.286.1-7,9-7H50m0-1H22c-10,0-10,8-10,8V49s0,8,10,8H50c10,0,10-8,10-8V26s0-8-10-8h0Z" transform="translate(-12 -10)" style="fill:url(#linear-gradient-8)"/></g></g><g id="Face"><path d="M31,33.5A2.5,2.5,0,1,0,28.5,36,2.5,2.5,0,0,0,31,33.5ZM43.5,31A2.5,2.5,0,1,0,46,33.5,2.5,2.5,0,0,0,43.5,31Zm0.782,10.228a1.213,1.213,0,0,0-1.73.557c-0.012.022-1.23,2.227-6.567,2.227-5.21,0-6.5-2.1-6.567-2.225a1.186,1.186,0,0,0-1.7-.62,1.632,1.632,0,0,0-.573,2.017c0.167,0.389,1.837,3.831,8.838,3.831s8.667-3.442,8.835-3.831A1.607,1.607,0,0,0,44.282,41.228Z" transform="translate(-12 -10)"/><path d="M31,33.5A2.5,2.5,0,1,0,28.5,36,2.5,2.5,0,0,0,31,33.5ZM43.5,31A2.5,2.5,0,1,0,46,33.5,2.5,2.5,0,0,0,43.5,31Zm0.782,10.228a1.213,1.213,0,0,0-1.73.557c-0.012.022-1.23,2.227-6.567,2.227-5.21,0-6.5-2.1-6.567-2.225a1.186,1.186,0,0,0-1.7-.62,1.632,1.632,0,0,0-.573,2.017c0.167,0.389,1.837,3.831,8.838,3.831s8.667-3.442,8.835-3.831A1.607,1.607,0,0,0,44.282,41.228Z" transform="translate(-12 -10)" style="fill:url(#linear-gradient-9)"/><path d="M31,33.5A2.5,2.5,0,1,0,28.5,36,2.5,2.5,0,0,0,31,33.5ZM43.5,31A2.5,2.5,0,1,0,46,33.5,2.5,2.5,0,0,0,43.5,31Zm0.782,10.228a1.213,1.213,0,0,0-1.73.557c-0.012.022-1.23,2.227-6.567,2.227-5.21,0-6.5-2.1-6.567-2.225a1.186,1.186,0,0,0-1.7-.62,1.632,1.632,0,0,0-.573,2.017c0.167,0.389,1.837,3.831,8.838,3.831s8.667-3.442,8.835-3.831A1.607,1.607,0,0,0,44.282,41.228Z" transform="translate(-12 -10)" style="fill:none"/><path d="M31,33.5A2.5,2.5,0,1,0,28.5,36,2.5,2.5,0,0,0,31,33.5ZM43.5,31A2.5,2.5,0,1,0,46,33.5,2.5,2.5,0,0,0,43.5,31Zm0.782,10.228a1.213,1.213,0,0,0-1.73.557c-0.012.022-1.23,2.227-6.567,2.227-5.21,0-6.5-2.1-6.567-2.225a1.186,1.186,0,0,0-1.7-.62,1.632,1.632,0,0,0-.573,2.017c0.167,0.389,1.837,3.831,8.838,3.831s8.667-3.442,8.835-3.831A1.607,1.607,0,0,0,44.282,41.228Z" transform="translate(-12 -10)" style="fill:none"/></g></g></g></g></svg>