<svg xmlns="http://www.w3.org/2000/svg" xmlns:xlink="http://www.w3.org/1999/xlink" viewBox="0 0 56 60"><defs><linearGradient id="linear-gradient" x1="28" y1="12" x2="28" y2="60" gradientUnits="userSpaceOnUse"><stop offset="0" stop-color="#fff" stop-opacity="0.5"/><stop offset="1" stop-color="#fff" stop-opacity="0"/></linearGradient><linearGradient id="linear-gradient-2" x1="36" y1="18" x2="36" y2="66" gradientUnits="userSpaceOnUse"><stop offset="0" stop-color="#fff"/><stop offset="1" stop-color="#fff" stop-opacity="0"/></linearGradient><linearGradient id="linear-gradient-3" x1="28" y1="45" x2="28" y2="6" xlink:href="#linear-gradient-2"/><linearGradient id="linear-gradient-4" x1="38.878" y1="39.265" x2="22.141" y2="7.521" gradientUnits="userSpaceOnUse"><stop offset="0" stop-color="red"/><stop offset="1" stop-color="#f4b499" stop-opacity="0.6"/></linearGradient></defs><title>LEGO_FindALEGOStore_RGB</title><g style="isolation:isolate"><g id="Icons"><g id="FInd_a_LEGO_Store" data-name="FInd a LEGO Store"><rect y="12" width="56" height="48" style="fill:#e4e4e4"/><rect y="12" width="56" height="48" style="fill:url(#linear-gradient)"/><g style="opacity:0.5"><path d="M63,19V65H9V19H63m1-1H8V66H64V18h0Z" transform="translate(-8 -6)" style="fill:url(#linear-gradient-2)"/></g><rect x="4" y="16" width="48" height="40" style="fill:#9acda3"/><path d="M18,62s5-8,14-8c6.083,0,13,0,18-6,6.073-7.288-1-18,10-18V62H18Z" transform="translate(-8 -6)" style="fill:#bbdcf5"/><path d="M40,18a12,12,0,1,0-22.9,5H17L28,45,39,23H38.9A11.935,11.935,0,0,0,40,18Z" transform="translate(-8 -6)" style="fill:red;fill-rule:evenodd"/><path d="M40,18a12,12,0,1,0-22.9,5H17L28,45,39,23H38.9A11.935,11.935,0,0,0,40,18Z" transform="translate(-8 -6)" style="fill-rule:evenodd;opacity:0.30000000000000004;mix-blend-mode:overlay;fill:url(#linear-gradient-3)"/><path d="M28,7A11.012,11.012,0,0,1,39,18a10.9,10.9,0,0,1-1.01,4.582L37.338,24h0.043L28,42.764,18.618,24h0.043L18.01,22.582A10.9,10.9,0,0,1,17,18,11.012,11.012,0,0,1,28,7m0-1A11.982,11.982,0,0,0,17.1,23H17L28,45,39,23H38.9A11.982,11.982,0,0,0,28,6h0Z" transform="translate(-8 -6)" style="fill:url(#linear-gradient-4)"/></g></g></g></svg>